<?xml version="1.0" encoding="utf-8" standalone="no"?>
<!DOCTYPE svg PUBLIC "-//W3C//DTD SVG 1.1//EN"
  "http://www.w3.org/Graphics/SVG/1.1/DTD/svg11.dtd">
<!-- Created with matplotlib (https://matplotlib.org/) -->
<svg height="432pt" version="1.1" viewBox="0 0 720 432" width="720pt" xmlns="http://www.w3.org/2000/svg" xmlns:xlink="http://www.w3.org/1999/xlink">
 <defs>
  <style type="text/css">
*{stroke-linecap:butt;stroke-linejoin:round;}
  </style>
 </defs>
 <g id="figure_1">
  <g id="patch_1">
   <path d="M 0 432 
L 720 432 
L 720 0 
L 0 0 
z
" style="fill:#ffffff;"/>
  </g>
  <g id="axes_1">
   <g id="patch_2">
    <path d="M 90 200.094545 
L 648 200.094545 
L 648 51.84 
L 90 51.84 
z
" style="fill:#ffffff;"/>
   </g>
   <g id="matplotlib.axis_1">
    <g id="xtick_1">
     <g id="line2d_1">
      <path clip-path="url(#pa734bf98ff)" d="M 115.363636 200.094545 
L 115.363636 51.84 
" style="fill:none;stroke:#b0b0b0;stroke-linecap:square;stroke-width:0.8;"/>
     </g>
     <g id="line2d_2">
      <defs>
       <path d="M 0 0 
L 0 3.5 
" id="mdca07d29a1" style="stroke:#000000;stroke-width:0.8;"/>
      </defs>
      <g>
       <use style="stroke:#000000;stroke-width:0.8;" x="115.363636" xlink:href="#mdca07d29a1" y="200.094545"/>
      </g>
     </g>
    </g>
    <g id="xtick_2">
     <g id="line2d_3">
      <path clip-path="url(#pa734bf98ff)" d="M 178.772727 200.094545 
L 178.772727 51.84 
" style="fill:none;stroke:#b0b0b0;stroke-linecap:square;stroke-width:0.8;"/>
     </g>
     <g id="line2d_4">
      <g>
       <use style="stroke:#000000;stroke-width:0.8;" x="178.772727" xlink:href="#mdca07d29a1" y="200.094545"/>
      </g>
     </g>
    </g>
    <g id="xtick_3">
     <g id="line2d_5">
      <path clip-path="url(#pa734bf98ff)" d="M 242.181818 200.094545 
L 242.181818 51.84 
" style="fill:none;stroke:#b0b0b0;stroke-linecap:square;stroke-width:0.8;"/>
     </g>
     <g id="line2d_6">
      <g>
       <use style="stroke:#000000;stroke-width:0.8;" x="242.181818" xlink:href="#mdca07d29a1" y="200.094545"/>
      </g>
     </g>
    </g>
    <g id="xtick_4">
     <g id="line2d_7">
      <path clip-path="url(#pa734bf98ff)" d="M 305.590909 200.094545 
L 305.590909 51.84 
" style="fill:none;stroke:#b0b0b0;stroke-linecap:square;stroke-width:0.8;"/>
     </g>
     <g id="line2d_8">
      <g>
       <use style="stroke:#000000;stroke-width:0.8;" x="305.590909" xlink:href="#mdca07d29a1" y="200.094545"/>
      </g>
     </g>
    </g>
    <g id="xtick_5">
     <g id="line2d_9">
      <path clip-path="url(#pa734bf98ff)" d="M 369 200.094545 
L 369 51.84 
" style="fill:none;stroke:#b0b0b0;stroke-linecap:square;stroke-width:0.8;"/>
     </g>
     <g id="line2d_10">
      <g>
       <use style="stroke:#000000;stroke-width:0.8;" x="369" xlink:href="#mdca07d29a1" y="200.094545"/>
      </g>
     </g>
    </g>
    <g id="xtick_6">
     <g id="line2d_11">
      <path clip-path="url(#pa734bf98ff)" d="M 432.409091 200.094545 
L 432.409091 51.84 
" style="fill:none;stroke:#b0b0b0;stroke-linecap:square;stroke-width:0.8;"/>
     </g>
     <g id="line2d_12">
      <g>
       <use style="stroke:#000000;stroke-width:0.8;" x="432.409091" xlink:href="#mdca07d29a1" y="200.094545"/>
      </g>
     </g>
    </g>
    <g id="xtick_7">
     <g id="line2d_13">
      <path clip-path="url(#pa734bf98ff)" d="M 495.818182 200.094545 
L 495.818182 51.84 
" style="fill:none;stroke:#b0b0b0;stroke-linecap:square;stroke-width:0.8;"/>
     </g>
     <g id="line2d_14">
      <g>
       <use style="stroke:#000000;stroke-width:0.8;" x="495.818182" xlink:href="#mdca07d29a1" y="200.094545"/>
      </g>
     </g>
    </g>
    <g id="xtick_8">
     <g id="line2d_15">
      <path clip-path="url(#pa734bf98ff)" d="M 559.227273 200.094545 
L 559.227273 51.84 
" style="fill:none;stroke:#b0b0b0;stroke-linecap:square;stroke-width:0.8;"/>
     </g>
     <g id="line2d_16">
      <g>
       <use style="stroke:#000000;stroke-width:0.8;" x="559.227273" xlink:href="#mdca07d29a1" y="200.094545"/>
      </g>
     </g>
    </g>
    <g id="xtick_9">
     <g id="line2d_17">
      <path clip-path="url(#pa734bf98ff)" d="M 622.636364 200.094545 
L 622.636364 51.84 
" style="fill:none;stroke:#b0b0b0;stroke-linecap:square;stroke-width:0.8;"/>
     </g>
     <g id="line2d_18">
      <g>
       <use style="stroke:#000000;stroke-width:0.8;" x="622.636364" xlink:href="#mdca07d29a1" y="200.094545"/>
      </g>
     </g>
    </g>
    <g id="text_1">
     <!-- x -->
     <defs>
      <path d="M 54.890625 54.6875 
L 35.109375 28.078125 
L 55.90625 0 
L 45.3125 0 
L 29.390625 21.484375 
L 13.484375 0 
L 2.875 0 
L 24.125 28.609375 
L 4.6875 54.6875 
L 15.28125 54.6875 
L 29.78125 35.203125 
L 44.28125 54.6875 
z
" id="DejaVuSans-120"/>
     </defs>
     <g transform="translate(366.040625 211.692983)scale(0.1 -0.1)">
      <use xlink:href="#DejaVuSans-120"/>
     </g>
    </g>
   </g>
   <g id="matplotlib.axis_2">
    <g id="ytick_1">
     <g id="line2d_19">
      <path clip-path="url(#pa734bf98ff)" d="M 90 193.355705 
L 648 193.355705 
" style="fill:none;stroke:#b0b0b0;stroke-linecap:square;stroke-width:0.8;"/>
     </g>
     <g id="line2d_20">
      <defs>
       <path d="M 0 0 
L -3.5 0 
" id="m7f911f8cf5" style="stroke:#000000;stroke-width:0.8;"/>
      </defs>
      <g>
       <use style="stroke:#000000;stroke-width:0.8;" x="90" xlink:href="#m7f911f8cf5" y="193.355705"/>
      </g>
     </g>
     <g id="text_2">
      <!-- 0.00 -->
      <defs>
       <path d="M 31.78125 66.40625 
Q 24.171875 66.40625 20.328125 58.90625 
Q 16.5 51.421875 16.5 36.375 
Q 16.5 21.390625 20.328125 13.890625 
Q 24.171875 6.390625 31.78125 6.390625 
Q 39.453125 6.390625 43.28125 13.890625 
Q 47.125 21.390625 47.125 36.375 
Q 47.125 51.421875 43.28125 58.90625 
Q 39.453125 66.40625 31.78125 66.40625 
z
M 31.78125 74.21875 
Q 44.046875 74.21875 50.515625 64.515625 
Q 56.984375 54.828125 56.984375 36.375 
Q 56.984375 17.96875 50.515625 8.265625 
Q 44.046875 -1.421875 31.78125 -1.421875 
Q 19.53125 -1.421875 13.0625 8.265625 
Q 6.59375 17.96875 6.59375 36.375 
Q 6.59375 54.828125 13.0625 64.515625 
Q 19.53125 74.21875 31.78125 74.21875 
z
" id="DejaVuSans-48"/>
       <path d="M 10.6875 12.40625 
L 21 12.40625 
L 21 0 
L 10.6875 0 
z
" id="DejaVuSans-46"/>
      </defs>
      <g transform="translate(60.734375 197.154923)scale(0.1 -0.1)">
       <use xlink:href="#DejaVuSans-48"/>
       <use x="63.623047" xlink:href="#DejaVuSans-46"/>
       <use x="95.410156" xlink:href="#DejaVuSans-48"/>
       <use x="159.033203" xlink:href="#DejaVuSans-48"/>
      </g>
     </g>
    </g>
    <g id="ytick_2">
     <g id="line2d_21">
      <path clip-path="url(#pa734bf98ff)" d="M 90 159.544568 
L 648 159.544568 
" style="fill:none;stroke:#b0b0b0;stroke-linecap:square;stroke-width:0.8;"/>
     </g>
     <g id="line2d_22">
      <g>
       <use style="stroke:#000000;stroke-width:0.8;" x="90" xlink:href="#m7f911f8cf5" y="159.544568"/>
      </g>
     </g>
     <g id="text_3">
      <!-- 0.05 -->
      <defs>
       <path d="M 10.796875 72.90625 
L 49.515625 72.90625 
L 49.515625 64.59375 
L 19.828125 64.59375 
L 19.828125 46.734375 
Q 21.96875 47.46875 24.109375 47.828125 
Q 26.265625 48.1875 28.421875 48.1875 
Q 40.625 48.1875 47.75 41.5 
Q 54.890625 34.8125 54.890625 23.390625 
Q 54.890625 11.625 47.5625 5.09375 
Q 40.234375 -1.421875 26.90625 -1.421875 
Q 22.3125 -1.421875 17.546875 -0.640625 
Q 12.796875 0.140625 7.71875 1.703125 
L 7.71875 11.625 
Q 12.109375 9.234375 16.796875 8.0625 
Q 21.484375 6.890625 26.703125 6.890625 
Q 35.15625 6.890625 40.078125 11.328125 
Q 45.015625 15.765625 45.015625 23.390625 
Q 45.015625 31 40.078125 35.4375 
Q 35.15625 39.890625 26.703125 39.890625 
Q 22.75 39.890625 18.8125 39.015625 
Q 14.890625 38.140625 10.796875 36.28125 
z
" id="DejaVuSans-53"/>
      </defs>
      <g transform="translate(60.734375 163.343787)scale(0.1 -0.1)">
       <use xlink:href="#DejaVuSans-48"/>
       <use x="63.623047" xlink:href="#DejaVuSans-46"/>
       <use x="95.410156" xlink:href="#DejaVuSans-48"/>
       <use x="159.033203" xlink:href="#DejaVuSans-53"/>
      </g>
     </g>
    </g>
    <g id="ytick_3">
     <g id="line2d_23">
      <path clip-path="url(#pa734bf98ff)" d="M 90 125.733432 
L 648 125.733432 
" style="fill:none;stroke:#b0b0b0;stroke-linecap:square;stroke-width:0.8;"/>
     </g>
     <g id="line2d_24">
      <g>
       <use style="stroke:#000000;stroke-width:0.8;" x="90" xlink:href="#m7f911f8cf5" y="125.733432"/>
      </g>
     </g>
     <g id="text_4">
      <!-- 0.10 -->
      <defs>
       <path d="M 12.40625 8.296875 
L 28.515625 8.296875 
L 28.515625 63.921875 
L 10.984375 60.40625 
L 10.984375 69.390625 
L 28.421875 72.90625 
L 38.28125 72.90625 
L 38.28125 8.296875 
L 54.390625 8.296875 
L 54.390625 0 
L 12.40625 0 
z
" id="DejaVuSans-49"/>
      </defs>
      <g transform="translate(60.734375 129.532651)scale(0.1 -0.1)">
       <use xlink:href="#DejaVuSans-48"/>
       <use x="63.623047" xlink:href="#DejaVuSans-46"/>
       <use x="95.410156" xlink:href="#DejaVuSans-49"/>
       <use x="159.033203" xlink:href="#DejaVuSans-48"/>
      </g>
     </g>
    </g>
    <g id="ytick_4">
     <g id="line2d_25">
      <path clip-path="url(#pa734bf98ff)" d="M 90 91.922296 
L 648 91.922296 
" style="fill:none;stroke:#b0b0b0;stroke-linecap:square;stroke-width:0.8;"/>
     </g>
     <g id="line2d_26">
      <g>
       <use style="stroke:#000000;stroke-width:0.8;" x="90" xlink:href="#m7f911f8cf5" y="91.922296"/>
      </g>
     </g>
     <g id="text_5">
      <!-- 0.15 -->
      <g transform="translate(60.734375 95.721515)scale(0.1 -0.1)">
       <use xlink:href="#DejaVuSans-48"/>
       <use x="63.623047" xlink:href="#DejaVuSans-46"/>
       <use x="95.410156" xlink:href="#DejaVuSans-49"/>
       <use x="159.033203" xlink:href="#DejaVuSans-53"/>
      </g>
     </g>
    </g>
    <g id="ytick_5">
     <g id="line2d_27">
      <path clip-path="url(#pa734bf98ff)" d="M 90 58.11116 
L 648 58.11116 
" style="fill:none;stroke:#b0b0b0;stroke-linecap:square;stroke-width:0.8;"/>
     </g>
     <g id="line2d_28">
      <g>
       <use style="stroke:#000000;stroke-width:0.8;" x="90" xlink:href="#m7f911f8cf5" y="58.11116"/>
      </g>
     </g>
     <g id="text_6">
      <!-- 0.20 -->
      <defs>
       <path d="M 19.1875 8.296875 
L 53.609375 8.296875 
L 53.609375 0 
L 7.328125 0 
L 7.328125 8.296875 
Q 12.9375 14.109375 22.625 23.890625 
Q 32.328125 33.6875 34.8125 36.53125 
Q 39.546875 41.84375 41.421875 45.53125 
Q 43.3125 49.21875 43.3125 52.78125 
Q 43.3125 58.59375 39.234375 62.25 
Q 35.15625 65.921875 28.609375 65.921875 
Q 23.96875 65.921875 18.8125 64.3125 
Q 13.671875 62.703125 7.8125 59.421875 
L 7.8125 69.390625 
Q 13.765625 71.78125 18.9375 73 
Q 24.125 74.21875 28.421875 74.21875 
Q 39.75 74.21875 46.484375 68.546875 
Q 53.21875 62.890625 53.21875 53.421875 
Q 53.21875 48.921875 51.53125 44.890625 
Q 49.859375 40.875 45.40625 35.40625 
Q 44.1875 33.984375 37.640625 27.21875 
Q 31.109375 20.453125 19.1875 8.296875 
z
" id="DejaVuSans-50"/>
      </defs>
      <g transform="translate(60.734375 61.910379)scale(0.1 -0.1)">
       <use xlink:href="#DejaVuSans-48"/>
       <use x="63.623047" xlink:href="#DejaVuSans-46"/>
       <use x="95.410156" xlink:href="#DejaVuSans-50"/>
       <use x="159.033203" xlink:href="#DejaVuSans-48"/>
      </g>
     </g>
    </g>
    <g id="text_7">
     <!-- $P(x|C)$ -->
     <defs>
      <path d="M 16.890625 72.90625 
L 39.703125 72.90625 
Q 49.65625 72.90625 54.875 68.265625 
Q 60.109375 63.625 60.109375 54.6875 
Q 60.109375 42.671875 52.390625 35.984375 
Q 44.671875 29.296875 30.71875 29.296875 
L 18.3125 29.296875 
L 12.59375 0 
L 2.6875 0 
z
M 25.203125 64.796875 
L 19.921875 37.40625 
L 32.328125 37.40625 
Q 40.71875 37.40625 45.203125 41.703125 
Q 49.703125 46 49.703125 54 
Q 49.703125 59.125 46.65625 61.953125 
Q 43.609375 64.796875 38.09375 64.796875 
z
" id="DejaVuSans-Oblique-80"/>
      <path d="M 31 75.875 
Q 24.46875 64.65625 21.28125 53.65625 
Q 18.109375 42.671875 18.109375 31.390625 
Q 18.109375 20.125 21.3125 9.0625 
Q 24.515625 -2 31 -13.1875 
L 23.1875 -13.1875 
Q 15.875 -1.703125 12.234375 9.375 
Q 8.59375 20.453125 8.59375 31.390625 
Q 8.59375 42.28125 12.203125 53.3125 
Q 15.828125 64.359375 23.1875 75.875 
z
" id="DejaVuSans-40"/>
      <path d="M 60.015625 54.6875 
L 34.90625 27.875 
L 50.296875 0 
L 39.984375 0 
L 28.421875 21.6875 
L 8.296875 0 
L -2.59375 0 
L 24.3125 28.8125 
L 10.015625 54.6875 
L 20.3125 54.6875 
L 30.8125 34.90625 
L 49.125 54.6875 
z
" id="DejaVuSans-Oblique-120"/>
      <path d="M 21 76.421875 
L 21 -23.578125 
L 12.703125 -23.578125 
L 12.703125 76.421875 
z
" id="DejaVuSans-124"/>
      <path d="M 69.484375 67.28125 
L 67.484375 56.890625 
Q 62.796875 61.625 57.546875 63.921875 
Q 52.296875 66.21875 46.1875 66.21875 
Q 37.84375 66.21875 31.515625 62.203125 
Q 25.203125 58.203125 20.609375 50 
Q 17.671875 44.734375 16.125 38.84375 
Q 14.59375 32.953125 14.59375 27 
Q 14.59375 17.046875 19.75 11.8125 
Q 24.90625 6.59375 34.71875 6.59375 
Q 41.5 6.59375 47.75 8.765625 
Q 54 10.9375 59.90625 15.28125 
L 57.625 3.609375 
Q 51.8125 1.125 45.875 -0.140625 
Q 39.9375 -1.421875 33.984375 -1.421875 
Q 19.96875 -1.421875 12.078125 6.1875 
Q 4.203125 13.8125 4.203125 27.390625 
Q 4.203125 36.078125 7.203125 44.46875 
Q 10.203125 52.875 15.828125 59.8125 
Q 21.78125 67.1875 29.421875 70.703125 
Q 37.0625 74.21875 47.21875 74.21875 
Q 53.46875 74.21875 59.0625 72.484375 
Q 64.65625 70.75 69.484375 67.28125 
z
" id="DejaVuSans-Oblique-67"/>
      <path d="M 8.015625 75.875 
L 15.828125 75.875 
Q 23.140625 64.359375 26.78125 53.3125 
Q 30.421875 42.28125 30.421875 31.390625 
Q 30.421875 20.453125 26.78125 9.375 
Q 23.140625 -1.703125 15.828125 -13.1875 
L 8.015625 -13.1875 
Q 14.5 -2 17.703125 9.0625 
Q 20.90625 20.125 20.90625 31.390625 
Q 20.90625 42.671875 17.703125 53.65625 
Q 14.5 64.65625 8.015625 75.875 
z
" id="DejaVuSans-41"/>
     </defs>
     <g transform="translate(54.334375 141.067273)rotate(-90)scale(0.1 -0.1)">
      <use transform="translate(0 0.578125)" xlink:href="#DejaVuSans-Oblique-80"/>
      <use transform="translate(60.302734 0.578125)" xlink:href="#DejaVuSans-40"/>
      <use transform="translate(99.316406 0.578125)" xlink:href="#DejaVuSans-Oblique-120"/>
      <use transform="translate(158.496094 0.578125)" xlink:href="#DejaVuSans-124"/>
      <use transform="translate(192.1875 0.578125)" xlink:href="#DejaVuSans-Oblique-67"/>
      <use transform="translate(262.011719 0.578125)" xlink:href="#DejaVuSans-41"/>
     </g>
    </g>
   </g>
   <g id="line2d_29">
    <path clip-path="url(#pa734bf98ff)" d="M 115.363636 193.310455 
L 120.487603 193.288272 
L 125.61157 193.256233 
L 130.735537 193.210463 
L 135.859504 193.145784 
L 140.983471 193.055382 
L 146.107438 192.930411 
L 151.231405 192.75955 
L 156.355372 192.528528 
L 161.479339 192.219632 
L 166.603306 191.811222 
L 171.727273 191.277307 
L 176.85124 190.587213 
L 181.975207 189.70542 
L 187.099174 188.591624 
L 192.22314 187.201098 
L 197.347107 185.485421 
L 202.471074 183.39364 
L 207.595041 180.873906 
L 212.719008 177.8756 
L 217.842975 174.351946 
L 222.966942 170.263044 
L 228.090909 165.579218 
L 233.214876 160.284536 
L 238.338843 154.380299 
L 243.46281 147.888253 
L 248.586777 140.853267 
L 253.710744 133.345212 
L 258.834711 125.459766 
L 263.958678 117.317952 
L 269.082645 109.064235 
L 274.206612 100.863133 
L 279.330579 92.894366 
L 284.454545 85.346705 
L 289.578512 78.410779 
L 294.702479 72.271209 
L 299.826446 67.098507 
L 304.950413 63.041238 
L 310.07438 60.218943 
L 315.198347 58.716286 
L 320.322314 58.578843 
L 325.446281 59.810798 
L 330.570248 62.374738 
L 335.694215 66.193534 
L 340.818182 71.154202 
L 345.942149 77.113446 
L 351.066116 83.904535 
L 356.190083 91.345023 
L 361.31405 99.244839 
L 366.438017 107.414238 
L 371.561983 115.671158 
L 376.68595 123.847611 
L 381.809917 131.794799 
L 386.933884 139.386813 
L 392.057851 146.522824 
L 397.181818 153.127827 
L 402.305785 159.152071 
L 407.429752 164.569378 
L 412.553719 169.374603 
L 417.677686 173.580505 
L 422.801653 177.214293 
L 427.92562 180.3141 
L 433.049587 182.925582 
L 438.173554 185.098812 
L 443.297521 186.885578 
L 448.421488 188.33716 
L 453.545455 189.502592 
L 458.669421 190.427412 
L 463.793388 191.152849 
L 468.917355 191.715392 
L 474.041322 192.146678 
L 479.165289 192.473612 
L 484.289256 192.718672 
L 489.413223 192.900321 
L 494.53719 193.033477 
L 499.661157 193.130013 
L 504.785124 193.199232 
L 509.909091 193.248323 
L 515.033058 193.28276 
L 520.157025 193.306657 
L 525.280992 193.323059 
L 530.404959 193.334197 
L 535.528926 193.341679 
L 540.652893 193.346651 
L 545.77686 193.34992 
L 550.900826 193.352046 
L 556.024793 193.353414 
L 561.14876 193.354285 
L 566.272727 193.354834 
L 571.396694 193.355176 
L 576.520661 193.355387 
L 581.644628 193.355515 
L 586.768595 193.355593 
L 591.892562 193.35564 
L 597.016529 193.355667 
L 602.140496 193.355683 
L 607.264463 193.355692 
L 612.38843 193.355698 
L 617.512397 193.355701 
L 622.636364 193.355702 
" style="fill:none;stroke:#ff0000;stroke-linecap:square;stroke-width:1.5;"/>
   </g>
   <g id="line2d_30">
    <path clip-path="url(#pa734bf98ff)" d="M 115.363636 193.355702 
L 120.487603 193.355701 
L 125.61157 193.355698 
L 130.735537 193.355692 
L 135.859504 193.355683 
L 140.983471 193.355667 
L 146.107438 193.35564 
L 151.231405 193.355593 
L 156.355372 193.355515 
L 161.479339 193.355387 
L 166.603306 193.355176 
L 171.727273 193.354834 
L 176.85124 193.354285 
L 181.975207 193.353414 
L 187.099174 193.352046 
L 192.22314 193.34992 
L 197.347107 193.346651 
L 202.471074 193.341679 
L 207.595041 193.334197 
L 212.719008 193.323059 
L 217.842975 193.306657 
L 222.966942 193.28276 
L 228.090909 193.248323 
L 233.214876 193.199232 
L 238.338843 193.130013 
L 243.46281 193.033477 
L 248.586777 192.900321 
L 253.710744 192.718672 
L 258.834711 192.473612 
L 263.958678 192.146678 
L 269.082645 191.715392 
L 274.206612 191.152849 
L 279.330579 190.427412 
L 284.454545 189.502592 
L 289.578512 188.33716 
L 294.702479 186.885578 
L 299.826446 185.098812 
L 304.950413 182.925582 
L 310.07438 180.3141 
L 315.198347 177.214293 
L 320.322314 173.580505 
L 325.446281 169.374603 
L 330.570248 164.569378 
L 335.694215 159.152071 
L 340.818182 153.127827 
L 345.942149 146.522824 
L 351.066116 139.386813 
L 356.190083 131.794799 
L 361.31405 123.847611 
L 366.438017 115.671158 
L 371.561983 107.414238 
L 376.68595 99.244839 
L 381.809917 91.345023 
L 386.933884 83.904535 
L 392.057851 77.113446 
L 397.181818 71.154202 
L 402.305785 66.193534 
L 407.429752 62.374738 
L 412.553719 59.810798 
L 417.677686 58.578843 
L 422.801653 58.716286 
L 427.92562 60.218943 
L 433.049587 63.041238 
L 438.173554 67.098507 
L 443.297521 72.271209 
L 448.421488 78.410779 
L 453.545455 85.346705 
L 458.669421 92.894366 
L 463.793388 100.863133 
L 468.917355 109.064235 
L 474.041322 117.317952 
L 479.165289 125.459766 
L 484.289256 133.345212 
L 489.413223 140.853267 
L 494.53719 147.888253 
L 499.661157 154.380299 
L 504.785124 160.284536 
L 509.909091 165.579218 
L 515.033058 170.263044 
L 520.157025 174.351946 
L 525.280992 177.8756 
L 530.404959 180.873906 
L 535.528926 183.39364 
L 540.652893 185.485421 
L 545.77686 187.201098 
L 550.900826 188.591624 
L 556.024793 189.70542 
L 561.14876 190.587213 
L 566.272727 191.277307 
L 571.396694 191.811222 
L 576.520661 192.219632 
L 581.644628 192.528528 
L 586.768595 192.75955 
L 591.892562 192.930411 
L 597.016529 193.055382 
L 602.140496 193.145784 
L 607.264463 193.210463 
L 612.38843 193.256233 
L 617.512397 193.288272 
L 622.636364 193.310455 
" style="fill:none;stroke:#0000ff;stroke-dasharray:5.55,2.4;stroke-dashoffset:0;stroke-width:1.5;"/>
   </g>
   <g id="patch_3">
    <path d="M 90 200.094545 
L 90 51.84 
" style="fill:none;stroke:#000000;stroke-linecap:square;stroke-linejoin:miter;stroke-width:0.8;"/>
   </g>
   <g id="patch_4">
    <path d="M 648 200.094545 
L 648 51.84 
" style="fill:none;stroke:#000000;stroke-linecap:square;stroke-linejoin:miter;stroke-width:0.8;"/>
   </g>
   <g id="patch_5">
    <path d="M 90 200.094545 
L 648 200.094545 
" style="fill:none;stroke:#000000;stroke-linecap:square;stroke-linejoin:miter;stroke-width:0.8;"/>
   </g>
   <g id="patch_6">
    <path d="M 90 51.84 
L 648 51.84 
" style="fill:none;stroke:#000000;stroke-linecap:square;stroke-linejoin:miter;stroke-width:0.8;"/>
   </g>
   <g id="text_8">
    <!-- Vraisemblances -->
    <defs>
     <path d="M 28.609375 0 
L 0.78125 72.90625 
L 11.078125 72.90625 
L 34.1875 11.53125 
L 57.328125 72.90625 
L 67.578125 72.90625 
L 39.796875 0 
z
" id="DejaVuSans-86"/>
     <path d="M 41.109375 46.296875 
Q 39.59375 47.171875 37.8125 47.578125 
Q 36.03125 48 33.890625 48 
Q 26.265625 48 22.1875 43.046875 
Q 18.109375 38.09375 18.109375 28.8125 
L 18.109375 0 
L 9.078125 0 
L 9.078125 54.6875 
L 18.109375 54.6875 
L 18.109375 46.1875 
Q 20.953125 51.171875 25.484375 53.578125 
Q 30.03125 56 36.53125 56 
Q 37.453125 56 38.578125 55.875 
Q 39.703125 55.765625 41.0625 55.515625 
z
" id="DejaVuSans-114"/>
     <path d="M 34.28125 27.484375 
Q 23.390625 27.484375 19.1875 25 
Q 14.984375 22.515625 14.984375 16.5 
Q 14.984375 11.71875 18.140625 8.90625 
Q 21.296875 6.109375 26.703125 6.109375 
Q 34.1875 6.109375 38.703125 11.40625 
Q 43.21875 16.703125 43.21875 25.484375 
L 43.21875 27.484375 
z
M 52.203125 31.203125 
L 52.203125 0 
L 43.21875 0 
L 43.21875 8.296875 
Q 40.140625 3.328125 35.546875 0.953125 
Q 30.953125 -1.421875 24.3125 -1.421875 
Q 15.921875 -1.421875 10.953125 3.296875 
Q 6 8.015625 6 15.921875 
Q 6 25.140625 12.171875 29.828125 
Q 18.359375 34.515625 30.609375 34.515625 
L 43.21875 34.515625 
L 43.21875 35.40625 
Q 43.21875 41.609375 39.140625 45 
Q 35.0625 48.390625 27.6875 48.390625 
Q 23 48.390625 18.546875 47.265625 
Q 14.109375 46.140625 10.015625 43.890625 
L 10.015625 52.203125 
Q 14.9375 54.109375 19.578125 55.046875 
Q 24.21875 56 28.609375 56 
Q 40.484375 56 46.34375 49.84375 
Q 52.203125 43.703125 52.203125 31.203125 
z
" id="DejaVuSans-97"/>
     <path d="M 9.421875 54.6875 
L 18.40625 54.6875 
L 18.40625 0 
L 9.421875 0 
z
M 9.421875 75.984375 
L 18.40625 75.984375 
L 18.40625 64.59375 
L 9.421875 64.59375 
z
" id="DejaVuSans-105"/>
     <path d="M 44.28125 53.078125 
L 44.28125 44.578125 
Q 40.484375 46.53125 36.375 47.5 
Q 32.28125 48.484375 27.875 48.484375 
Q 21.1875 48.484375 17.84375 46.4375 
Q 14.5 44.390625 14.5 40.28125 
Q 14.5 37.15625 16.890625 35.375 
Q 19.28125 33.59375 26.515625 31.984375 
L 29.59375 31.296875 
Q 39.15625 29.25 43.1875 25.515625 
Q 47.21875 21.78125 47.21875 15.09375 
Q 47.21875 7.46875 41.1875 3.015625 
Q 35.15625 -1.421875 24.609375 -1.421875 
Q 20.21875 -1.421875 15.453125 -0.5625 
Q 10.6875 0.296875 5.421875 2 
L 5.421875 11.28125 
Q 10.40625 8.6875 15.234375 7.390625 
Q 20.0625 6.109375 24.8125 6.109375 
Q 31.15625 6.109375 34.5625 8.28125 
Q 37.984375 10.453125 37.984375 14.40625 
Q 37.984375 18.0625 35.515625 20.015625 
Q 33.0625 21.96875 24.703125 23.78125 
L 21.578125 24.515625 
Q 13.234375 26.265625 9.515625 29.90625 
Q 5.8125 33.546875 5.8125 39.890625 
Q 5.8125 47.609375 11.28125 51.796875 
Q 16.75 56 26.8125 56 
Q 31.78125 56 36.171875 55.265625 
Q 40.578125 54.546875 44.28125 53.078125 
z
" id="DejaVuSans-115"/>
     <path d="M 56.203125 29.59375 
L 56.203125 25.203125 
L 14.890625 25.203125 
Q 15.484375 15.921875 20.484375 11.0625 
Q 25.484375 6.203125 34.421875 6.203125 
Q 39.59375 6.203125 44.453125 7.46875 
Q 49.3125 8.734375 54.109375 11.28125 
L 54.109375 2.78125 
Q 49.265625 0.734375 44.1875 -0.34375 
Q 39.109375 -1.421875 33.890625 -1.421875 
Q 20.796875 -1.421875 13.15625 6.1875 
Q 5.515625 13.8125 5.515625 26.8125 
Q 5.515625 40.234375 12.765625 48.109375 
Q 20.015625 56 32.328125 56 
Q 43.359375 56 49.78125 48.890625 
Q 56.203125 41.796875 56.203125 29.59375 
z
M 47.21875 32.234375 
Q 47.125 39.59375 43.09375 43.984375 
Q 39.0625 48.390625 32.421875 48.390625 
Q 24.90625 48.390625 20.390625 44.140625 
Q 15.875 39.890625 15.1875 32.171875 
z
" id="DejaVuSans-101"/>
     <path d="M 52 44.1875 
Q 55.375 50.25 60.0625 53.125 
Q 64.75 56 71.09375 56 
Q 79.640625 56 84.28125 50.015625 
Q 88.921875 44.046875 88.921875 33.015625 
L 88.921875 0 
L 79.890625 0 
L 79.890625 32.71875 
Q 79.890625 40.578125 77.09375 44.375 
Q 74.3125 48.1875 68.609375 48.1875 
Q 61.625 48.1875 57.5625 43.546875 
Q 53.515625 38.921875 53.515625 30.90625 
L 53.515625 0 
L 44.484375 0 
L 44.484375 32.71875 
Q 44.484375 40.625 41.703125 44.40625 
Q 38.921875 48.1875 33.109375 48.1875 
Q 26.21875 48.1875 22.15625 43.53125 
Q 18.109375 38.875 18.109375 30.90625 
L 18.109375 0 
L 9.078125 0 
L 9.078125 54.6875 
L 18.109375 54.6875 
L 18.109375 46.1875 
Q 21.1875 51.21875 25.484375 53.609375 
Q 29.78125 56 35.6875 56 
Q 41.65625 56 45.828125 52.96875 
Q 50 49.953125 52 44.1875 
z
" id="DejaVuSans-109"/>
     <path d="M 48.6875 27.296875 
Q 48.6875 37.203125 44.609375 42.84375 
Q 40.53125 48.484375 33.40625 48.484375 
Q 26.265625 48.484375 22.1875 42.84375 
Q 18.109375 37.203125 18.109375 27.296875 
Q 18.109375 17.390625 22.1875 11.75 
Q 26.265625 6.109375 33.40625 6.109375 
Q 40.53125 6.109375 44.609375 11.75 
Q 48.6875 17.390625 48.6875 27.296875 
z
M 18.109375 46.390625 
Q 20.953125 51.265625 25.265625 53.625 
Q 29.59375 56 35.59375 56 
Q 45.5625 56 51.78125 48.09375 
Q 58.015625 40.1875 58.015625 27.296875 
Q 58.015625 14.40625 51.78125 6.484375 
Q 45.5625 -1.421875 35.59375 -1.421875 
Q 29.59375 -1.421875 25.265625 0.953125 
Q 20.953125 3.328125 18.109375 8.203125 
L 18.109375 0 
L 9.078125 0 
L 9.078125 75.984375 
L 18.109375 75.984375 
z
" id="DejaVuSans-98"/>
     <path d="M 9.421875 75.984375 
L 18.40625 75.984375 
L 18.40625 0 
L 9.421875 0 
z
" id="DejaVuSans-108"/>
     <path d="M 54.890625 33.015625 
L 54.890625 0 
L 45.90625 0 
L 45.90625 32.71875 
Q 45.90625 40.484375 42.875 44.328125 
Q 39.84375 48.1875 33.796875 48.1875 
Q 26.515625 48.1875 22.3125 43.546875 
Q 18.109375 38.921875 18.109375 30.90625 
L 18.109375 0 
L 9.078125 0 
L 9.078125 54.6875 
L 18.109375 54.6875 
L 18.109375 46.1875 
Q 21.34375 51.125 25.703125 53.5625 
Q 30.078125 56 35.796875 56 
Q 45.21875 56 50.046875 50.171875 
Q 54.890625 44.34375 54.890625 33.015625 
z
" id="DejaVuSans-110"/>
     <path d="M 48.78125 52.59375 
L 48.78125 44.1875 
Q 44.96875 46.296875 41.140625 47.34375 
Q 37.3125 48.390625 33.40625 48.390625 
Q 24.65625 48.390625 19.8125 42.84375 
Q 14.984375 37.3125 14.984375 27.296875 
Q 14.984375 17.28125 19.8125 11.734375 
Q 24.65625 6.203125 33.40625 6.203125 
Q 37.3125 6.203125 41.140625 7.25 
Q 44.96875 8.296875 48.78125 10.40625 
L 48.78125 2.09375 
Q 45.015625 0.34375 40.984375 -0.53125 
Q 36.96875 -1.421875 32.421875 -1.421875 
Q 20.0625 -1.421875 12.78125 6.34375 
Q 5.515625 14.109375 5.515625 27.296875 
Q 5.515625 40.671875 12.859375 48.328125 
Q 20.21875 56 33.015625 56 
Q 37.15625 56 41.109375 55.140625 
Q 45.0625 54.296875 48.78125 52.59375 
z
" id="DejaVuSans-99"/>
    </defs>
    <g transform="translate(329.292969 45.84)scale(0.1 -0.1)">
     <use xlink:href="#DejaVuSans-86"/>
     <use x="68.408203" xlink:href="#DejaVuSans-114"/>
     <use x="109.521484" xlink:href="#DejaVuSans-97"/>
     <use x="170.800781" xlink:href="#DejaVuSans-105"/>
     <use x="198.583984" xlink:href="#DejaVuSans-115"/>
     <use x="250.683594" xlink:href="#DejaVuSans-101"/>
     <use x="312.207031" xlink:href="#DejaVuSans-109"/>
     <use x="409.619141" xlink:href="#DejaVuSans-98"/>
     <use x="473.095703" xlink:href="#DejaVuSans-108"/>
     <use x="500.878906" xlink:href="#DejaVuSans-97"/>
     <use x="562.158203" xlink:href="#DejaVuSans-110"/>
     <use x="625.537109" xlink:href="#DejaVuSans-99"/>
     <use x="680.517578" xlink:href="#DejaVuSans-101"/>
     <use x="742.041016" xlink:href="#DejaVuSans-115"/>
    </g>
   </g>
   <g id="legend_1">
    <g id="patch_7">
     <path d="M 476.7 89.24 
L 641 89.24 
Q 643 89.24 643 87.24 
L 643 58.84 
Q 643 56.84 641 56.84 
L 476.7 56.84 
Q 474.7 56.84 474.7 58.84 
L 474.7 87.24 
Q 474.7 89.24 476.7 89.24 
z
" style="fill:#ffffff;opacity:0.8;stroke:#cccccc;stroke-linejoin:miter;"/>
    </g>
    <g id="line2d_31">
     <path d="M 478.7 64.94 
L 498.7 64.94 
" style="fill:none;stroke:#ff0000;stroke-linecap:square;stroke-width:1.5;"/>
    </g>
    <g id="line2d_32"/>
    <g id="text_9">
     <!-- $\mu$ = -2  $\sigma$ = 2.0  $P(C)$ = 0.5 -->
     <defs>
      <path d="M -1.3125 -20.796875 
L 13.375 54.6875 
L 22.40625 54.6875 
L 15.765625 20.65625 
Q 15.578125 19.625 15.421875 18.359375 
Q 15.28125 17.09375 15.28125 15.828125 
Q 15.28125 11.28125 18.140625 8.828125 
Q 21 6.390625 26.3125 6.390625 
Q 33.546875 6.390625 37.984375 10.484375 
Q 42.4375 14.59375 44 22.796875 
L 50.203125 54.6875 
L 59.1875 54.6875 
L 51.03125 12.640625 
Q 50.828125 11.71875 50.75 11.03125 
Q 50.6875 10.359375 50.6875 9.8125 
Q 50.6875 8.296875 51.296875 7.59375 
Q 51.90625 6.890625 53.21875 6.890625 
Q 53.71875 6.890625 54.5625 7.125 
Q 55.421875 7.375 56.984375 8.015625 
L 55.609375 0.78125 
Q 53.46875 -0.296875 51.515625 -0.859375 
Q 49.5625 -1.421875 47.703125 -1.421875 
Q 44.484375 -1.421875 42.65625 0.625 
Q 40.828125 2.6875 40.828125 6.296875 
Q 38.09375 2.390625 34.296875 0.484375 
Q 30.515625 -1.421875 25.390625 -1.421875 
Q 20.84375 -1.421875 17.453125 0.671875 
Q 14.0625 2.78125 12.984375 6.203125 
L 7.71875 -20.796875 
z
" id="DejaVuSans-Oblique-956"/>
      <path id="DejaVuSans-32"/>
      <path d="M 10.59375 45.40625 
L 73.1875 45.40625 
L 73.1875 37.203125 
L 10.59375 37.203125 
z
M 10.59375 25.484375 
L 73.1875 25.484375 
L 73.1875 17.1875 
L 10.59375 17.1875 
z
" id="DejaVuSans-61"/>
      <path d="M 4.890625 31.390625 
L 31.203125 31.390625 
L 31.203125 23.390625 
L 4.890625 23.390625 
z
" id="DejaVuSans-45"/>
      <path d="M 34.671875 47.5625 
Q 27.25 47.5625 22.21875 42.1875 
Q 16.890625 36.578125 15.140625 27.296875 
Q 13.1875 17.484375 16.3125 11.8125 
Q 19.390625 6.203125 26.65625 6.203125 
Q 33.84375 6.203125 39.109375 11.859375 
Q 44.4375 17.53125 46.34375 27.296875 
Q 48.046875 36.234375 45.015625 42.1875 
Q 42.1875 47.5625 34.671875 47.5625 
z
M 36.078125 54.734375 
L 65.921875 54.6875 
L 64.15625 45.703125 
L 54.109375 45.703125 
Q 57.90625 38.09375 55.859375 27.296875 
Q 53.21875 13.875 45.0625 6.25 
Q 36.859375 -1.421875 25.140625 -1.421875 
Q 13.375 -1.421875 8.203125 6.25 
Q 3.03125 13.875 5.671875 27.296875 
Q 8.25 40.765625 16.40625 48.390625 
Q 23.1875 54.734375 36.078125 54.734375 
z
" id="DejaVuSans-Oblique-963"/>
     </defs>
     <g transform="translate(506.7 68.44)scale(0.1 -0.1)">
      <use transform="translate(0 0.125)" xlink:href="#DejaVuSans-Oblique-956"/>
      <use transform="translate(63.623047 0.125)" xlink:href="#DejaVuSans-32"/>
      <use transform="translate(95.410156 0.125)" xlink:href="#DejaVuSans-61"/>
      <use transform="translate(179.199219 0.125)" xlink:href="#DejaVuSans-32"/>
      <use transform="translate(210.986328 0.125)" xlink:href="#DejaVuSans-45"/>
      <use transform="translate(247.070312 0.125)" xlink:href="#DejaVuSans-50"/>
      <use transform="translate(310.693359 0.125)" xlink:href="#DejaVuSans-32"/>
      <use transform="translate(342.480469 0.125)" xlink:href="#DejaVuSans-32"/>
      <use transform="translate(374.267578 0.125)" xlink:href="#DejaVuSans-Oblique-963"/>
      <use transform="translate(437.646484 0.125)" xlink:href="#DejaVuSans-32"/>
      <use transform="translate(469.433594 0.125)" xlink:href="#DejaVuSans-61"/>
      <use transform="translate(553.222656 0.125)" xlink:href="#DejaVuSans-32"/>
      <use transform="translate(585.009766 0.125)" xlink:href="#DejaVuSans-50"/>
      <use transform="translate(648.632812 0.125)" xlink:href="#DejaVuSans-46"/>
      <use transform="translate(680.419922 0.125)" xlink:href="#DejaVuSans-48"/>
      <use transform="translate(744.042969 0.125)" xlink:href="#DejaVuSans-32"/>
      <use transform="translate(775.830078 0.125)" xlink:href="#DejaVuSans-32"/>
      <use transform="translate(807.617188 0.125)" xlink:href="#DejaVuSans-Oblique-80"/>
      <use transform="translate(867.919922 0.125)" xlink:href="#DejaVuSans-40"/>
      <use transform="translate(906.933594 0.125)" xlink:href="#DejaVuSans-Oblique-67"/>
      <use transform="translate(976.757812 0.125)" xlink:href="#DejaVuSans-41"/>
      <use transform="translate(1015.771484 0.125)" xlink:href="#DejaVuSans-32"/>
      <use transform="translate(1047.558594 0.125)" xlink:href="#DejaVuSans-61"/>
      <use transform="translate(1131.347656 0.125)" xlink:href="#DejaVuSans-32"/>
      <use transform="translate(1163.134766 0.125)" xlink:href="#DejaVuSans-48"/>
      <use transform="translate(1226.757812 0.125)" xlink:href="#DejaVuSans-46"/>
      <use transform="translate(1258.544922 0.125)" xlink:href="#DejaVuSans-53"/>
     </g>
    </g>
    <g id="line2d_33">
     <path d="M 478.7 79.64 
L 498.7 79.64 
" style="fill:none;stroke:#0000ff;stroke-dasharray:5.55,2.4;stroke-dashoffset:0;stroke-width:1.5;"/>
    </g>
    <g id="line2d_34"/>
    <g id="text_10">
     <!-- $\mu$ = 2  $\sigma$ = 2.0  $P(C)$ = 0.5 -->
     <g transform="translate(506.7 83.14)scale(0.1 -0.1)">
      <use transform="translate(0 0.125)" xlink:href="#DejaVuSans-Oblique-956"/>
      <use transform="translate(63.623047 0.125)" xlink:href="#DejaVuSans-32"/>
      <use transform="translate(95.410156 0.125)" xlink:href="#DejaVuSans-61"/>
      <use transform="translate(179.199219 0.125)" xlink:href="#DejaVuSans-32"/>
      <use transform="translate(210.986328 0.125)" xlink:href="#DejaVuSans-50"/>
      <use transform="translate(274.609375 0.125)" xlink:href="#DejaVuSans-32"/>
      <use transform="translate(306.396484 0.125)" xlink:href="#DejaVuSans-32"/>
      <use transform="translate(338.183594 0.125)" xlink:href="#DejaVuSans-Oblique-963"/>
      <use transform="translate(401.5625 0.125)" xlink:href="#DejaVuSans-32"/>
      <use transform="translate(433.349609 0.125)" xlink:href="#DejaVuSans-61"/>
      <use transform="translate(517.138672 0.125)" xlink:href="#DejaVuSans-32"/>
      <use transform="translate(548.925781 0.125)" xlink:href="#DejaVuSans-50"/>
      <use transform="translate(612.548828 0.125)" xlink:href="#DejaVuSans-46"/>
      <use transform="translate(644.335938 0.125)" xlink:href="#DejaVuSans-48"/>
      <use transform="translate(707.958984 0.125)" xlink:href="#DejaVuSans-32"/>
      <use transform="translate(739.746094 0.125)" xlink:href="#DejaVuSans-32"/>
      <use transform="translate(771.533203 0.125)" xlink:href="#DejaVuSans-Oblique-80"/>
      <use transform="translate(831.835938 0.125)" xlink:href="#DejaVuSans-40"/>
      <use transform="translate(870.849609 0.125)" xlink:href="#DejaVuSans-Oblique-67"/>
      <use transform="translate(940.673828 0.125)" xlink:href="#DejaVuSans-41"/>
      <use transform="translate(979.6875 0.125)" xlink:href="#DejaVuSans-32"/>
      <use transform="translate(1011.474609 0.125)" xlink:href="#DejaVuSans-61"/>
      <use transform="translate(1095.263672 0.125)" xlink:href="#DejaVuSans-32"/>
      <use transform="translate(1127.050781 0.125)" xlink:href="#DejaVuSans-48"/>
      <use transform="translate(1190.673828 0.125)" xlink:href="#DejaVuSans-46"/>
      <use transform="translate(1222.460938 0.125)" xlink:href="#DejaVuSans-53"/>
     </g>
    </g>
   </g>
  </g>
  <g id="axes_2">
   <g id="patch_8">
    <path d="M 90 378 
L 648 378 
L 648 229.745455 
L 90 229.745455 
z
" style="fill:#ffffff;"/>
   </g>
   <g id="matplotlib.axis_3">
    <g id="xtick_10">
     <g id="line2d_35">
      <path clip-path="url(#p6f4ae26119)" d="M 115.363636 378 
L 115.363636 229.745455 
" style="fill:none;stroke:#b0b0b0;stroke-linecap:square;stroke-width:0.8;"/>
     </g>
     <g id="line2d_36">
      <g>
       <use style="stroke:#000000;stroke-width:0.8;" x="115.363636" xlink:href="#mdca07d29a1" y="378"/>
      </g>
     </g>
     <g id="text_11">
      <!-- −10.0 -->
      <defs>
       <path d="M 10.59375 35.5 
L 73.1875 35.5 
L 73.1875 27.203125 
L 10.59375 27.203125 
z
" id="DejaVuSans-8722"/>
      </defs>
      <g transform="translate(100.04098 392.598437)scale(0.1 -0.1)">
       <use xlink:href="#DejaVuSans-8722"/>
       <use x="83.789062" xlink:href="#DejaVuSans-49"/>
       <use x="147.412109" xlink:href="#DejaVuSans-48"/>
       <use x="211.035156" xlink:href="#DejaVuSans-46"/>
       <use x="242.822266" xlink:href="#DejaVuSans-48"/>
      </g>
     </g>
    </g>
    <g id="xtick_11">
     <g id="line2d_37">
      <path clip-path="url(#p6f4ae26119)" d="M 178.772727 378 
L 178.772727 229.745455 
" style="fill:none;stroke:#b0b0b0;stroke-linecap:square;stroke-width:0.8;"/>
     </g>
     <g id="line2d_38">
      <g>
       <use style="stroke:#000000;stroke-width:0.8;" x="178.772727" xlink:href="#mdca07d29a1" y="378"/>
      </g>
     </g>
     <g id="text_12">
      <!-- −7.5 -->
      <defs>
       <path d="M 8.203125 72.90625 
L 55.078125 72.90625 
L 55.078125 68.703125 
L 28.609375 0 
L 18.3125 0 
L 43.21875 64.59375 
L 8.203125 64.59375 
z
" id="DejaVuSans-55"/>
      </defs>
      <g transform="translate(166.631321 392.598437)scale(0.1 -0.1)">
       <use xlink:href="#DejaVuSans-8722"/>
       <use x="83.789062" xlink:href="#DejaVuSans-55"/>
       <use x="147.412109" xlink:href="#DejaVuSans-46"/>
       <use x="179.199219" xlink:href="#DejaVuSans-53"/>
      </g>
     </g>
    </g>
    <g id="xtick_12">
     <g id="line2d_39">
      <path clip-path="url(#p6f4ae26119)" d="M 242.181818 378 
L 242.181818 229.745455 
" style="fill:none;stroke:#b0b0b0;stroke-linecap:square;stroke-width:0.8;"/>
     </g>
     <g id="line2d_40">
      <g>
       <use style="stroke:#000000;stroke-width:0.8;" x="242.181818" xlink:href="#mdca07d29a1" y="378"/>
      </g>
     </g>
     <g id="text_13">
      <!-- −5.0 -->
      <g transform="translate(230.040412 392.598437)scale(0.1 -0.1)">
       <use xlink:href="#DejaVuSans-8722"/>
       <use x="83.789062" xlink:href="#DejaVuSans-53"/>
       <use x="147.412109" xlink:href="#DejaVuSans-46"/>
       <use x="179.199219" xlink:href="#DejaVuSans-48"/>
      </g>
     </g>
    </g>
    <g id="xtick_13">
     <g id="line2d_41">
      <path clip-path="url(#p6f4ae26119)" d="M 305.590909 378 
L 305.590909 229.745455 
" style="fill:none;stroke:#b0b0b0;stroke-linecap:square;stroke-width:0.8;"/>
     </g>
     <g id="line2d_42">
      <g>
       <use style="stroke:#000000;stroke-width:0.8;" x="305.590909" xlink:href="#mdca07d29a1" y="378"/>
      </g>
     </g>
     <g id="text_14">
      <!-- −2.5 -->
      <g transform="translate(293.449503 392.598437)scale(0.1 -0.1)">
       <use xlink:href="#DejaVuSans-8722"/>
       <use x="83.789062" xlink:href="#DejaVuSans-50"/>
       <use x="147.412109" xlink:href="#DejaVuSans-46"/>
       <use x="179.199219" xlink:href="#DejaVuSans-53"/>
      </g>
     </g>
    </g>
    <g id="xtick_14">
     <g id="line2d_43">
      <path clip-path="url(#p6f4ae26119)" d="M 369 378 
L 369 229.745455 
" style="fill:none;stroke:#b0b0b0;stroke-linecap:square;stroke-width:0.8;"/>
     </g>
     <g id="line2d_44">
      <g>
       <use style="stroke:#000000;stroke-width:0.8;" x="369" xlink:href="#mdca07d29a1" y="378"/>
      </g>
     </g>
     <g id="text_15">
      <!-- 0.0 -->
      <g transform="translate(361.048437 392.598437)scale(0.1 -0.1)">
       <use xlink:href="#DejaVuSans-48"/>
       <use x="63.623047" xlink:href="#DejaVuSans-46"/>
       <use x="95.410156" xlink:href="#DejaVuSans-48"/>
      </g>
     </g>
    </g>
    <g id="xtick_15">
     <g id="line2d_45">
      <path clip-path="url(#p6f4ae26119)" d="M 432.409091 378 
L 432.409091 229.745455 
" style="fill:none;stroke:#b0b0b0;stroke-linecap:square;stroke-width:0.8;"/>
     </g>
     <g id="line2d_46">
      <g>
       <use style="stroke:#000000;stroke-width:0.8;" x="432.409091" xlink:href="#mdca07d29a1" y="378"/>
      </g>
     </g>
     <g id="text_16">
      <!-- 2.5 -->
      <g transform="translate(424.457528 392.598437)scale(0.1 -0.1)">
       <use xlink:href="#DejaVuSans-50"/>
       <use x="63.623047" xlink:href="#DejaVuSans-46"/>
       <use x="95.410156" xlink:href="#DejaVuSans-53"/>
      </g>
     </g>
    </g>
    <g id="xtick_16">
     <g id="line2d_47">
      <path clip-path="url(#p6f4ae26119)" d="M 495.818182 378 
L 495.818182 229.745455 
" style="fill:none;stroke:#b0b0b0;stroke-linecap:square;stroke-width:0.8;"/>
     </g>
     <g id="line2d_48">
      <g>
       <use style="stroke:#000000;stroke-width:0.8;" x="495.818182" xlink:href="#mdca07d29a1" y="378"/>
      </g>
     </g>
     <g id="text_17">
      <!-- 5.0 -->
      <g transform="translate(487.866619 392.598437)scale(0.1 -0.1)">
       <use xlink:href="#DejaVuSans-53"/>
       <use x="63.623047" xlink:href="#DejaVuSans-46"/>
       <use x="95.410156" xlink:href="#DejaVuSans-48"/>
      </g>
     </g>
    </g>
    <g id="xtick_17">
     <g id="line2d_49">
      <path clip-path="url(#p6f4ae26119)" d="M 559.227273 378 
L 559.227273 229.745455 
" style="fill:none;stroke:#b0b0b0;stroke-linecap:square;stroke-width:0.8;"/>
     </g>
     <g id="line2d_50">
      <g>
       <use style="stroke:#000000;stroke-width:0.8;" x="559.227273" xlink:href="#mdca07d29a1" y="378"/>
      </g>
     </g>
     <g id="text_18">
      <!-- 7.5 -->
      <g transform="translate(551.27571 392.598437)scale(0.1 -0.1)">
       <use xlink:href="#DejaVuSans-55"/>
       <use x="63.623047" xlink:href="#DejaVuSans-46"/>
       <use x="95.410156" xlink:href="#DejaVuSans-53"/>
      </g>
     </g>
    </g>
    <g id="xtick_18">
     <g id="line2d_51">
      <path clip-path="url(#p6f4ae26119)" d="M 622.636364 378 
L 622.636364 229.745455 
" style="fill:none;stroke:#b0b0b0;stroke-linecap:square;stroke-width:0.8;"/>
     </g>
     <g id="line2d_52">
      <g>
       <use style="stroke:#000000;stroke-width:0.8;" x="622.636364" xlink:href="#mdca07d29a1" y="378"/>
      </g>
     </g>
     <g id="text_19">
      <!-- 10.0 -->
      <g transform="translate(611.503551 392.598437)scale(0.1 -0.1)">
       <use xlink:href="#DejaVuSans-49"/>
       <use x="63.623047" xlink:href="#DejaVuSans-48"/>
       <use x="127.246094" xlink:href="#DejaVuSans-46"/>
       <use x="159.033203" xlink:href="#DejaVuSans-48"/>
      </g>
     </g>
    </g>
    <g id="text_20">
     <!-- x -->
     <g transform="translate(366.040625 406.276562)scale(0.1 -0.1)">
      <use xlink:href="#DejaVuSans-120"/>
     </g>
    </g>
   </g>
   <g id="matplotlib.axis_4">
    <g id="ytick_6">
     <g id="line2d_53">
      <path clip-path="url(#p6f4ae26119)" d="M 90 371.267276 
L 648 371.267276 
" style="fill:none;stroke:#b0b0b0;stroke-linecap:square;stroke-width:0.8;"/>
     </g>
     <g id="line2d_54">
      <g>
       <use style="stroke:#000000;stroke-width:0.8;" x="90" xlink:href="#m7f911f8cf5" y="371.267276"/>
      </g>
     </g>
     <g id="text_21">
      <!-- 0.0 -->
      <g transform="translate(67.096875 375.066495)scale(0.1 -0.1)">
       <use xlink:href="#DejaVuSans-48"/>
       <use x="63.623047" xlink:href="#DejaVuSans-46"/>
       <use x="95.410156" xlink:href="#DejaVuSans-48"/>
      </g>
     </g>
    </g>
    <g id="ytick_7">
     <g id="line2d_55">
      <path clip-path="url(#p6f4ae26119)" d="M 90 344.309457 
L 648 344.309457 
" style="fill:none;stroke:#b0b0b0;stroke-linecap:square;stroke-width:0.8;"/>
     </g>
     <g id="line2d_56">
      <g>
       <use style="stroke:#000000;stroke-width:0.8;" x="90" xlink:href="#m7f911f8cf5" y="344.309457"/>
      </g>
     </g>
     <g id="text_22">
      <!-- 0.2 -->
      <g transform="translate(67.096875 348.108675)scale(0.1 -0.1)">
       <use xlink:href="#DejaVuSans-48"/>
       <use x="63.623047" xlink:href="#DejaVuSans-46"/>
       <use x="95.410156" xlink:href="#DejaVuSans-50"/>
      </g>
     </g>
    </g>
    <g id="ytick_8">
     <g id="line2d_57">
      <path clip-path="url(#p6f4ae26119)" d="M 90 317.351637 
L 648 317.351637 
" style="fill:none;stroke:#b0b0b0;stroke-linecap:square;stroke-width:0.8;"/>
     </g>
     <g id="line2d_58">
      <g>
       <use style="stroke:#000000;stroke-width:0.8;" x="90" xlink:href="#m7f911f8cf5" y="317.351637"/>
      </g>
     </g>
     <g id="text_23">
      <!-- 0.4 -->
      <defs>
       <path d="M 37.796875 64.3125 
L 12.890625 25.390625 
L 37.796875 25.390625 
z
M 35.203125 72.90625 
L 47.609375 72.90625 
L 47.609375 25.390625 
L 58.015625 25.390625 
L 58.015625 17.1875 
L 47.609375 17.1875 
L 47.609375 0 
L 37.796875 0 
L 37.796875 17.1875 
L 4.890625 17.1875 
L 4.890625 26.703125 
z
" id="DejaVuSans-52"/>
      </defs>
      <g transform="translate(67.096875 321.150856)scale(0.1 -0.1)">
       <use xlink:href="#DejaVuSans-48"/>
       <use x="63.623047" xlink:href="#DejaVuSans-46"/>
       <use x="95.410156" xlink:href="#DejaVuSans-52"/>
      </g>
     </g>
    </g>
    <g id="ytick_9">
     <g id="line2d_59">
      <path clip-path="url(#p6f4ae26119)" d="M 90 290.393817 
L 648 290.393817 
" style="fill:none;stroke:#b0b0b0;stroke-linecap:square;stroke-width:0.8;"/>
     </g>
     <g id="line2d_60">
      <g>
       <use style="stroke:#000000;stroke-width:0.8;" x="90" xlink:href="#m7f911f8cf5" y="290.393817"/>
      </g>
     </g>
     <g id="text_24">
      <!-- 0.6 -->
      <defs>
       <path d="M 33.015625 40.375 
Q 26.375 40.375 22.484375 35.828125 
Q 18.609375 31.296875 18.609375 23.390625 
Q 18.609375 15.53125 22.484375 10.953125 
Q 26.375 6.390625 33.015625 6.390625 
Q 39.65625 6.390625 43.53125 10.953125 
Q 47.40625 15.53125 47.40625 23.390625 
Q 47.40625 31.296875 43.53125 35.828125 
Q 39.65625 40.375 33.015625 40.375 
z
M 52.59375 71.296875 
L 52.59375 62.3125 
Q 48.875 64.0625 45.09375 64.984375 
Q 41.3125 65.921875 37.59375 65.921875 
Q 27.828125 65.921875 22.671875 59.328125 
Q 17.53125 52.734375 16.796875 39.40625 
Q 19.671875 43.65625 24.015625 45.921875 
Q 28.375 48.1875 33.59375 48.1875 
Q 44.578125 48.1875 50.953125 41.515625 
Q 57.328125 34.859375 57.328125 23.390625 
Q 57.328125 12.15625 50.6875 5.359375 
Q 44.046875 -1.421875 33.015625 -1.421875 
Q 20.359375 -1.421875 13.671875 8.265625 
Q 6.984375 17.96875 6.984375 36.375 
Q 6.984375 53.65625 15.1875 63.9375 
Q 23.390625 74.21875 37.203125 74.21875 
Q 40.921875 74.21875 44.703125 73.484375 
Q 48.484375 72.75 52.59375 71.296875 
z
" id="DejaVuSans-54"/>
      </defs>
      <g transform="translate(67.096875 294.193036)scale(0.1 -0.1)">
       <use xlink:href="#DejaVuSans-48"/>
       <use x="63.623047" xlink:href="#DejaVuSans-46"/>
       <use x="95.410156" xlink:href="#DejaVuSans-54"/>
      </g>
     </g>
    </g>
    <g id="ytick_10">
     <g id="line2d_61">
      <path clip-path="url(#p6f4ae26119)" d="M 90 263.435998 
L 648 263.435998 
" style="fill:none;stroke:#b0b0b0;stroke-linecap:square;stroke-width:0.8;"/>
     </g>
     <g id="line2d_62">
      <g>
       <use style="stroke:#000000;stroke-width:0.8;" x="90" xlink:href="#m7f911f8cf5" y="263.435998"/>
      </g>
     </g>
     <g id="text_25">
      <!-- 0.8 -->
      <defs>
       <path d="M 31.78125 34.625 
Q 24.75 34.625 20.71875 30.859375 
Q 16.703125 27.09375 16.703125 20.515625 
Q 16.703125 13.921875 20.71875 10.15625 
Q 24.75 6.390625 31.78125 6.390625 
Q 38.8125 6.390625 42.859375 10.171875 
Q 46.921875 13.96875 46.921875 20.515625 
Q 46.921875 27.09375 42.890625 30.859375 
Q 38.875 34.625 31.78125 34.625 
z
M 21.921875 38.8125 
Q 15.578125 40.375 12.03125 44.71875 
Q 8.5 49.078125 8.5 55.328125 
Q 8.5 64.0625 14.71875 69.140625 
Q 20.953125 74.21875 31.78125 74.21875 
Q 42.671875 74.21875 48.875 69.140625 
Q 55.078125 64.0625 55.078125 55.328125 
Q 55.078125 49.078125 51.53125 44.71875 
Q 48 40.375 41.703125 38.8125 
Q 48.828125 37.15625 52.796875 32.3125 
Q 56.78125 27.484375 56.78125 20.515625 
Q 56.78125 9.90625 50.3125 4.234375 
Q 43.84375 -1.421875 31.78125 -1.421875 
Q 19.734375 -1.421875 13.25 4.234375 
Q 6.78125 9.90625 6.78125 20.515625 
Q 6.78125 27.484375 10.78125 32.3125 
Q 14.796875 37.15625 21.921875 38.8125 
z
M 18.3125 54.390625 
Q 18.3125 48.734375 21.84375 45.5625 
Q 25.390625 42.390625 31.78125 42.390625 
Q 38.140625 42.390625 41.71875 45.5625 
Q 45.3125 48.734375 45.3125 54.390625 
Q 45.3125 60.0625 41.71875 63.234375 
Q 38.140625 66.40625 31.78125 66.40625 
Q 25.390625 66.40625 21.84375 63.234375 
Q 18.3125 60.0625 18.3125 54.390625 
z
" id="DejaVuSans-56"/>
      </defs>
      <g transform="translate(67.096875 267.235217)scale(0.1 -0.1)">
       <use xlink:href="#DejaVuSans-48"/>
       <use x="63.623047" xlink:href="#DejaVuSans-46"/>
       <use x="95.410156" xlink:href="#DejaVuSans-56"/>
      </g>
     </g>
    </g>
    <g id="ytick_11">
     <g id="line2d_63">
      <path clip-path="url(#p6f4ae26119)" d="M 90 236.478178 
L 648 236.478178 
" style="fill:none;stroke:#b0b0b0;stroke-linecap:square;stroke-width:0.8;"/>
     </g>
     <g id="line2d_64">
      <g>
       <use style="stroke:#000000;stroke-width:0.8;" x="90" xlink:href="#m7f911f8cf5" y="236.478178"/>
      </g>
     </g>
     <g id="text_26">
      <!-- 1.0 -->
      <g transform="translate(67.096875 240.277397)scale(0.1 -0.1)">
       <use xlink:href="#DejaVuSans-49"/>
       <use x="63.623047" xlink:href="#DejaVuSans-46"/>
       <use x="95.410156" xlink:href="#DejaVuSans-48"/>
      </g>
     </g>
    </g>
    <g id="text_27">
     <!-- $P(C|x)$ -->
     <g transform="translate(60.696875 318.972727)rotate(-90)scale(0.1 -0.1)">
      <use transform="translate(0 0.578125)" xlink:href="#DejaVuSans-Oblique-80"/>
      <use transform="translate(60.302734 0.578125)" xlink:href="#DejaVuSans-40"/>
      <use transform="translate(99.316406 0.578125)" xlink:href="#DejaVuSans-Oblique-67"/>
      <use transform="translate(169.140625 0.578125)" xlink:href="#DejaVuSans-124"/>
      <use transform="translate(202.832031 0.578125)" xlink:href="#DejaVuSans-Oblique-120"/>
      <use transform="translate(262.011719 0.578125)" xlink:href="#DejaVuSans-41"/>
     </g>
    </g>
   </g>
   <g id="line2d_65">
    <path clip-path="url(#p6f4ae26119)" d="M 115.363636 236.484298 
L 120.487603 236.485667 
L 125.61157 236.487344 
L 130.735537 236.489396 
L 135.859504 236.491906 
L 140.983471 236.494979 
L 146.107438 236.49874 
L 151.231405 236.503343 
L 156.355372 236.508975 
L 161.479339 236.515867 
L 166.603306 236.524302 
L 171.727273 236.534624 
L 176.85124 236.547254 
L 181.975207 236.562708 
L 187.099174 236.581617 
L 192.22314 236.604753 
L 197.347107 236.633057 
L 202.471074 236.667681 
L 207.595041 236.710033 
L 212.719008 236.761829 
L 217.842975 236.825167 
L 222.966942 236.902604 
L 228.090909 236.997256 
L 233.214876 237.112916 
L 238.338843 237.254198 
L 243.46281 237.426705 
L 248.586777 237.637228 
L 253.710744 237.893982 
L 258.834711 238.206877 
L 263.958678 238.587828 
L 269.082645 239.051106 
L 274.206612 239.613715 
L 279.330579 240.295794 
L 284.454545 241.121015 
L 289.578512 242.116937 
L 294.702479 243.315269 
L 299.826446 244.751952 
L 304.950413 246.466959 
L 310.07438 248.503665 
L 315.198347 250.907641 
L 320.322314 253.724673 
L 325.446281 256.997908 
L 330.570248 260.764019 
L 335.694215 265.048525 
L 340.818182 269.860559 
L 345.942149 275.187707 
L 351.066116 280.991797 
L 356.190083 287.206664 
L 361.31405 293.738861 
L 366.438017 300.471853 
L 371.561983 307.273601 
L 376.68595 314.006594 
L 381.809917 320.53879 
L 386.933884 326.753658 
L 392.057851 332.557748 
L 397.181818 337.884896 
L 402.305785 342.69693 
L 407.429752 346.981436 
L 412.553719 350.747547 
L 417.677686 354.020781 
L 422.801653 356.837814 
L 427.92562 359.241789 
L 433.049587 361.278496 
L 438.173554 362.993502 
L 443.297521 364.430185 
L 448.421488 365.628517 
L 453.545455 366.624439 
L 458.669421 367.44966 
L 463.793388 368.13174 
L 468.917355 368.694349 
L 474.041322 369.157626 
L 479.165289 369.538578 
L 484.289256 369.851472 
L 489.413223 370.108227 
L 494.53719 370.31875 
L 499.661157 370.491257 
L 504.785124 370.632539 
L 509.909091 370.748199 
L 515.033058 370.84285 
L 520.157025 370.920287 
L 525.280992 370.983625 
L 530.404959 371.035422 
L 535.528926 371.077773 
L 540.652893 371.112398 
L 545.77686 371.140702 
L 550.900826 371.163837 
L 556.024793 371.182747 
L 561.14876 371.198201 
L 566.272727 371.210831 
L 571.396694 371.221152 
L 576.520661 371.229587 
L 581.644628 371.23648 
L 586.768595 371.242112 
L 591.892562 371.246714 
L 597.016529 371.250475 
L 602.140496 371.253548 
L 607.264463 371.256059 
L 612.38843 371.258111 
L 617.512397 371.259787 
L 622.636364 371.261157 
" style="fill:none;stroke:#ff0000;stroke-linecap:square;stroke-width:1.5;"/>
   </g>
   <g id="line2d_66">
    <path clip-path="url(#p6f4ae26119)" d="M 115.363636 371.261157 
L 120.487603 371.259787 
L 125.61157 371.258111 
L 130.735537 371.256059 
L 135.859504 371.253548 
L 140.983471 371.250475 
L 146.107438 371.246714 
L 151.231405 371.242112 
L 156.355372 371.23648 
L 161.479339 371.229587 
L 166.603306 371.221152 
L 171.727273 371.210831 
L 176.85124 371.198201 
L 181.975207 371.182747 
L 187.099174 371.163837 
L 192.22314 371.140702 
L 197.347107 371.112398 
L 202.471074 371.077773 
L 207.595041 371.035422 
L 212.719008 370.983625 
L 217.842975 370.920287 
L 222.966942 370.84285 
L 228.090909 370.748199 
L 233.214876 370.632539 
L 238.338843 370.491257 
L 243.46281 370.31875 
L 248.586777 370.108227 
L 253.710744 369.851472 
L 258.834711 369.538578 
L 263.958678 369.157626 
L 269.082645 368.694349 
L 274.206612 368.13174 
L 279.330579 367.44966 
L 284.454545 366.624439 
L 289.578512 365.628517 
L 294.702479 364.430185 
L 299.826446 362.993502 
L 304.950413 361.278496 
L 310.07438 359.241789 
L 315.198347 356.837814 
L 320.322314 354.020781 
L 325.446281 350.747547 
L 330.570248 346.981436 
L 335.694215 342.69693 
L 340.818182 337.884896 
L 345.942149 332.557748 
L 351.066116 326.753658 
L 356.190083 320.53879 
L 361.31405 314.006594 
L 366.438017 307.273601 
L 371.561983 300.471853 
L 376.68595 293.738861 
L 381.809917 287.206664 
L 386.933884 280.991797 
L 392.057851 275.187707 
L 397.181818 269.860559 
L 402.305785 265.048525 
L 407.429752 260.764019 
L 412.553719 256.997908 
L 417.677686 253.724673 
L 422.801653 250.907641 
L 427.92562 248.503665 
L 433.049587 246.466959 
L 438.173554 244.751952 
L 443.297521 243.315269 
L 448.421488 242.116937 
L 453.545455 241.121015 
L 458.669421 240.295794 
L 463.793388 239.613715 
L 468.917355 239.051106 
L 474.041322 238.587828 
L 479.165289 238.206877 
L 484.289256 237.893982 
L 489.413223 237.637228 
L 494.53719 237.426705 
L 499.661157 237.254198 
L 504.785124 237.112916 
L 509.909091 236.997256 
L 515.033058 236.902604 
L 520.157025 236.825167 
L 525.280992 236.761829 
L 530.404959 236.710033 
L 535.528926 236.667681 
L 540.652893 236.633057 
L 545.77686 236.604753 
L 550.900826 236.581617 
L 556.024793 236.562708 
L 561.14876 236.547254 
L 566.272727 236.534624 
L 571.396694 236.524302 
L 576.520661 236.515867 
L 581.644628 236.508975 
L 586.768595 236.503343 
L 591.892562 236.49874 
L 597.016529 236.494979 
L 602.140496 236.491906 
L 607.264463 236.489396 
L 612.38843 236.487344 
L 617.512397 236.485667 
L 622.636364 236.484298 
" style="fill:none;stroke:#0000ff;stroke-dasharray:5.55,2.4;stroke-dashoffset:0;stroke-width:1.5;"/>
   </g>
   <g id="patch_9">
    <path d="M 90 378 
L 90 229.745455 
" style="fill:none;stroke:#000000;stroke-linecap:square;stroke-linejoin:miter;stroke-width:0.8;"/>
   </g>
   <g id="patch_10">
    <path d="M 648 378 
L 648 229.745455 
" style="fill:none;stroke:#000000;stroke-linecap:square;stroke-linejoin:miter;stroke-width:0.8;"/>
   </g>
   <g id="patch_11">
    <path d="M 90 378 
L 648 378 
" style="fill:none;stroke:#000000;stroke-linecap:square;stroke-linejoin:miter;stroke-width:0.8;"/>
   </g>
   <g id="patch_12">
    <path d="M 90 229.745455 
L 648 229.745455 
" style="fill:none;stroke:#000000;stroke-linecap:square;stroke-linejoin:miter;stroke-width:0.8;"/>
   </g>
   <g id="text_28">
    <!-- Posteriors avec $\sigma$ et $P(C)$ identiques -->
    <defs>
     <path d="M 19.671875 64.796875 
L 19.671875 37.40625 
L 32.078125 37.40625 
Q 38.96875 37.40625 42.71875 40.96875 
Q 46.484375 44.53125 46.484375 51.125 
Q 46.484375 57.671875 42.71875 61.234375 
Q 38.96875 64.796875 32.078125 64.796875 
z
M 9.8125 72.90625 
L 32.078125 72.90625 
Q 44.34375 72.90625 50.609375 67.359375 
Q 56.890625 61.8125 56.890625 51.125 
Q 56.890625 40.328125 50.609375 34.8125 
Q 44.34375 29.296875 32.078125 29.296875 
L 19.671875 29.296875 
L 19.671875 0 
L 9.8125 0 
z
" id="DejaVuSans-80"/>
     <path d="M 30.609375 48.390625 
Q 23.390625 48.390625 19.1875 42.75 
Q 14.984375 37.109375 14.984375 27.296875 
Q 14.984375 17.484375 19.15625 11.84375 
Q 23.34375 6.203125 30.609375 6.203125 
Q 37.796875 6.203125 41.984375 11.859375 
Q 46.1875 17.53125 46.1875 27.296875 
Q 46.1875 37.015625 41.984375 42.703125 
Q 37.796875 48.390625 30.609375 48.390625 
z
M 30.609375 56 
Q 42.328125 56 49.015625 48.375 
Q 55.71875 40.765625 55.71875 27.296875 
Q 55.71875 13.875 49.015625 6.21875 
Q 42.328125 -1.421875 30.609375 -1.421875 
Q 18.84375 -1.421875 12.171875 6.21875 
Q 5.515625 13.875 5.515625 27.296875 
Q 5.515625 40.765625 12.171875 48.375 
Q 18.84375 56 30.609375 56 
z
" id="DejaVuSans-111"/>
     <path d="M 18.3125 70.21875 
L 18.3125 54.6875 
L 36.8125 54.6875 
L 36.8125 47.703125 
L 18.3125 47.703125 
L 18.3125 18.015625 
Q 18.3125 11.328125 20.140625 9.421875 
Q 21.96875 7.515625 27.59375 7.515625 
L 36.8125 7.515625 
L 36.8125 0 
L 27.59375 0 
Q 17.1875 0 13.234375 3.875 
Q 9.28125 7.765625 9.28125 18.015625 
L 9.28125 47.703125 
L 2.6875 47.703125 
L 2.6875 54.6875 
L 9.28125 54.6875 
L 9.28125 70.21875 
z
" id="DejaVuSans-116"/>
     <path d="M 2.984375 54.6875 
L 12.5 54.6875 
L 29.59375 8.796875 
L 46.6875 54.6875 
L 56.203125 54.6875 
L 35.6875 0 
L 23.484375 0 
z
" id="DejaVuSans-118"/>
     <path d="M 45.40625 46.390625 
L 45.40625 75.984375 
L 54.390625 75.984375 
L 54.390625 0 
L 45.40625 0 
L 45.40625 8.203125 
Q 42.578125 3.328125 38.25 0.953125 
Q 33.9375 -1.421875 27.875 -1.421875 
Q 17.96875 -1.421875 11.734375 6.484375 
Q 5.515625 14.40625 5.515625 27.296875 
Q 5.515625 40.1875 11.734375 48.09375 
Q 17.96875 56 27.875 56 
Q 33.9375 56 38.25 53.625 
Q 42.578125 51.265625 45.40625 46.390625 
z
M 14.796875 27.296875 
Q 14.796875 17.390625 18.875 11.75 
Q 22.953125 6.109375 30.078125 6.109375 
Q 37.203125 6.109375 41.296875 11.75 
Q 45.40625 17.390625 45.40625 27.296875 
Q 45.40625 37.203125 41.296875 42.84375 
Q 37.203125 48.484375 30.078125 48.484375 
Q 22.953125 48.484375 18.875 42.84375 
Q 14.796875 37.203125 14.796875 27.296875 
z
" id="DejaVuSans-100"/>
     <path d="M 14.796875 27.296875 
Q 14.796875 17.390625 18.875 11.75 
Q 22.953125 6.109375 30.078125 6.109375 
Q 37.203125 6.109375 41.296875 11.75 
Q 45.40625 17.390625 45.40625 27.296875 
Q 45.40625 37.203125 41.296875 42.84375 
Q 37.203125 48.484375 30.078125 48.484375 
Q 22.953125 48.484375 18.875 42.84375 
Q 14.796875 37.203125 14.796875 27.296875 
z
M 45.40625 8.203125 
Q 42.578125 3.328125 38.25 0.953125 
Q 33.9375 -1.421875 27.875 -1.421875 
Q 17.96875 -1.421875 11.734375 6.484375 
Q 5.515625 14.40625 5.515625 27.296875 
Q 5.515625 40.1875 11.734375 48.09375 
Q 17.96875 56 27.875 56 
Q 33.9375 56 38.25 53.625 
Q 42.578125 51.265625 45.40625 46.390625 
L 45.40625 54.6875 
L 54.390625 54.6875 
L 54.390625 -20.796875 
L 45.40625 -20.796875 
z
" id="DejaVuSans-113"/>
     <path d="M 8.5 21.578125 
L 8.5 54.6875 
L 17.484375 54.6875 
L 17.484375 21.921875 
Q 17.484375 14.15625 20.5 10.265625 
Q 23.53125 6.390625 29.59375 6.390625 
Q 36.859375 6.390625 41.078125 11.03125 
Q 45.3125 15.671875 45.3125 23.6875 
L 45.3125 54.6875 
L 54.296875 54.6875 
L 54.296875 0 
L 45.3125 0 
L 45.3125 8.40625 
Q 42.046875 3.421875 37.71875 1 
Q 33.40625 -1.421875 27.6875 -1.421875 
Q 18.265625 -1.421875 13.375 4.4375 
Q 8.5 10.296875 8.5 21.578125 
z
M 31.109375 56 
z
" id="DejaVuSans-117"/>
    </defs>
    <g transform="translate(279.5 223.745455)scale(0.1 -0.1)">
     <use transform="translate(0 0.015625)" xlink:href="#DejaVuSans-80"/>
     <use transform="translate(60.302734 0.015625)" xlink:href="#DejaVuSans-111"/>
     <use transform="translate(121.484375 0.015625)" xlink:href="#DejaVuSans-115"/>
     <use transform="translate(173.583984 0.015625)" xlink:href="#DejaVuSans-116"/>
     <use transform="translate(212.792969 0.015625)" xlink:href="#DejaVuSans-101"/>
     <use transform="translate(274.316406 0.015625)" xlink:href="#DejaVuSans-114"/>
     <use transform="translate(315.429688 0.015625)" xlink:href="#DejaVuSans-105"/>
     <use transform="translate(343.212891 0.015625)" xlink:href="#DejaVuSans-111"/>
     <use transform="translate(404.394531 0.015625)" xlink:href="#DejaVuSans-114"/>
     <use transform="translate(445.507812 0.015625)" xlink:href="#DejaVuSans-115"/>
     <use transform="translate(497.607422 0.015625)" xlink:href="#DejaVuSans-32"/>
     <use transform="translate(529.394531 0.015625)" xlink:href="#DejaVuSans-97"/>
     <use transform="translate(590.673828 0.015625)" xlink:href="#DejaVuSans-118"/>
     <use transform="translate(649.853516 0.015625)" xlink:href="#DejaVuSans-101"/>
     <use transform="translate(711.376953 0.015625)" xlink:href="#DejaVuSans-99"/>
     <use transform="translate(766.357422 0.015625)" xlink:href="#DejaVuSans-32"/>
     <use transform="translate(798.144531 0.015625)" xlink:href="#DejaVuSans-Oblique-963"/>
     <use transform="translate(861.523438 0.015625)" xlink:href="#DejaVuSans-32"/>
     <use transform="translate(893.310547 0.015625)" xlink:href="#DejaVuSans-101"/>
     <use transform="translate(954.833984 0.015625)" xlink:href="#DejaVuSans-116"/>
     <use transform="translate(994.042969 0.015625)" xlink:href="#DejaVuSans-32"/>
     <use transform="translate(1025.830078 0.015625)" xlink:href="#DejaVuSans-Oblique-80"/>
     <use transform="translate(1086.132812 0.015625)" xlink:href="#DejaVuSans-40"/>
     <use transform="translate(1125.146484 0.015625)" xlink:href="#DejaVuSans-Oblique-67"/>
     <use transform="translate(1194.970703 0.015625)" xlink:href="#DejaVuSans-41"/>
     <use transform="translate(1233.984375 0.015625)" xlink:href="#DejaVuSans-32"/>
     <use transform="translate(1265.771484 0.015625)" xlink:href="#DejaVuSans-105"/>
     <use transform="translate(1293.554688 0.015625)" xlink:href="#DejaVuSans-100"/>
     <use transform="translate(1357.03125 0.015625)" xlink:href="#DejaVuSans-101"/>
     <use transform="translate(1418.554688 0.015625)" xlink:href="#DejaVuSans-110"/>
     <use transform="translate(1481.933594 0.015625)" xlink:href="#DejaVuSans-116"/>
     <use transform="translate(1521.142578 0.015625)" xlink:href="#DejaVuSans-105"/>
     <use transform="translate(1548.925781 0.015625)" xlink:href="#DejaVuSans-113"/>
     <use transform="translate(1612.402344 0.015625)" xlink:href="#DejaVuSans-117"/>
     <use transform="translate(1675.78125 0.015625)" xlink:href="#DejaVuSans-101"/>
     <use transform="translate(1737.304688 0.015625)" xlink:href="#DejaVuSans-115"/>
    </g>
   </g>
  </g>
 </g>
 <defs>
  <clipPath id="pa734bf98ff">
   <rect height="148.254545" width="558" x="90" y="51.84"/>
  </clipPath>
  <clipPath id="p6f4ae26119">
   <rect height="148.254545" width="558" x="90" y="229.745455"/>
  </clipPath>
 </defs>
</svg>
