<?xml version="1.0" encoding="utf-8" standalone="no"?>
<!DOCTYPE svg PUBLIC "-//W3C//DTD SVG 1.1//EN"
  "http://www.w3.org/Graphics/SVG/1.1/DTD/svg11.dtd">
<!-- Created with matplotlib (https://matplotlib.org/) -->
<svg height="720pt" version="1.1" viewBox="0 0 864 720" width="864pt" xmlns="http://www.w3.org/2000/svg" xmlns:xlink="http://www.w3.org/1999/xlink">
 <defs>
  <style type="text/css">
*{stroke-linecap:butt;stroke-linejoin:round;}
  </style>
 </defs>
 <g id="figure_1">
  <g id="patch_1">
   <path d="M 0 720 
L 864 720 
L 864 0 
L 0 0 
z
" style="fill:#ffffff;"/>
  </g>
  <g id="axes_1">
   <g id="patch_2">
    <path d="M 108 333.490909 
L 412.363636 333.490909 
L 412.363636 86.4 
L 108 86.4 
z
" style="fill:#bbbbff;"/>
   </g>
   <g id="matplotlib.axis_1">
    <g id="xtick_1">
     <g id="line2d_1">
      <defs>
       <path d="M 0 0 
L 0 3.5 
" id="mbac1c39e1f" style="stroke:#000000;stroke-width:0.8;"/>
      </defs>
      <g>
       <use style="stroke:#000000;stroke-width:0.8;" x="131.412587" xlink:href="#mbac1c39e1f" y="333.490909"/>
      </g>
     </g>
    </g>
    <g id="xtick_2">
     <g id="line2d_2">
      <g>
       <use style="stroke:#000000;stroke-width:0.8;" x="178.237762" xlink:href="#mbac1c39e1f" y="333.490909"/>
      </g>
     </g>
    </g>
    <g id="xtick_3">
     <g id="line2d_3">
      <g>
       <use style="stroke:#000000;stroke-width:0.8;" x="225.062937" xlink:href="#mbac1c39e1f" y="333.490909"/>
      </g>
     </g>
    </g>
    <g id="xtick_4">
     <g id="line2d_4">
      <g>
       <use style="stroke:#000000;stroke-width:0.8;" x="271.888112" xlink:href="#mbac1c39e1f" y="333.490909"/>
      </g>
     </g>
    </g>
    <g id="xtick_5">
     <g id="line2d_5">
      <g>
       <use style="stroke:#000000;stroke-width:0.8;" x="318.713287" xlink:href="#mbac1c39e1f" y="333.490909"/>
      </g>
     </g>
    </g>
    <g id="xtick_6">
     <g id="line2d_6">
      <g>
       <use style="stroke:#000000;stroke-width:0.8;" x="365.538462" xlink:href="#mbac1c39e1f" y="333.490909"/>
      </g>
     </g>
    </g>
    <g id="xtick_7">
     <g id="line2d_7">
      <g>
       <use style="stroke:#000000;stroke-width:0.8;" x="412.363636" xlink:href="#mbac1c39e1f" y="333.490909"/>
      </g>
     </g>
    </g>
    <g id="text_1">
     <!-- x -->
     <defs>
      <path d="M 54.890625 54.6875 
L 35.109375 28.078125 
L 55.90625 0 
L 45.3125 0 
L 29.390625 21.484375 
L 13.484375 0 
L 2.875 0 
L 24.125 28.609375 
L 4.6875 54.6875 
L 15.28125 54.6875 
L 29.78125 35.203125 
L 44.28125 54.6875 
z
" id="DejaVuSans-120"/>
     </defs>
     <g transform="translate(254.854943 359.522642)scale(0.18 -0.18)">
      <use xlink:href="#DejaVuSans-120"/>
     </g>
    </g>
   </g>
   <g id="matplotlib.axis_2">
    <g id="ytick_1">
     <g id="line2d_8">
      <defs>
       <path d="M 0 0 
L -3.5 0 
" id="m004beb7011" style="stroke:#000000;stroke-width:0.8;"/>
      </defs>
      <g>
       <use style="stroke:#000000;stroke-width:0.8;" x="108" xlink:href="#m004beb7011" y="333.490909"/>
      </g>
     </g>
     <g id="text_2">
      <!-- −3 -->
      <defs>
       <path d="M 10.59375 35.5 
L 73.1875 35.5 
L 73.1875 27.203125 
L 10.59375 27.203125 
z
" id="DejaVuSans-8722"/>
       <path d="M 40.578125 39.3125 
Q 47.65625 37.796875 51.625 33 
Q 55.609375 28.21875 55.609375 21.1875 
Q 55.609375 10.40625 48.1875 4.484375 
Q 40.765625 -1.421875 27.09375 -1.421875 
Q 22.515625 -1.421875 17.65625 -0.515625 
Q 12.796875 0.390625 7.625 2.203125 
L 7.625 11.71875 
Q 11.71875 9.328125 16.59375 8.109375 
Q 21.484375 6.890625 26.8125 6.890625 
Q 36.078125 6.890625 40.9375 10.546875 
Q 45.796875 14.203125 45.796875 21.1875 
Q 45.796875 27.640625 41.28125 31.265625 
Q 36.765625 34.90625 28.71875 34.90625 
L 20.21875 34.90625 
L 20.21875 43.015625 
L 29.109375 43.015625 
Q 36.375 43.015625 40.234375 45.921875 
Q 44.09375 48.828125 44.09375 54.296875 
Q 44.09375 59.90625 40.109375 62.90625 
Q 36.140625 65.921875 28.71875 65.921875 
Q 24.65625 65.921875 20.015625 65.03125 
Q 15.375 64.15625 9.8125 62.3125 
L 9.8125 71.09375 
Q 15.4375 72.65625 20.34375 73.4375 
Q 25.25 74.21875 29.59375 74.21875 
Q 40.828125 74.21875 47.359375 69.109375 
Q 53.90625 64.015625 53.90625 55.328125 
Q 53.90625 49.265625 50.4375 45.09375 
Q 46.96875 40.921875 40.578125 39.3125 
z
" id="DejaVuSans-51"/>
      </defs>
      <g transform="translate(86.257812 337.290128)scale(0.1 -0.1)">
       <use xlink:href="#DejaVuSans-8722"/>
       <use x="83.789062" xlink:href="#DejaVuSans-51"/>
      </g>
     </g>
    </g>
    <g id="ytick_2">
     <g id="line2d_9">
      <g>
       <use style="stroke:#000000;stroke-width:0.8;" x="108" xlink:href="#m004beb7011" y="292.309091"/>
      </g>
     </g>
     <g id="text_3">
      <!-- −2 -->
      <defs>
       <path d="M 19.1875 8.296875 
L 53.609375 8.296875 
L 53.609375 0 
L 7.328125 0 
L 7.328125 8.296875 
Q 12.9375 14.109375 22.625 23.890625 
Q 32.328125 33.6875 34.8125 36.53125 
Q 39.546875 41.84375 41.421875 45.53125 
Q 43.3125 49.21875 43.3125 52.78125 
Q 43.3125 58.59375 39.234375 62.25 
Q 35.15625 65.921875 28.609375 65.921875 
Q 23.96875 65.921875 18.8125 64.3125 
Q 13.671875 62.703125 7.8125 59.421875 
L 7.8125 69.390625 
Q 13.765625 71.78125 18.9375 73 
Q 24.125 74.21875 28.421875 74.21875 
Q 39.75 74.21875 46.484375 68.546875 
Q 53.21875 62.890625 53.21875 53.421875 
Q 53.21875 48.921875 51.53125 44.890625 
Q 49.859375 40.875 45.40625 35.40625 
Q 44.1875 33.984375 37.640625 27.21875 
Q 31.109375 20.453125 19.1875 8.296875 
z
" id="DejaVuSans-50"/>
      </defs>
      <g transform="translate(86.257812 296.10831)scale(0.1 -0.1)">
       <use xlink:href="#DejaVuSans-8722"/>
       <use x="83.789062" xlink:href="#DejaVuSans-50"/>
      </g>
     </g>
    </g>
    <g id="ytick_3">
     <g id="line2d_10">
      <g>
       <use style="stroke:#000000;stroke-width:0.8;" x="108" xlink:href="#m004beb7011" y="251.127273"/>
      </g>
     </g>
     <g id="text_4">
      <!-- −1 -->
      <defs>
       <path d="M 12.40625 8.296875 
L 28.515625 8.296875 
L 28.515625 63.921875 
L 10.984375 60.40625 
L 10.984375 69.390625 
L 28.421875 72.90625 
L 38.28125 72.90625 
L 38.28125 8.296875 
L 54.390625 8.296875 
L 54.390625 0 
L 12.40625 0 
z
" id="DejaVuSans-49"/>
      </defs>
      <g transform="translate(86.257812 254.926491)scale(0.1 -0.1)">
       <use xlink:href="#DejaVuSans-8722"/>
       <use x="83.789062" xlink:href="#DejaVuSans-49"/>
      </g>
     </g>
    </g>
    <g id="ytick_4">
     <g id="line2d_11">
      <g>
       <use style="stroke:#000000;stroke-width:0.8;" x="108" xlink:href="#m004beb7011" y="209.945455"/>
      </g>
     </g>
     <g id="text_5">
      <!-- 0 -->
      <defs>
       <path d="M 31.78125 66.40625 
Q 24.171875 66.40625 20.328125 58.90625 
Q 16.5 51.421875 16.5 36.375 
Q 16.5 21.390625 20.328125 13.890625 
Q 24.171875 6.390625 31.78125 6.390625 
Q 39.453125 6.390625 43.28125 13.890625 
Q 47.125 21.390625 47.125 36.375 
Q 47.125 51.421875 43.28125 58.90625 
Q 39.453125 66.40625 31.78125 66.40625 
z
M 31.78125 74.21875 
Q 44.046875 74.21875 50.515625 64.515625 
Q 56.984375 54.828125 56.984375 36.375 
Q 56.984375 17.96875 50.515625 8.265625 
Q 44.046875 -1.421875 31.78125 -1.421875 
Q 19.53125 -1.421875 13.0625 8.265625 
Q 6.59375 17.96875 6.59375 36.375 
Q 6.59375 54.828125 13.0625 64.515625 
Q 19.53125 74.21875 31.78125 74.21875 
z
" id="DejaVuSans-48"/>
      </defs>
      <g transform="translate(94.6375 213.744673)scale(0.1 -0.1)">
       <use xlink:href="#DejaVuSans-48"/>
      </g>
     </g>
    </g>
    <g id="ytick_5">
     <g id="line2d_12">
      <g>
       <use style="stroke:#000000;stroke-width:0.8;" x="108" xlink:href="#m004beb7011" y="168.763636"/>
      </g>
     </g>
     <g id="text_6">
      <!-- 1 -->
      <g transform="translate(94.6375 172.562855)scale(0.1 -0.1)">
       <use xlink:href="#DejaVuSans-49"/>
      </g>
     </g>
    </g>
    <g id="ytick_6">
     <g id="line2d_13">
      <g>
       <use style="stroke:#000000;stroke-width:0.8;" x="108" xlink:href="#m004beb7011" y="127.581818"/>
      </g>
     </g>
     <g id="text_7">
      <!-- 2 -->
      <g transform="translate(94.6375 131.381037)scale(0.1 -0.1)">
       <use xlink:href="#DejaVuSans-50"/>
      </g>
     </g>
    </g>
    <g id="ytick_7">
     <g id="line2d_14">
      <g>
       <use style="stroke:#000000;stroke-width:0.8;" x="108" xlink:href="#m004beb7011" y="86.4"/>
      </g>
     </g>
     <g id="text_8">
      <!-- 3 -->
      <g transform="translate(94.6375 90.199219)scale(0.1 -0.1)">
       <use xlink:href="#DejaVuSans-51"/>
      </g>
     </g>
    </g>
    <g id="text_9">
     <!-- y -->
     <defs>
      <path d="M 32.171875 -5.078125 
Q 28.375 -14.84375 24.75 -17.8125 
Q 21.140625 -20.796875 15.09375 -20.796875 
L 7.90625 -20.796875 
L 7.90625 -13.28125 
L 13.1875 -13.28125 
Q 16.890625 -13.28125 18.9375 -11.515625 
Q 21 -9.765625 23.484375 -3.21875 
L 25.09375 0.875 
L 2.984375 54.6875 
L 12.5 54.6875 
L 29.59375 11.921875 
L 46.6875 54.6875 
L 56.203125 54.6875 
z
" id="DejaVuSans-121"/>
     </defs>
     <g transform="translate(72.236761 206.202017)scale(0.18 -0.18)">
      <use xlink:href="#DejaVuSans-121"/>
     </g>
    </g>
   </g>
   <g id="line2d_15">
    <path clip-path="url(#p0242289830)" d="M 119.706294 305.178409 
L 122.662428 304.898727 
L 125.618563 304.579653 
L 128.574698 304.221187 
L 131.530833 303.823329 
L 134.486968 303.38608 
L 137.443102 302.909438 
L 140.399237 302.393405 
L 143.355372 301.83798 
L 146.311507 301.243163 
L 149.267641 300.608954 
L 152.223776 299.935354 
L 155.179911 299.222361 
L 158.136046 298.469977 
L 161.092181 297.6782 
L 164.048315 296.847032 
L 167.00445 295.976472 
L 169.960585 295.066521 
L 172.91672 294.117177 
L 175.872854 293.128441 
L 178.828989 292.100314 
L 181.785124 291.032795 
L 184.741259 289.925884 
L 187.697394 288.779581 
L 190.653528 287.593886 
L 193.609663 286.3688 
L 196.565798 285.104321 
L 199.521933 283.800451 
L 202.478067 282.457189 
L 205.434202 281.074535 
L 208.390337 279.652489 
L 211.346472 278.191051 
L 214.302606 276.690221 
L 217.258741 275.15 
L 220.214876 273.570387 
L 223.171011 271.951382 
L 226.127146 270.292985 
L 229.08328 268.595196 
L 232.039415 266.858015 
L 234.99555 265.081443 
L 237.951685 263.265478 
L 240.907819 261.410122 
L 243.863954 259.515374 
L 246.820089 257.581234 
L 249.776224 255.607702 
L 252.732359 253.594778 
L 255.688493 251.542463 
L 258.644628 249.450755 
L 261.600763 247.319656 
L 264.556898 245.149165 
L 267.513032 242.939282 
L 270.469167 240.690008 
L 273.425302 238.401341 
L 276.381437 236.073282 
L 279.337572 233.705832 
L 282.293706 231.29899 
L 285.249841 228.852756 
L 288.205976 226.36713 
L 291.162111 223.842112 
L 294.118245 221.277703 
L 297.07438 218.673901 
L 300.030515 216.030708 
L 302.98665 213.348123 
L 305.942784 210.626146 
L 308.898919 207.864777 
L 311.855054 205.064016 
L 314.811189 202.223864 
L 317.767324 199.344319 
L 320.723458 196.425383 
L 323.679593 193.467055 
L 326.635728 190.469335 
L 329.591863 187.432223 
L 332.547997 184.355719 
L 335.504132 181.239824 
L 338.460267 178.084536 
L 341.416402 174.889857 
L 344.372537 171.655786 
L 347.328671 168.382323 
L 350.284806 165.069468 
L 353.240941 161.717222 
L 356.197076 158.325583 
L 359.15321 154.894553 
L 362.109345 151.424131 
L 365.06548 147.914317 
L 368.021615 144.365111 
L 370.97775 140.776513 
L 373.933884 137.148523 
L 376.890019 133.481142 
L 379.846154 129.774369 
L 382.802289 126.028204 
L 385.758423 122.242647 
L 388.714558 118.417698 
L 391.670693 114.553357 
L 394.626828 110.649624 
L 397.582962 106.7065 
L 400.539097 102.723984 
L 403.495232 98.702076 
L 406.451367 94.640776 
L 409.407502 90.540084 
L 412.363636 86.4 
" style="fill:none;stroke:#000000;stroke-linecap:square;"/>
   </g>
   <g id="line2d_16">
    <defs>
     <path d="M 0 3 
C 0.795609 3 1.55874 2.683901 2.12132 2.12132 
C 2.683901 1.55874 3 0.795609 3 0 
C 3 -0.795609 2.683901 -1.55874 2.12132 -2.12132 
C 1.55874 -2.683901 0.795609 -3 0 -3 
C -0.795609 -3 -1.55874 -2.683901 -2.12132 -2.12132 
C -2.683901 -1.55874 -3 -0.795609 -3 0 
C -3 0.795609 -2.683901 1.55874 -2.12132 2.12132 
C -1.55874 2.683901 -0.795609 3 0 3 
z
" id="m636285e561" style="stroke:#000000;"/>
    </defs>
    <g clip-path="url(#p0242289830)">
     <use style="stroke:#000000;" x="153.377857" xlink:href="#m636285e561" y="303.544172"/>
     <use style="stroke:#000000;" x="297.954089" xlink:href="#m636285e561" y="217.552124"/>
     <use style="stroke:#000000;" x="158.744139" xlink:href="#m636285e561" y="303.83081"/>
     <use style="stroke:#000000;" x="190.116613" xlink:href="#m636285e561" y="275.528447"/>
     <use style="stroke:#000000;" x="215.44594" xlink:href="#m636285e561" y="281.298213"/>
     <use style="stroke:#000000;" x="371.139189" xlink:href="#m636285e561" y="134.184913"/>
     <use style="stroke:#000000;" x="314.642485" xlink:href="#m636285e561" y="206.248216"/>
    </g>
   </g>
   <g id="patch_3">
    <path d="M 108 333.490909 
L 108 86.4 
" style="fill:none;stroke:#000000;stroke-linecap:square;stroke-linejoin:miter;stroke-width:0.8;"/>
   </g>
   <g id="patch_4">
    <path d="M 412.363636 333.490909 
L 412.363636 86.4 
" style="fill:none;stroke:#000000;stroke-linecap:square;stroke-linejoin:miter;stroke-width:0.8;"/>
   </g>
   <g id="patch_5">
    <path d="M 108 333.490909 
L 412.363636 333.490909 
" style="fill:none;stroke:#000000;stroke-linecap:square;stroke-linejoin:miter;stroke-width:0.8;"/>
   </g>
   <g id="patch_6">
    <path d="M 108 86.4 
L 412.363636 86.4 
" style="fill:none;stroke:#000000;stroke-linecap:square;stroke-linejoin:miter;stroke-width:0.8;"/>
   </g>
   <g id="text_10">
    <!-- Données originales -->
    <defs>
     <path d="M 19.671875 64.796875 
L 19.671875 8.109375 
L 31.59375 8.109375 
Q 46.6875 8.109375 53.6875 14.9375 
Q 60.6875 21.78125 60.6875 36.53125 
Q 60.6875 51.171875 53.6875 57.984375 
Q 46.6875 64.796875 31.59375 64.796875 
z
M 9.8125 72.90625 
L 30.078125 72.90625 
Q 51.265625 72.90625 61.171875 64.09375 
Q 71.09375 55.28125 71.09375 36.53125 
Q 71.09375 17.671875 61.125 8.828125 
Q 51.171875 0 30.078125 0 
L 9.8125 0 
z
" id="DejaVuSans-68"/>
     <path d="M 30.609375 48.390625 
Q 23.390625 48.390625 19.1875 42.75 
Q 14.984375 37.109375 14.984375 27.296875 
Q 14.984375 17.484375 19.15625 11.84375 
Q 23.34375 6.203125 30.609375 6.203125 
Q 37.796875 6.203125 41.984375 11.859375 
Q 46.1875 17.53125 46.1875 27.296875 
Q 46.1875 37.015625 41.984375 42.703125 
Q 37.796875 48.390625 30.609375 48.390625 
z
M 30.609375 56 
Q 42.328125 56 49.015625 48.375 
Q 55.71875 40.765625 55.71875 27.296875 
Q 55.71875 13.875 49.015625 6.21875 
Q 42.328125 -1.421875 30.609375 -1.421875 
Q 18.84375 -1.421875 12.171875 6.21875 
Q 5.515625 13.875 5.515625 27.296875 
Q 5.515625 40.765625 12.171875 48.375 
Q 18.84375 56 30.609375 56 
z
" id="DejaVuSans-111"/>
     <path d="M 54.890625 33.015625 
L 54.890625 0 
L 45.90625 0 
L 45.90625 32.71875 
Q 45.90625 40.484375 42.875 44.328125 
Q 39.84375 48.1875 33.796875 48.1875 
Q 26.515625 48.1875 22.3125 43.546875 
Q 18.109375 38.921875 18.109375 30.90625 
L 18.109375 0 
L 9.078125 0 
L 9.078125 54.6875 
L 18.109375 54.6875 
L 18.109375 46.1875 
Q 21.34375 51.125 25.703125 53.5625 
Q 30.078125 56 35.796875 56 
Q 45.21875 56 50.046875 50.171875 
Q 54.890625 44.34375 54.890625 33.015625 
z
" id="DejaVuSans-110"/>
     <path d="M 56.203125 29.59375 
L 56.203125 25.203125 
L 14.890625 25.203125 
Q 15.484375 15.921875 20.484375 11.0625 
Q 25.484375 6.203125 34.421875 6.203125 
Q 39.59375 6.203125 44.453125 7.46875 
Q 49.3125 8.734375 54.109375 11.28125 
L 54.109375 2.78125 
Q 49.265625 0.734375 44.1875 -0.34375 
Q 39.109375 -1.421875 33.890625 -1.421875 
Q 20.796875 -1.421875 13.15625 6.1875 
Q 5.515625 13.8125 5.515625 26.8125 
Q 5.515625 40.234375 12.765625 48.109375 
Q 20.015625 56 32.328125 56 
Q 43.359375 56 49.78125 48.890625 
Q 56.203125 41.796875 56.203125 29.59375 
z
M 47.21875 32.234375 
Q 47.125 39.59375 43.09375 43.984375 
Q 39.0625 48.390625 32.421875 48.390625 
Q 24.90625 48.390625 20.390625 44.140625 
Q 15.875 39.890625 15.1875 32.171875 
z
M 38.578125 79.984375 
L 48.296875 79.984375 
L 32.375 61.625 
L 24.90625 61.625 
z
" id="DejaVuSans-233"/>
     <path d="M 56.203125 29.59375 
L 56.203125 25.203125 
L 14.890625 25.203125 
Q 15.484375 15.921875 20.484375 11.0625 
Q 25.484375 6.203125 34.421875 6.203125 
Q 39.59375 6.203125 44.453125 7.46875 
Q 49.3125 8.734375 54.109375 11.28125 
L 54.109375 2.78125 
Q 49.265625 0.734375 44.1875 -0.34375 
Q 39.109375 -1.421875 33.890625 -1.421875 
Q 20.796875 -1.421875 13.15625 6.1875 
Q 5.515625 13.8125 5.515625 26.8125 
Q 5.515625 40.234375 12.765625 48.109375 
Q 20.015625 56 32.328125 56 
Q 43.359375 56 49.78125 48.890625 
Q 56.203125 41.796875 56.203125 29.59375 
z
M 47.21875 32.234375 
Q 47.125 39.59375 43.09375 43.984375 
Q 39.0625 48.390625 32.421875 48.390625 
Q 24.90625 48.390625 20.390625 44.140625 
Q 15.875 39.890625 15.1875 32.171875 
z
" id="DejaVuSans-101"/>
     <path d="M 44.28125 53.078125 
L 44.28125 44.578125 
Q 40.484375 46.53125 36.375 47.5 
Q 32.28125 48.484375 27.875 48.484375 
Q 21.1875 48.484375 17.84375 46.4375 
Q 14.5 44.390625 14.5 40.28125 
Q 14.5 37.15625 16.890625 35.375 
Q 19.28125 33.59375 26.515625 31.984375 
L 29.59375 31.296875 
Q 39.15625 29.25 43.1875 25.515625 
Q 47.21875 21.78125 47.21875 15.09375 
Q 47.21875 7.46875 41.1875 3.015625 
Q 35.15625 -1.421875 24.609375 -1.421875 
Q 20.21875 -1.421875 15.453125 -0.5625 
Q 10.6875 0.296875 5.421875 2 
L 5.421875 11.28125 
Q 10.40625 8.6875 15.234375 7.390625 
Q 20.0625 6.109375 24.8125 6.109375 
Q 31.15625 6.109375 34.5625 8.28125 
Q 37.984375 10.453125 37.984375 14.40625 
Q 37.984375 18.0625 35.515625 20.015625 
Q 33.0625 21.96875 24.703125 23.78125 
L 21.578125 24.515625 
Q 13.234375 26.265625 9.515625 29.90625 
Q 5.8125 33.546875 5.8125 39.890625 
Q 5.8125 47.609375 11.28125 51.796875 
Q 16.75 56 26.8125 56 
Q 31.78125 56 36.171875 55.265625 
Q 40.578125 54.546875 44.28125 53.078125 
z
" id="DejaVuSans-115"/>
     <path id="DejaVuSans-32"/>
     <path d="M 41.109375 46.296875 
Q 39.59375 47.171875 37.8125 47.578125 
Q 36.03125 48 33.890625 48 
Q 26.265625 48 22.1875 43.046875 
Q 18.109375 38.09375 18.109375 28.8125 
L 18.109375 0 
L 9.078125 0 
L 9.078125 54.6875 
L 18.109375 54.6875 
L 18.109375 46.1875 
Q 20.953125 51.171875 25.484375 53.578125 
Q 30.03125 56 36.53125 56 
Q 37.453125 56 38.578125 55.875 
Q 39.703125 55.765625 41.0625 55.515625 
z
" id="DejaVuSans-114"/>
     <path d="M 9.421875 54.6875 
L 18.40625 54.6875 
L 18.40625 0 
L 9.421875 0 
z
M 9.421875 75.984375 
L 18.40625 75.984375 
L 18.40625 64.59375 
L 9.421875 64.59375 
z
" id="DejaVuSans-105"/>
     <path d="M 45.40625 27.984375 
Q 45.40625 37.75 41.375 43.109375 
Q 37.359375 48.484375 30.078125 48.484375 
Q 22.859375 48.484375 18.828125 43.109375 
Q 14.796875 37.75 14.796875 27.984375 
Q 14.796875 18.265625 18.828125 12.890625 
Q 22.859375 7.515625 30.078125 7.515625 
Q 37.359375 7.515625 41.375 12.890625 
Q 45.40625 18.265625 45.40625 27.984375 
z
M 54.390625 6.78125 
Q 54.390625 -7.171875 48.1875 -13.984375 
Q 42 -20.796875 29.203125 -20.796875 
Q 24.46875 -20.796875 20.265625 -20.09375 
Q 16.0625 -19.390625 12.109375 -17.921875 
L 12.109375 -9.1875 
Q 16.0625 -11.328125 19.921875 -12.34375 
Q 23.78125 -13.375 27.78125 -13.375 
Q 36.625 -13.375 41.015625 -8.765625 
Q 45.40625 -4.15625 45.40625 5.171875 
L 45.40625 9.625 
Q 42.625 4.78125 38.28125 2.390625 
Q 33.9375 0 27.875 0 
Q 17.828125 0 11.671875 7.65625 
Q 5.515625 15.328125 5.515625 27.984375 
Q 5.515625 40.671875 11.671875 48.328125 
Q 17.828125 56 27.875 56 
Q 33.9375 56 38.28125 53.609375 
Q 42.625 51.21875 45.40625 46.390625 
L 45.40625 54.6875 
L 54.390625 54.6875 
z
" id="DejaVuSans-103"/>
     <path d="M 34.28125 27.484375 
Q 23.390625 27.484375 19.1875 25 
Q 14.984375 22.515625 14.984375 16.5 
Q 14.984375 11.71875 18.140625 8.90625 
Q 21.296875 6.109375 26.703125 6.109375 
Q 34.1875 6.109375 38.703125 11.40625 
Q 43.21875 16.703125 43.21875 25.484375 
L 43.21875 27.484375 
z
M 52.203125 31.203125 
L 52.203125 0 
L 43.21875 0 
L 43.21875 8.296875 
Q 40.140625 3.328125 35.546875 0.953125 
Q 30.953125 -1.421875 24.3125 -1.421875 
Q 15.921875 -1.421875 10.953125 3.296875 
Q 6 8.015625 6 15.921875 
Q 6 25.140625 12.171875 29.828125 
Q 18.359375 34.515625 30.609375 34.515625 
L 43.21875 34.515625 
L 43.21875 35.40625 
Q 43.21875 41.609375 39.140625 45 
Q 35.0625 48.390625 27.6875 48.390625 
Q 23 48.390625 18.546875 47.265625 
Q 14.109375 46.140625 10.015625 43.890625 
L 10.015625 52.203125 
Q 14.9375 54.109375 19.578125 55.046875 
Q 24.21875 56 28.609375 56 
Q 40.484375 56 46.34375 49.84375 
Q 52.203125 43.703125 52.203125 31.203125 
z
" id="DejaVuSans-97"/>
     <path d="M 9.421875 75.984375 
L 18.40625 75.984375 
L 18.40625 0 
L 9.421875 0 
z
" id="DejaVuSans-108"/>
    </defs>
    <g transform="translate(202.624943 80.4)scale(0.12 -0.12)">
     <use xlink:href="#DejaVuSans-68"/>
     <use x="77.001953" xlink:href="#DejaVuSans-111"/>
     <use x="138.183594" xlink:href="#DejaVuSans-110"/>
     <use x="201.5625" xlink:href="#DejaVuSans-110"/>
     <use x="264.941406" xlink:href="#DejaVuSans-233"/>
     <use x="326.464844" xlink:href="#DejaVuSans-101"/>
     <use x="387.988281" xlink:href="#DejaVuSans-115"/>
     <use x="440.087891" xlink:href="#DejaVuSans-32"/>
     <use x="471.875" xlink:href="#DejaVuSans-111"/>
     <use x="533.056641" xlink:href="#DejaVuSans-114"/>
     <use x="574.169922" xlink:href="#DejaVuSans-105"/>
     <use x="601.953125" xlink:href="#DejaVuSans-103"/>
     <use x="665.429688" xlink:href="#DejaVuSans-105"/>
     <use x="693.212891" xlink:href="#DejaVuSans-110"/>
     <use x="756.591797" xlink:href="#DejaVuSans-97"/>
     <use x="817.871094" xlink:href="#DejaVuSans-108"/>
     <use x="845.654297" xlink:href="#DejaVuSans-101"/>
     <use x="907.177734" xlink:href="#DejaVuSans-115"/>
    </g>
   </g>
   <g id="legend_1">
    <g id="patch_7">
     <path d="M 115 109.478125 
L 247.296875 109.478125 
Q 249.296875 109.478125 249.296875 107.478125 
L 249.296875 93.4 
Q 249.296875 91.4 247.296875 91.4 
L 115 91.4 
Q 113 91.4 113 93.4 
L 113 107.478125 
Q 113 109.478125 115 109.478125 
z
" style="fill:#ffffff;opacity:0.8;stroke:#cccccc;stroke-linejoin:miter;"/>
    </g>
    <g id="line2d_17">
     <path d="M 117 99.898438 
L 137 99.898438 
" style="fill:none;stroke:#000000;stroke-linecap:square;"/>
    </g>
    <g id="line2d_18"/>
    <g id="text_11">
     <!-- Modèle quadratique -->
     <defs>
      <path d="M 9.8125 72.90625 
L 24.515625 72.90625 
L 43.109375 23.296875 
L 61.8125 72.90625 
L 76.515625 72.90625 
L 76.515625 0 
L 66.890625 0 
L 66.890625 64.015625 
L 48.09375 14.015625 
L 38.1875 14.015625 
L 19.390625 64.015625 
L 19.390625 0 
L 9.8125 0 
z
" id="DejaVuSans-77"/>
      <path d="M 45.40625 46.390625 
L 45.40625 75.984375 
L 54.390625 75.984375 
L 54.390625 0 
L 45.40625 0 
L 45.40625 8.203125 
Q 42.578125 3.328125 38.25 0.953125 
Q 33.9375 -1.421875 27.875 -1.421875 
Q 17.96875 -1.421875 11.734375 6.484375 
Q 5.515625 14.40625 5.515625 27.296875 
Q 5.515625 40.1875 11.734375 48.09375 
Q 17.96875 56 27.875 56 
Q 33.9375 56 38.25 53.625 
Q 42.578125 51.265625 45.40625 46.390625 
z
M 14.796875 27.296875 
Q 14.796875 17.390625 18.875 11.75 
Q 22.953125 6.109375 30.078125 6.109375 
Q 37.203125 6.109375 41.296875 11.75 
Q 45.40625 17.390625 45.40625 27.296875 
Q 45.40625 37.203125 41.296875 42.84375 
Q 37.203125 48.484375 30.078125 48.484375 
Q 22.953125 48.484375 18.875 42.84375 
Q 14.796875 37.203125 14.796875 27.296875 
z
" id="DejaVuSans-100"/>
      <path d="M 56.203125 29.59375 
L 56.203125 25.203125 
L 14.890625 25.203125 
Q 15.484375 15.921875 20.484375 11.0625 
Q 25.484375 6.203125 34.421875 6.203125 
Q 39.59375 6.203125 44.453125 7.46875 
Q 49.3125 8.734375 54.109375 11.28125 
L 54.109375 2.78125 
Q 49.265625 0.734375 44.1875 -0.34375 
Q 39.109375 -1.421875 33.890625 -1.421875 
Q 20.796875 -1.421875 13.15625 6.1875 
Q 5.515625 13.8125 5.515625 26.8125 
Q 5.515625 40.234375 12.765625 48.109375 
Q 20.015625 56 32.328125 56 
Q 43.359375 56 49.78125 48.890625 
Q 56.203125 41.796875 56.203125 29.59375 
z
M 47.21875 32.234375 
Q 47.125 39.59375 43.09375 43.984375 
Q 39.0625 48.390625 32.421875 48.390625 
Q 24.90625 48.390625 20.390625 44.140625 
Q 15.875 39.890625 15.1875 32.171875 
z
M 24.703125 79.984375 
L 38.484375 61.71875 
L 31 61.71875 
L 15.09375 79.984375 
z
" id="DejaVuSans-232"/>
      <path d="M 14.796875 27.296875 
Q 14.796875 17.390625 18.875 11.75 
Q 22.953125 6.109375 30.078125 6.109375 
Q 37.203125 6.109375 41.296875 11.75 
Q 45.40625 17.390625 45.40625 27.296875 
Q 45.40625 37.203125 41.296875 42.84375 
Q 37.203125 48.484375 30.078125 48.484375 
Q 22.953125 48.484375 18.875 42.84375 
Q 14.796875 37.203125 14.796875 27.296875 
z
M 45.40625 8.203125 
Q 42.578125 3.328125 38.25 0.953125 
Q 33.9375 -1.421875 27.875 -1.421875 
Q 17.96875 -1.421875 11.734375 6.484375 
Q 5.515625 14.40625 5.515625 27.296875 
Q 5.515625 40.1875 11.734375 48.09375 
Q 17.96875 56 27.875 56 
Q 33.9375 56 38.25 53.625 
Q 42.578125 51.265625 45.40625 46.390625 
L 45.40625 54.6875 
L 54.390625 54.6875 
L 54.390625 -20.796875 
L 45.40625 -20.796875 
z
" id="DejaVuSans-113"/>
      <path d="M 8.5 21.578125 
L 8.5 54.6875 
L 17.484375 54.6875 
L 17.484375 21.921875 
Q 17.484375 14.15625 20.5 10.265625 
Q 23.53125 6.390625 29.59375 6.390625 
Q 36.859375 6.390625 41.078125 11.03125 
Q 45.3125 15.671875 45.3125 23.6875 
L 45.3125 54.6875 
L 54.296875 54.6875 
L 54.296875 0 
L 45.3125 0 
L 45.3125 8.40625 
Q 42.046875 3.421875 37.71875 1 
Q 33.40625 -1.421875 27.6875 -1.421875 
Q 18.265625 -1.421875 13.375 4.4375 
Q 8.5 10.296875 8.5 21.578125 
z
M 31.109375 56 
z
" id="DejaVuSans-117"/>
      <path d="M 18.3125 70.21875 
L 18.3125 54.6875 
L 36.8125 54.6875 
L 36.8125 47.703125 
L 18.3125 47.703125 
L 18.3125 18.015625 
Q 18.3125 11.328125 20.140625 9.421875 
Q 21.96875 7.515625 27.59375 7.515625 
L 36.8125 7.515625 
L 36.8125 0 
L 27.59375 0 
Q 17.1875 0 13.234375 3.875 
Q 9.28125 7.765625 9.28125 18.015625 
L 9.28125 47.703125 
L 2.6875 47.703125 
L 2.6875 54.6875 
L 9.28125 54.6875 
L 9.28125 70.21875 
z
" id="DejaVuSans-116"/>
     </defs>
     <g transform="translate(145 103.398438)scale(0.1 -0.1)">
      <use xlink:href="#DejaVuSans-77"/>
      <use x="86.279297" xlink:href="#DejaVuSans-111"/>
      <use x="147.460938" xlink:href="#DejaVuSans-100"/>
      <use x="210.9375" xlink:href="#DejaVuSans-232"/>
      <use x="272.460938" xlink:href="#DejaVuSans-108"/>
      <use x="300.244141" xlink:href="#DejaVuSans-101"/>
      <use x="361.767578" xlink:href="#DejaVuSans-32"/>
      <use x="393.554688" xlink:href="#DejaVuSans-113"/>
      <use x="457.03125" xlink:href="#DejaVuSans-117"/>
      <use x="520.410156" xlink:href="#DejaVuSans-97"/>
      <use x="581.689453" xlink:href="#DejaVuSans-100"/>
      <use x="645.166016" xlink:href="#DejaVuSans-114"/>
      <use x="686.279297" xlink:href="#DejaVuSans-97"/>
      <use x="747.558594" xlink:href="#DejaVuSans-116"/>
      <use x="786.767578" xlink:href="#DejaVuSans-105"/>
      <use x="814.550781" xlink:href="#DejaVuSans-113"/>
      <use x="878.027344" xlink:href="#DejaVuSans-117"/>
      <use x="941.40625" xlink:href="#DejaVuSans-101"/>
     </g>
    </g>
   </g>
  </g>
  <g id="axes_2">
   <g id="patch_8">
    <path d="M 473.236364 333.490909 
L 777.6 333.490909 
L 777.6 86.4 
L 473.236364 86.4 
z
" style="fill:#bbbbff;"/>
   </g>
   <g id="matplotlib.axis_3">
    <g id="xtick_8">
     <g id="line2d_19">
      <g>
       <use style="stroke:#000000;stroke-width:0.8;" x="496.648951" xlink:href="#mbac1c39e1f" y="333.490909"/>
      </g>
     </g>
    </g>
    <g id="xtick_9">
     <g id="line2d_20">
      <g>
       <use style="stroke:#000000;stroke-width:0.8;" x="543.474126" xlink:href="#mbac1c39e1f" y="333.490909"/>
      </g>
     </g>
    </g>
    <g id="xtick_10">
     <g id="line2d_21">
      <g>
       <use style="stroke:#000000;stroke-width:0.8;" x="590.299301" xlink:href="#mbac1c39e1f" y="333.490909"/>
      </g>
     </g>
    </g>
    <g id="xtick_11">
     <g id="line2d_22">
      <g>
       <use style="stroke:#000000;stroke-width:0.8;" x="637.124476" xlink:href="#mbac1c39e1f" y="333.490909"/>
      </g>
     </g>
    </g>
    <g id="xtick_12">
     <g id="line2d_23">
      <g>
       <use style="stroke:#000000;stroke-width:0.8;" x="683.94965" xlink:href="#mbac1c39e1f" y="333.490909"/>
      </g>
     </g>
    </g>
    <g id="xtick_13">
     <g id="line2d_24">
      <g>
       <use style="stroke:#000000;stroke-width:0.8;" x="730.774825" xlink:href="#mbac1c39e1f" y="333.490909"/>
      </g>
     </g>
    </g>
    <g id="xtick_14">
     <g id="line2d_25">
      <g>
       <use style="stroke:#000000;stroke-width:0.8;" x="777.6" xlink:href="#mbac1c39e1f" y="333.490909"/>
      </g>
     </g>
    </g>
    <g id="text_12">
     <!-- x -->
     <g transform="translate(620.091307 359.522642)scale(0.18 -0.18)">
      <use xlink:href="#DejaVuSans-120"/>
     </g>
    </g>
   </g>
   <g id="matplotlib.axis_4">
    <g id="ytick_8">
     <g id="line2d_26">
      <g>
       <use style="stroke:#000000;stroke-width:0.8;" x="473.236364" xlink:href="#m004beb7011" y="333.490909"/>
      </g>
     </g>
    </g>
    <g id="ytick_9">
     <g id="line2d_27">
      <g>
       <use style="stroke:#000000;stroke-width:0.8;" x="473.236364" xlink:href="#m004beb7011" y="292.309091"/>
      </g>
     </g>
    </g>
    <g id="ytick_10">
     <g id="line2d_28">
      <g>
       <use style="stroke:#000000;stroke-width:0.8;" x="473.236364" xlink:href="#m004beb7011" y="251.127273"/>
      </g>
     </g>
    </g>
    <g id="ytick_11">
     <g id="line2d_29">
      <g>
       <use style="stroke:#000000;stroke-width:0.8;" x="473.236364" xlink:href="#m004beb7011" y="209.945455"/>
      </g>
     </g>
    </g>
    <g id="ytick_12">
     <g id="line2d_30">
      <g>
       <use style="stroke:#000000;stroke-width:0.8;" x="473.236364" xlink:href="#m004beb7011" y="168.763636"/>
      </g>
     </g>
    </g>
    <g id="ytick_13">
     <g id="line2d_31">
      <g>
       <use style="stroke:#000000;stroke-width:0.8;" x="473.236364" xlink:href="#m004beb7011" y="127.581818"/>
      </g>
     </g>
    </g>
    <g id="ytick_14">
     <g id="line2d_32">
      <g>
       <use style="stroke:#000000;stroke-width:0.8;" x="473.236364" xlink:href="#m004beb7011" y="86.4"/>
      </g>
     </g>
    </g>
    <g id="text_13">
     <!-- y -->
     <g transform="translate(437.473125 206.202017)scale(0.18 -0.18)">
      <use xlink:href="#DejaVuSans-121"/>
     </g>
    </g>
   </g>
   <g id="line2d_33">
    <path clip-path="url(#pf4fa5d0228)" d="M 484.942657 305.178409 
L 487.898792 304.898727 
L 490.854927 304.579653 
L 493.811062 304.221187 
L 496.767196 303.823329 
L 499.723331 303.38608 
L 502.679466 302.909438 
L 505.635601 302.393405 
L 508.591736 301.83798 
L 511.54787 301.243163 
L 514.504005 300.608954 
L 517.46014 299.935354 
L 520.416275 299.222361 
L 523.372409 298.469977 
L 526.328544 297.6782 
L 529.284679 296.847032 
L 532.240814 295.976472 
L 535.196949 295.066521 
L 538.153083 294.117177 
L 541.109218 293.128441 
L 544.065353 292.100314 
L 547.021488 291.032795 
L 549.977622 289.925884 
L 552.933757 288.779581 
L 555.889892 287.593886 
L 558.846027 286.3688 
L 561.802161 285.104321 
L 564.758296 283.800451 
L 567.714431 282.457189 
L 570.670566 281.074535 
L 573.626701 279.652489 
L 576.582835 278.191051 
L 579.53897 276.690221 
L 582.495105 275.15 
L 585.45124 273.570387 
L 588.407374 271.951382 
L 591.363509 270.292985 
L 594.319644 268.595196 
L 597.275779 266.858015 
L 600.231914 265.081443 
L 603.188048 263.265478 
L 606.144183 261.410122 
L 609.100318 259.515374 
L 612.056453 257.581234 
L 615.012587 255.607702 
L 617.968722 253.594778 
L 620.924857 251.542463 
L 623.880992 249.450755 
L 626.837127 247.319656 
L 629.793261 245.149165 
L 632.749396 242.939282 
L 635.705531 240.690008 
L 638.661666 238.401341 
L 641.6178 236.073282 
L 644.573935 233.705832 
L 647.53007 231.29899 
L 650.486205 228.852756 
L 653.442339 226.36713 
L 656.398474 223.842112 
L 659.354609 221.277703 
L 662.310744 218.673901 
L 665.266879 216.030708 
L 668.223013 213.348123 
L 671.179148 210.626146 
L 674.135283 207.864777 
L 677.091418 205.064016 
L 680.047552 202.223864 
L 683.003687 199.344319 
L 685.959822 196.425383 
L 688.915957 193.467055 
L 691.872092 190.469335 
L 694.828226 187.432223 
L 697.784361 184.355719 
L 700.740496 181.239824 
L 703.696631 178.084536 
L 706.652765 174.889857 
L 709.6089 171.655786 
L 712.565035 168.382323 
L 715.52117 165.069468 
L 718.477305 161.717222 
L 721.433439 158.325583 
L 724.389574 154.894553 
L 727.345709 151.424131 
L 730.301844 147.914317 
L 733.257978 144.365111 
L 736.214113 140.776513 
L 739.170248 137.148523 
L 742.126383 133.481142 
L 745.082517 129.774369 
L 748.038652 126.028204 
L 750.994787 122.242647 
L 753.950922 118.417698 
L 756.907057 114.553357 
L 759.863191 110.649624 
L 762.819326 106.7065 
L 765.775461 102.723984 
L 768.731596 98.702076 
L 771.68773 94.640776 
L 774.643865 90.540084 
L 777.6 86.4 
" style="fill:none;stroke:#000000;stroke-linecap:square;"/>
   </g>
   <g id="line2d_34">
    <path clip-path="url(#pf4fa5d0228)" d="M 484.942657 335.287536 
L 487.898792 333.148428 
L 490.854927 331.009319 
L 493.811062 328.870211 
L 496.767196 326.731102 
L 499.723331 324.591993 
L 502.679466 322.452885 
L 505.635601 320.313776 
L 508.591736 318.174668 
L 511.54787 316.035559 
L 514.504005 313.896451 
L 517.46014 311.757342 
L 520.416275 309.618234 
L 523.372409 307.479125 
L 526.328544 305.340016 
L 529.284679 303.200908 
L 532.240814 301.061799 
L 535.196949 298.922691 
L 538.153083 296.783582 
L 541.109218 294.644474 
L 544.065353 292.505365 
L 547.021488 290.366257 
L 549.977622 288.227148 
L 552.933757 286.088039 
L 555.889892 283.948931 
L 558.846027 281.809822 
L 561.802161 279.670714 
L 564.758296 277.531605 
L 567.714431 275.392497 
L 570.670566 273.253388 
L 573.626701 271.11428 
L 576.582835 268.975171 
L 579.53897 266.836062 
L 582.495105 264.696954 
L 585.45124 262.557845 
L 588.407374 260.418737 
L 591.363509 258.279628 
L 594.319644 256.14052 
L 597.275779 254.001411 
L 600.231914 251.862303 
L 603.188048 249.723194 
L 606.144183 247.584085 
L 609.100318 245.444977 
L 612.056453 243.305868 
L 615.012587 241.16676 
L 617.968722 239.027651 
L 620.924857 236.888543 
L 623.880992 234.749434 
L 626.837127 232.610326 
L 629.793261 230.471217 
L 632.749396 228.332108 
L 635.705531 226.193 
L 638.661666 224.053891 
L 641.6178 221.914783 
L 644.573935 219.775674 
L 647.53007 217.636566 
L 650.486205 215.497457 
L 653.442339 213.358349 
L 656.398474 211.21924 
L 659.354609 209.080131 
L 662.310744 206.941023 
L 665.266879 204.801914 
L 668.223013 202.662806 
L 671.179148 200.523697 
L 674.135283 198.384589 
L 677.091418 196.24548 
L 680.047552 194.106372 
L 683.003687 191.967263 
L 685.959822 189.828154 
L 688.915957 187.689046 
L 691.872092 185.549937 
L 694.828226 183.410829 
L 697.784361 181.27172 
L 700.740496 179.132612 
L 703.696631 176.993503 
L 706.652765 174.854395 
L 709.6089 172.715286 
L 712.565035 170.576177 
L 715.52117 168.437069 
L 718.477305 166.29796 
L 721.433439 164.158852 
L 724.389574 162.019743 
L 727.345709 159.880635 
L 730.301844 157.741526 
L 733.257978 155.602418 
L 736.214113 153.463309 
L 739.170248 151.3242 
L 742.126383 149.185092 
L 745.082517 147.045983 
L 748.038652 144.906875 
L 750.994787 142.767766 
L 753.950922 140.628658 
L 756.907057 138.489549 
L 759.863191 136.350441 
L 762.819326 134.211332 
L 765.775461 132.072223 
L 768.731596 129.933115 
L 771.68773 127.794006 
L 774.643865 125.654898 
L 777.6 123.515789 
" style="fill:none;stroke:#ff0000;stroke-linecap:square;stroke-width:3;"/>
   </g>
   <g id="line2d_35">
    <g clip-path="url(#pf4fa5d0228)">
     <use style="stroke:#000000;" x="518.614221" xlink:href="#m636285e561" y="303.544172"/>
     <use style="stroke:#000000;" x="663.190452" xlink:href="#m636285e561" y="217.552124"/>
     <use style="stroke:#000000;" x="523.980502" xlink:href="#m636285e561" y="303.83081"/>
     <use style="stroke:#000000;" x="555.352976" xlink:href="#m636285e561" y="275.528447"/>
     <use style="stroke:#000000;" x="580.682304" xlink:href="#m636285e561" y="281.298213"/>
     <use style="stroke:#000000;" x="736.375552" xlink:href="#m636285e561" y="134.184913"/>
     <use style="stroke:#000000;" x="679.878849" xlink:href="#m636285e561" y="206.248216"/>
    </g>
   </g>
   <g id="patch_9">
    <path d="M 473.236364 333.490909 
L 473.236364 86.4 
" style="fill:none;stroke:#000000;stroke-linecap:square;stroke-linejoin:miter;stroke-width:0.8;"/>
   </g>
   <g id="patch_10">
    <path d="M 777.6 333.490909 
L 777.6 86.4 
" style="fill:none;stroke:#000000;stroke-linecap:square;stroke-linejoin:miter;stroke-width:0.8;"/>
   </g>
   <g id="patch_11">
    <path d="M 473.236364 333.490909 
L 777.6 333.490909 
" style="fill:none;stroke:#000000;stroke-linecap:square;stroke-linejoin:miter;stroke-width:0.8;"/>
   </g>
   <g id="patch_12">
    <path d="M 473.236364 86.4 
L 777.6 86.4 
" style="fill:none;stroke:#000000;stroke-linecap:square;stroke-linejoin:miter;stroke-width:0.8;"/>
   </g>
   <g id="text_14">
    <!-- Sous-apprentissage (Underfitting) -->
    <defs>
     <path d="M 53.515625 70.515625 
L 53.515625 60.890625 
Q 47.90625 63.578125 42.921875 64.890625 
Q 37.9375 66.21875 33.296875 66.21875 
Q 25.25 66.21875 20.875 63.09375 
Q 16.5 59.96875 16.5 54.203125 
Q 16.5 49.359375 19.40625 46.890625 
Q 22.3125 44.4375 30.421875 42.921875 
L 36.375 41.703125 
Q 47.40625 39.59375 52.65625 34.296875 
Q 57.90625 29 57.90625 20.125 
Q 57.90625 9.515625 50.796875 4.046875 
Q 43.703125 -1.421875 29.984375 -1.421875 
Q 24.8125 -1.421875 18.96875 -0.25 
Q 13.140625 0.921875 6.890625 3.21875 
L 6.890625 13.375 
Q 12.890625 10.015625 18.65625 8.296875 
Q 24.421875 6.59375 29.984375 6.59375 
Q 38.421875 6.59375 43.015625 9.90625 
Q 47.609375 13.234375 47.609375 19.390625 
Q 47.609375 24.75 44.3125 27.78125 
Q 41.015625 30.8125 33.5 32.328125 
L 27.484375 33.5 
Q 16.453125 35.6875 11.515625 40.375 
Q 6.59375 45.0625 6.59375 53.421875 
Q 6.59375 63.09375 13.40625 68.65625 
Q 20.21875 74.21875 32.171875 74.21875 
Q 37.3125 74.21875 42.625 73.28125 
Q 47.953125 72.359375 53.515625 70.515625 
z
" id="DejaVuSans-83"/>
     <path d="M 4.890625 31.390625 
L 31.203125 31.390625 
L 31.203125 23.390625 
L 4.890625 23.390625 
z
" id="DejaVuSans-45"/>
     <path d="M 18.109375 8.203125 
L 18.109375 -20.796875 
L 9.078125 -20.796875 
L 9.078125 54.6875 
L 18.109375 54.6875 
L 18.109375 46.390625 
Q 20.953125 51.265625 25.265625 53.625 
Q 29.59375 56 35.59375 56 
Q 45.5625 56 51.78125 48.09375 
Q 58.015625 40.1875 58.015625 27.296875 
Q 58.015625 14.40625 51.78125 6.484375 
Q 45.5625 -1.421875 35.59375 -1.421875 
Q 29.59375 -1.421875 25.265625 0.953125 
Q 20.953125 3.328125 18.109375 8.203125 
z
M 48.6875 27.296875 
Q 48.6875 37.203125 44.609375 42.84375 
Q 40.53125 48.484375 33.40625 48.484375 
Q 26.265625 48.484375 22.1875 42.84375 
Q 18.109375 37.203125 18.109375 27.296875 
Q 18.109375 17.390625 22.1875 11.75 
Q 26.265625 6.109375 33.40625 6.109375 
Q 40.53125 6.109375 44.609375 11.75 
Q 48.6875 17.390625 48.6875 27.296875 
z
" id="DejaVuSans-112"/>
     <path d="M 31 75.875 
Q 24.46875 64.65625 21.28125 53.65625 
Q 18.109375 42.671875 18.109375 31.390625 
Q 18.109375 20.125 21.3125 9.0625 
Q 24.515625 -2 31 -13.1875 
L 23.1875 -13.1875 
Q 15.875 -1.703125 12.234375 9.375 
Q 8.59375 20.453125 8.59375 31.390625 
Q 8.59375 42.28125 12.203125 53.3125 
Q 15.828125 64.359375 23.1875 75.875 
z
" id="DejaVuSans-40"/>
     <path d="M 8.6875 72.90625 
L 18.609375 72.90625 
L 18.609375 28.609375 
Q 18.609375 16.890625 22.84375 11.734375 
Q 27.09375 6.59375 36.625 6.59375 
Q 46.09375 6.59375 50.34375 11.734375 
Q 54.59375 16.890625 54.59375 28.609375 
L 54.59375 72.90625 
L 64.5 72.90625 
L 64.5 27.390625 
Q 64.5 13.140625 57.4375 5.859375 
Q 50.390625 -1.421875 36.625 -1.421875 
Q 22.796875 -1.421875 15.734375 5.859375 
Q 8.6875 13.140625 8.6875 27.390625 
z
" id="DejaVuSans-85"/>
     <path d="M 37.109375 75.984375 
L 37.109375 68.5 
L 28.515625 68.5 
Q 23.6875 68.5 21.796875 66.546875 
Q 19.921875 64.59375 19.921875 59.515625 
L 19.921875 54.6875 
L 34.71875 54.6875 
L 34.71875 47.703125 
L 19.921875 47.703125 
L 19.921875 0 
L 10.890625 0 
L 10.890625 47.703125 
L 2.296875 47.703125 
L 2.296875 54.6875 
L 10.890625 54.6875 
L 10.890625 58.5 
Q 10.890625 67.625 15.140625 71.796875 
Q 19.390625 75.984375 28.609375 75.984375 
z
" id="DejaVuSans-102"/>
     <path d="M 8.015625 75.875 
L 15.828125 75.875 
Q 23.140625 64.359375 26.78125 53.3125 
Q 30.421875 42.28125 30.421875 31.390625 
Q 30.421875 20.453125 26.78125 9.375 
Q 23.140625 -1.703125 15.828125 -13.1875 
L 8.015625 -13.1875 
Q 14.5 -2 17.703125 9.0625 
Q 20.90625 20.125 20.90625 31.390625 
Q 20.90625 42.671875 17.703125 53.65625 
Q 14.5 64.65625 8.015625 75.875 
z
" id="DejaVuSans-41"/>
    </defs>
    <g transform="translate(602.005594 325.254545)scale(0.1 -0.1)">
     <use xlink:href="#DejaVuSans-83"/>
     <use x="63.476562" xlink:href="#DejaVuSans-111"/>
     <use x="124.658203" xlink:href="#DejaVuSans-117"/>
     <use x="188.037109" xlink:href="#DejaVuSans-115"/>
     <use x="240.136719" xlink:href="#DejaVuSans-45"/>
     <use x="276.220703" xlink:href="#DejaVuSans-97"/>
     <use x="337.5" xlink:href="#DejaVuSans-112"/>
     <use x="400.976562" xlink:href="#DejaVuSans-112"/>
     <use x="464.453125" xlink:href="#DejaVuSans-114"/>
     <use x="505.535156" xlink:href="#DejaVuSans-101"/>
     <use x="567.058594" xlink:href="#DejaVuSans-110"/>
     <use x="630.4375" xlink:href="#DejaVuSans-116"/>
     <use x="669.646484" xlink:href="#DejaVuSans-105"/>
     <use x="697.429688" xlink:href="#DejaVuSans-115"/>
     <use x="749.529297" xlink:href="#DejaVuSans-115"/>
     <use x="801.628906" xlink:href="#DejaVuSans-97"/>
     <use x="862.908203" xlink:href="#DejaVuSans-103"/>
     <use x="926.384766" xlink:href="#DejaVuSans-101"/>
     <use x="987.908203" xlink:href="#DejaVuSans-32"/>
     <use x="1019.695312" xlink:href="#DejaVuSans-40"/>
     <use x="1058.708984" xlink:href="#DejaVuSans-85"/>
     <use x="1131.902344" xlink:href="#DejaVuSans-110"/>
     <use x="1195.28125" xlink:href="#DejaVuSans-100"/>
     <use x="1258.757812" xlink:href="#DejaVuSans-101"/>
     <use x="1320.28125" xlink:href="#DejaVuSans-114"/>
     <use x="1361.394531" xlink:href="#DejaVuSans-102"/>
     <use x="1396.599609" xlink:href="#DejaVuSans-105"/>
     <use x="1424.382812" xlink:href="#DejaVuSans-116"/>
     <use x="1463.591797" xlink:href="#DejaVuSans-116"/>
     <use x="1502.800781" xlink:href="#DejaVuSans-105"/>
     <use x="1530.583984" xlink:href="#DejaVuSans-110"/>
     <use x="1593.962891" xlink:href="#DejaVuSans-103"/>
     <use x="1657.439453" xlink:href="#DejaVuSans-41"/>
    </g>
   </g>
   <g id="legend_2">
    <g id="patch_13">
     <path d="M 480.236364 124.15625 
L 610.080114 124.15625 
Q 612.080114 124.15625 612.080114 122.15625 
L 612.080114 93.4 
Q 612.080114 91.4 610.080114 91.4 
L 480.236364 91.4 
Q 478.236364 91.4 478.236364 93.4 
L 478.236364 122.15625 
Q 478.236364 124.15625 480.236364 124.15625 
z
" style="fill:#ffffff;opacity:0.8;stroke:#cccccc;stroke-linejoin:miter;"/>
    </g>
    <g id="line2d_36">
     <path d="M 482.236364 99.498438 
L 502.236364 99.498438 
" style="fill:none;stroke:#000000;stroke-linecap:square;"/>
    </g>
    <g id="line2d_37"/>
    <g id="text_15">
     <!-- Modèle -->
     <g transform="translate(510.236364 102.998438)scale(0.1 -0.1)">
      <use xlink:href="#DejaVuSans-77"/>
      <use x="86.279297" xlink:href="#DejaVuSans-111"/>
      <use x="147.460938" xlink:href="#DejaVuSans-100"/>
      <use x="210.9375" xlink:href="#DejaVuSans-232"/>
      <use x="272.460938" xlink:href="#DejaVuSans-108"/>
      <use x="300.244141" xlink:href="#DejaVuSans-101"/>
     </g>
    </g>
    <g id="line2d_38">
     <path d="M 482.236364 114.576563 
L 502.236364 114.576563 
" style="fill:none;stroke:#ff0000;stroke-linecap:square;stroke-width:3;"/>
    </g>
    <g id="line2d_39"/>
    <g id="text_16">
     <!-- Polynôme d'ordre 1 -->
     <defs>
      <path d="M 19.671875 64.796875 
L 19.671875 37.40625 
L 32.078125 37.40625 
Q 38.96875 37.40625 42.71875 40.96875 
Q 46.484375 44.53125 46.484375 51.125 
Q 46.484375 57.671875 42.71875 61.234375 
Q 38.96875 64.796875 32.078125 64.796875 
z
M 9.8125 72.90625 
L 32.078125 72.90625 
Q 44.34375 72.90625 50.609375 67.359375 
Q 56.890625 61.8125 56.890625 51.125 
Q 56.890625 40.328125 50.609375 34.8125 
Q 44.34375 29.296875 32.078125 29.296875 
L 19.671875 29.296875 
L 19.671875 0 
L 9.8125 0 
z
" id="DejaVuSans-80"/>
      <path d="M 30.609375 48.390625 
Q 23.390625 48.390625 19.1875 42.75 
Q 14.984375 37.109375 14.984375 27.296875 
Q 14.984375 17.484375 19.15625 11.84375 
Q 23.34375 6.203125 30.609375 6.203125 
Q 37.796875 6.203125 41.984375 11.859375 
Q 46.1875 17.53125 46.1875 27.296875 
Q 46.1875 37.015625 41.984375 42.703125 
Q 37.796875 48.390625 30.609375 48.390625 
z
M 30.609375 56 
Q 42.328125 56 49.015625 48.375 
Q 55.71875 40.765625 55.71875 27.296875 
Q 55.71875 13.875 49.015625 6.21875 
Q 42.328125 -1.421875 30.609375 -1.421875 
Q 18.84375 -1.421875 12.171875 6.21875 
Q 5.515625 13.875 5.515625 27.296875 
Q 5.515625 40.765625 12.171875 48.375 
Q 18.84375 56 30.609375 56 
z
M 27 79.984375 
L 34.234375 79.984375 
L 46.1875 61.625 
L 39.40625 61.625 
L 30.609375 73.578125 
L 21.828125 61.625 
L 15.046875 61.625 
z
" id="DejaVuSans-244"/>
      <path d="M 52 44.1875 
Q 55.375 50.25 60.0625 53.125 
Q 64.75 56 71.09375 56 
Q 79.640625 56 84.28125 50.015625 
Q 88.921875 44.046875 88.921875 33.015625 
L 88.921875 0 
L 79.890625 0 
L 79.890625 32.71875 
Q 79.890625 40.578125 77.09375 44.375 
Q 74.3125 48.1875 68.609375 48.1875 
Q 61.625 48.1875 57.5625 43.546875 
Q 53.515625 38.921875 53.515625 30.90625 
L 53.515625 0 
L 44.484375 0 
L 44.484375 32.71875 
Q 44.484375 40.625 41.703125 44.40625 
Q 38.921875 48.1875 33.109375 48.1875 
Q 26.21875 48.1875 22.15625 43.53125 
Q 18.109375 38.875 18.109375 30.90625 
L 18.109375 0 
L 9.078125 0 
L 9.078125 54.6875 
L 18.109375 54.6875 
L 18.109375 46.1875 
Q 21.1875 51.21875 25.484375 53.609375 
Q 29.78125 56 35.6875 56 
Q 41.65625 56 45.828125 52.96875 
Q 50 49.953125 52 44.1875 
z
" id="DejaVuSans-109"/>
      <path d="M 17.921875 72.90625 
L 17.921875 45.796875 
L 9.625 45.796875 
L 9.625 72.90625 
z
" id="DejaVuSans-39"/>
     </defs>
     <g transform="translate(510.236364 118.076563)scale(0.1 -0.1)">
      <use xlink:href="#DejaVuSans-80"/>
      <use x="60.255859" xlink:href="#DejaVuSans-111"/>
      <use x="121.4375" xlink:href="#DejaVuSans-108"/>
      <use x="149.220703" xlink:href="#DejaVuSans-121"/>
      <use x="208.400391" xlink:href="#DejaVuSans-110"/>
      <use x="271.779297" xlink:href="#DejaVuSans-244"/>
      <use x="332.960938" xlink:href="#DejaVuSans-109"/>
      <use x="430.373047" xlink:href="#DejaVuSans-101"/>
      <use x="491.896484" xlink:href="#DejaVuSans-32"/>
      <use x="523.683594" xlink:href="#DejaVuSans-100"/>
      <use x="587.160156" xlink:href="#DejaVuSans-39"/>
      <use x="614.650391" xlink:href="#DejaVuSans-111"/>
      <use x="675.832031" xlink:href="#DejaVuSans-114"/>
      <use x="716.929688" xlink:href="#DejaVuSans-100"/>
      <use x="780.40625" xlink:href="#DejaVuSans-114"/>
      <use x="821.488281" xlink:href="#DejaVuSans-101"/>
      <use x="883.011719" xlink:href="#DejaVuSans-32"/>
      <use x="914.798828" xlink:href="#DejaVuSans-49"/>
     </g>
    </g>
   </g>
  </g>
  <g id="axes_3">
   <g id="patch_14">
    <path d="M 108 630 
L 412.363636 630 
L 412.363636 382.909091 
L 108 382.909091 
z
" style="fill:#bbbbff;"/>
   </g>
   <g id="matplotlib.axis_5">
    <g id="xtick_15">
     <g id="line2d_40">
      <g>
       <use style="stroke:#000000;stroke-width:0.8;" x="131.412587" xlink:href="#mbac1c39e1f" y="630"/>
      </g>
     </g>
     <g id="text_17">
      <!-- −2 -->
      <g transform="translate(124.041494 644.598437)scale(0.1 -0.1)">
       <use xlink:href="#DejaVuSans-8722"/>
       <use x="83.789062" xlink:href="#DejaVuSans-50"/>
      </g>
     </g>
    </g>
    <g id="xtick_16">
     <g id="line2d_41">
      <g>
       <use style="stroke:#000000;stroke-width:0.8;" x="178.237762" xlink:href="#mbac1c39e1f" y="630"/>
      </g>
     </g>
     <g id="text_18">
      <!-- 0 -->
      <g transform="translate(175.056512 644.598437)scale(0.1 -0.1)">
       <use xlink:href="#DejaVuSans-48"/>
      </g>
     </g>
    </g>
    <g id="xtick_17">
     <g id="line2d_42">
      <g>
       <use style="stroke:#000000;stroke-width:0.8;" x="225.062937" xlink:href="#mbac1c39e1f" y="630"/>
      </g>
     </g>
     <g id="text_19">
      <!-- 2 -->
      <g transform="translate(221.881687 644.598437)scale(0.1 -0.1)">
       <use xlink:href="#DejaVuSans-50"/>
      </g>
     </g>
    </g>
    <g id="xtick_18">
     <g id="line2d_43">
      <g>
       <use style="stroke:#000000;stroke-width:0.8;" x="271.888112" xlink:href="#mbac1c39e1f" y="630"/>
      </g>
     </g>
     <g id="text_20">
      <!-- 4 -->
      <defs>
       <path d="M 37.796875 64.3125 
L 12.890625 25.390625 
L 37.796875 25.390625 
z
M 35.203125 72.90625 
L 47.609375 72.90625 
L 47.609375 25.390625 
L 58.015625 25.390625 
L 58.015625 17.1875 
L 47.609375 17.1875 
L 47.609375 0 
L 37.796875 0 
L 37.796875 17.1875 
L 4.890625 17.1875 
L 4.890625 26.703125 
z
" id="DejaVuSans-52"/>
      </defs>
      <g transform="translate(268.706862 644.598437)scale(0.1 -0.1)">
       <use xlink:href="#DejaVuSans-52"/>
      </g>
     </g>
    </g>
    <g id="xtick_19">
     <g id="line2d_44">
      <g>
       <use style="stroke:#000000;stroke-width:0.8;" x="318.713287" xlink:href="#mbac1c39e1f" y="630"/>
      </g>
     </g>
     <g id="text_21">
      <!-- 6 -->
      <defs>
       <path d="M 33.015625 40.375 
Q 26.375 40.375 22.484375 35.828125 
Q 18.609375 31.296875 18.609375 23.390625 
Q 18.609375 15.53125 22.484375 10.953125 
Q 26.375 6.390625 33.015625 6.390625 
Q 39.65625 6.390625 43.53125 10.953125 
Q 47.40625 15.53125 47.40625 23.390625 
Q 47.40625 31.296875 43.53125 35.828125 
Q 39.65625 40.375 33.015625 40.375 
z
M 52.59375 71.296875 
L 52.59375 62.3125 
Q 48.875 64.0625 45.09375 64.984375 
Q 41.3125 65.921875 37.59375 65.921875 
Q 27.828125 65.921875 22.671875 59.328125 
Q 17.53125 52.734375 16.796875 39.40625 
Q 19.671875 43.65625 24.015625 45.921875 
Q 28.375 48.1875 33.59375 48.1875 
Q 44.578125 48.1875 50.953125 41.515625 
Q 57.328125 34.859375 57.328125 23.390625 
Q 57.328125 12.15625 50.6875 5.359375 
Q 44.046875 -1.421875 33.015625 -1.421875 
Q 20.359375 -1.421875 13.671875 8.265625 
Q 6.984375 17.96875 6.984375 36.375 
Q 6.984375 53.65625 15.1875 63.9375 
Q 23.390625 74.21875 37.203125 74.21875 
Q 40.921875 74.21875 44.703125 73.484375 
Q 48.484375 72.75 52.59375 71.296875 
z
" id="DejaVuSans-54"/>
      </defs>
      <g transform="translate(315.532037 644.598437)scale(0.1 -0.1)">
       <use xlink:href="#DejaVuSans-54"/>
      </g>
     </g>
    </g>
    <g id="xtick_20">
     <g id="line2d_45">
      <g>
       <use style="stroke:#000000;stroke-width:0.8;" x="365.538462" xlink:href="#mbac1c39e1f" y="630"/>
      </g>
     </g>
     <g id="text_22">
      <!-- 8 -->
      <defs>
       <path d="M 31.78125 34.625 
Q 24.75 34.625 20.71875 30.859375 
Q 16.703125 27.09375 16.703125 20.515625 
Q 16.703125 13.921875 20.71875 10.15625 
Q 24.75 6.390625 31.78125 6.390625 
Q 38.8125 6.390625 42.859375 10.171875 
Q 46.921875 13.96875 46.921875 20.515625 
Q 46.921875 27.09375 42.890625 30.859375 
Q 38.875 34.625 31.78125 34.625 
z
M 21.921875 38.8125 
Q 15.578125 40.375 12.03125 44.71875 
Q 8.5 49.078125 8.5 55.328125 
Q 8.5 64.0625 14.71875 69.140625 
Q 20.953125 74.21875 31.78125 74.21875 
Q 42.671875 74.21875 48.875 69.140625 
Q 55.078125 64.0625 55.078125 55.328125 
Q 55.078125 49.078125 51.53125 44.71875 
Q 48 40.375 41.703125 38.8125 
Q 48.828125 37.15625 52.796875 32.3125 
Q 56.78125 27.484375 56.78125 20.515625 
Q 56.78125 9.90625 50.3125 4.234375 
Q 43.84375 -1.421875 31.78125 -1.421875 
Q 19.734375 -1.421875 13.25 4.234375 
Q 6.78125 9.90625 6.78125 20.515625 
Q 6.78125 27.484375 10.78125 32.3125 
Q 14.796875 37.15625 21.921875 38.8125 
z
M 18.3125 54.390625 
Q 18.3125 48.734375 21.84375 45.5625 
Q 25.390625 42.390625 31.78125 42.390625 
Q 38.140625 42.390625 41.71875 45.5625 
Q 45.3125 48.734375 45.3125 54.390625 
Q 45.3125 60.0625 41.71875 63.234375 
Q 38.140625 66.40625 31.78125 66.40625 
Q 25.390625 66.40625 21.84375 63.234375 
Q 18.3125 60.0625 18.3125 54.390625 
z
" id="DejaVuSans-56"/>
      </defs>
      <g transform="translate(362.357212 644.598437)scale(0.1 -0.1)">
       <use xlink:href="#DejaVuSans-56"/>
      </g>
     </g>
    </g>
    <g id="xtick_21">
     <g id="line2d_46">
      <g>
       <use style="stroke:#000000;stroke-width:0.8;" x="412.363636" xlink:href="#mbac1c39e1f" y="630"/>
      </g>
     </g>
     <g id="text_23">
      <!-- 10 -->
      <g transform="translate(406.001136 644.598437)scale(0.1 -0.1)">
       <use xlink:href="#DejaVuSans-49"/>
       <use x="63.623047" xlink:href="#DejaVuSans-48"/>
      </g>
     </g>
    </g>
    <g id="text_24">
     <!-- x -->
     <g transform="translate(254.854943 668.386278)scale(0.18 -0.18)">
      <use xlink:href="#DejaVuSans-120"/>
     </g>
    </g>
   </g>
   <g id="matplotlib.axis_6">
    <g id="ytick_15">
     <g id="line2d_47">
      <g>
       <use style="stroke:#000000;stroke-width:0.8;" x="108" xlink:href="#m004beb7011" y="630"/>
      </g>
     </g>
     <g id="text_25">
      <!-- −3 -->
      <g transform="translate(86.257812 633.799219)scale(0.1 -0.1)">
       <use xlink:href="#DejaVuSans-8722"/>
       <use x="83.789062" xlink:href="#DejaVuSans-51"/>
      </g>
     </g>
    </g>
    <g id="ytick_16">
     <g id="line2d_48">
      <g>
       <use style="stroke:#000000;stroke-width:0.8;" x="108" xlink:href="#m004beb7011" y="588.818182"/>
      </g>
     </g>
     <g id="text_26">
      <!-- −2 -->
      <g transform="translate(86.257812 592.617401)scale(0.1 -0.1)">
       <use xlink:href="#DejaVuSans-8722"/>
       <use x="83.789062" xlink:href="#DejaVuSans-50"/>
      </g>
     </g>
    </g>
    <g id="ytick_17">
     <g id="line2d_49">
      <g>
       <use style="stroke:#000000;stroke-width:0.8;" x="108" xlink:href="#m004beb7011" y="547.636364"/>
      </g>
     </g>
     <g id="text_27">
      <!-- −1 -->
      <g transform="translate(86.257812 551.435582)scale(0.1 -0.1)">
       <use xlink:href="#DejaVuSans-8722"/>
       <use x="83.789062" xlink:href="#DejaVuSans-49"/>
      </g>
     </g>
    </g>
    <g id="ytick_18">
     <g id="line2d_50">
      <g>
       <use style="stroke:#000000;stroke-width:0.8;" x="108" xlink:href="#m004beb7011" y="506.454545"/>
      </g>
     </g>
     <g id="text_28">
      <!-- 0 -->
      <g transform="translate(94.6375 510.253764)scale(0.1 -0.1)">
       <use xlink:href="#DejaVuSans-48"/>
      </g>
     </g>
    </g>
    <g id="ytick_19">
     <g id="line2d_51">
      <g>
       <use style="stroke:#000000;stroke-width:0.8;" x="108" xlink:href="#m004beb7011" y="465.272727"/>
      </g>
     </g>
     <g id="text_29">
      <!-- 1 -->
      <g transform="translate(94.6375 469.071946)scale(0.1 -0.1)">
       <use xlink:href="#DejaVuSans-49"/>
      </g>
     </g>
    </g>
    <g id="ytick_20">
     <g id="line2d_52">
      <g>
       <use style="stroke:#000000;stroke-width:0.8;" x="108" xlink:href="#m004beb7011" y="424.090909"/>
      </g>
     </g>
     <g id="text_30">
      <!-- 2 -->
      <g transform="translate(94.6375 427.890128)scale(0.1 -0.1)">
       <use xlink:href="#DejaVuSans-50"/>
      </g>
     </g>
    </g>
    <g id="ytick_21">
     <g id="line2d_53">
      <g>
       <use style="stroke:#000000;stroke-width:0.8;" x="108" xlink:href="#m004beb7011" y="382.909091"/>
      </g>
     </g>
     <g id="text_31">
      <!-- 3 -->
      <g transform="translate(94.6375 386.70831)scale(0.1 -0.1)">
       <use xlink:href="#DejaVuSans-51"/>
      </g>
     </g>
    </g>
    <g id="text_32">
     <!-- y -->
     <g transform="translate(72.236761 502.711108)scale(0.18 -0.18)">
      <use xlink:href="#DejaVuSans-121"/>
     </g>
    </g>
   </g>
   <g id="line2d_54">
    <path clip-path="url(#pa7f1507549)" d="M 119.706294 601.6875 
L 122.662428 601.407818 
L 125.618563 601.088744 
L 128.574698 600.730278 
L 131.530833 600.33242 
L 134.486968 599.895171 
L 137.443102 599.418529 
L 140.399237 598.902496 
L 143.355372 598.347071 
L 146.311507 597.752254 
L 149.267641 597.118045 
L 152.223776 596.444444 
L 155.179911 595.731452 
L 158.136046 594.979068 
L 161.092181 594.187291 
L 164.048315 593.356123 
L 167.00445 592.485563 
L 169.960585 591.575611 
L 172.91672 590.626268 
L 175.872854 589.637532 
L 178.828989 588.609405 
L 181.785124 587.541886 
L 184.741259 586.434975 
L 187.697394 585.288672 
L 190.653528 584.102977 
L 193.609663 582.87789 
L 196.565798 581.613412 
L 199.521933 580.309542 
L 202.478067 578.96628 
L 205.434202 577.583626 
L 208.390337 576.16158 
L 211.346472 574.700142 
L 214.302606 573.199312 
L 217.258741 571.659091 
L 220.214876 570.079478 
L 223.171011 568.460472 
L 226.127146 566.802076 
L 229.08328 565.104287 
L 232.039415 563.367106 
L 234.99555 561.590533 
L 237.951685 559.774569 
L 240.907819 557.919213 
L 243.863954 556.024465 
L 246.820089 554.090325 
L 249.776224 552.116793 
L 252.732359 550.103869 
L 255.688493 548.051554 
L 258.644628 545.959846 
L 261.600763 543.828747 
L 264.556898 541.658256 
L 267.513032 539.448373 
L 270.469167 537.199098 
L 273.425302 534.910432 
L 276.381437 532.582373 
L 279.337572 530.214923 
L 282.293706 527.808081 
L 285.249841 525.361847 
L 288.205976 522.876221 
L 291.162111 520.351203 
L 294.118245 517.786794 
L 297.07438 515.182992 
L 300.030515 512.539799 
L 302.98665 509.857214 
L 305.942784 507.135237 
L 308.898919 504.373868 
L 311.855054 501.573107 
L 314.811189 498.732955 
L 317.767324 495.85341 
L 320.723458 492.934474 
L 323.679593 489.976146 
L 326.635728 486.978426 
L 329.591863 483.941314 
L 332.547997 480.86481 
L 335.504132 477.748915 
L 338.460267 474.593627 
L 341.416402 471.398948 
L 344.372537 468.164877 
L 347.328671 464.891414 
L 350.284806 461.578559 
L 353.240941 458.226313 
L 356.197076 454.834674 
L 359.15321 451.403644 
L 362.109345 447.933222 
L 365.06548 444.423408 
L 368.021615 440.874202 
L 370.97775 437.285604 
L 373.933884 433.657614 
L 376.890019 429.990233 
L 379.846154 426.28346 
L 382.802289 422.537294 
L 385.758423 418.751737 
L 388.714558 414.926789 
L 391.670693 411.062448 
L 394.626828 407.158715 
L 397.582962 403.215591 
L 400.539097 399.233075 
L 403.495232 395.211166 
L 406.451367 391.149866 
L 409.407502 387.049175 
L 412.363636 382.909091 
" style="fill:none;stroke:#000000;stroke-linecap:square;"/>
   </g>
   <g id="line2d_55">
    <path clip-path="url(#pa7f1507549)" d="M 119.706294 602.222395 
L 122.662428 602.004294 
L 125.618563 601.744155 
L 128.574698 601.441979 
L 131.530833 601.097765 
L 134.486968 600.711514 
L 137.443102 600.283225 
L 140.399237 599.812898 
L 143.355372 599.300534 
L 146.311507 598.746132 
L 149.267641 598.149693 
L 152.223776 597.511216 
L 155.179911 596.830701 
L 158.136046 596.108149 
L 161.092181 595.343559 
L 164.048315 594.536932 
L 167.00445 593.688267 
L 169.960585 592.797564 
L 172.91672 591.864824 
L 175.872854 590.890046 
L 178.828989 589.873231 
L 181.785124 588.814378 
L 184.741259 587.713487 
L 187.697394 586.570559 
L 190.653528 585.385593 
L 193.609663 584.15859 
L 196.565798 582.889549 
L 199.521933 581.57847 
L 202.478067 580.225354 
L 205.434202 578.8302 
L 208.390337 577.393009 
L 211.346472 575.91378 
L 214.302606 574.392513 
L 217.258741 572.829209 
L 220.214876 571.223867 
L 223.171011 569.576488 
L 226.127146 567.887071 
L 229.08328 566.155616 
L 232.039415 564.382124 
L 234.99555 562.566594 
L 237.951685 560.709026 
L 240.907819 558.809421 
L 243.863954 556.867779 
L 246.820089 554.884099 
L 249.776224 552.858381 
L 252.732359 550.790625 
L 255.688493 548.680832 
L 258.644628 546.529002 
L 261.600763 544.335133 
L 264.556898 542.099227 
L 267.513032 539.821284 
L 270.469167 537.501303 
L 273.425302 535.139284 
L 276.381437 532.735228 
L 279.337572 530.289134 
L 282.293706 527.801003 
L 285.249841 525.270834 
L 288.205976 522.698627 
L 291.162111 520.084383 
L 294.118245 517.428101 
L 297.07438 514.729782 
L 300.030515 511.989425 
L 302.98665 509.20703 
L 305.942784 506.382598 
L 308.898919 503.516128 
L 311.855054 500.60762 
L 314.811189 497.657075 
L 317.767324 494.664493 
L 320.723458 491.629872 
L 323.679593 488.553214 
L 326.635728 485.434519 
L 329.591863 482.273786 
L 332.547997 479.071015 
L 335.504132 475.826207 
L 338.460267 472.539361 
L 341.416402 469.210478 
L 344.372537 465.839557 
L 347.328671 462.426598 
L 350.284806 458.971602 
L 353.240941 455.474568 
L 356.197076 451.935496 
L 359.15321 448.354387 
L 362.109345 444.73124 
L 365.06548 441.066056 
L 368.021615 437.358834 
L 370.97775 433.609575 
L 373.933884 429.818278 
L 376.890019 425.984943 
L 379.846154 422.109571 
L 382.802289 418.192161 
L 385.758423 414.232713 
L 388.714558 410.231228 
L 391.670693 406.187706 
L 394.626828 402.102145 
L 397.582962 397.974547 
L 400.539097 393.804912 
L 403.495232 389.593239 
L 406.451367 385.339528 
L 409.407502 381.04378 
L 412.363636 376.705994 
" style="fill:none;stroke:#ff0000;stroke-linecap:square;stroke-width:3;"/>
   </g>
   <g id="line2d_56">
    <g clip-path="url(#pa7f1507549)">
     <use style="stroke:#000000;" x="153.377857" xlink:href="#m636285e561" y="600.053262"/>
     <use style="stroke:#000000;" x="297.954089" xlink:href="#m636285e561" y="514.061215"/>
     <use style="stroke:#000000;" x="158.744139" xlink:href="#m636285e561" y="600.339901"/>
     <use style="stroke:#000000;" x="190.116613" xlink:href="#m636285e561" y="572.037538"/>
     <use style="stroke:#000000;" x="215.44594" xlink:href="#m636285e561" y="577.807304"/>
     <use style="stroke:#000000;" x="371.139189" xlink:href="#m636285e561" y="430.694004"/>
     <use style="stroke:#000000;" x="314.642485" xlink:href="#m636285e561" y="502.757307"/>
    </g>
   </g>
   <g id="patch_15">
    <path d="M 108 630 
L 108 382.909091 
" style="fill:none;stroke:#000000;stroke-linecap:square;stroke-linejoin:miter;stroke-width:0.8;"/>
   </g>
   <g id="patch_16">
    <path d="M 412.363636 630 
L 412.363636 382.909091 
" style="fill:none;stroke:#000000;stroke-linecap:square;stroke-linejoin:miter;stroke-width:0.8;"/>
   </g>
   <g id="patch_17">
    <path d="M 108 630 
L 412.363636 630 
" style="fill:none;stroke:#000000;stroke-linecap:square;stroke-linejoin:miter;stroke-width:0.8;"/>
   </g>
   <g id="patch_18">
    <path d="M 108 382.909091 
L 412.363636 382.909091 
" style="fill:none;stroke:#000000;stroke-linecap:square;stroke-linejoin:miter;stroke-width:0.8;"/>
   </g>
   <g id="legend_3">
    <g id="patch_19">
     <path d="M 115 420.665341 
L 244.84375 420.665341 
Q 246.84375 420.665341 246.84375 418.665341 
L 246.84375 389.909091 
Q 246.84375 387.909091 244.84375 387.909091 
L 115 387.909091 
Q 113 387.909091 113 389.909091 
L 113 418.665341 
Q 113 420.665341 115 420.665341 
z
" style="fill:#ffffff;opacity:0.8;stroke:#cccccc;stroke-linejoin:miter;"/>
    </g>
    <g id="line2d_57">
     <path d="M 117 396.007528 
L 137 396.007528 
" style="fill:none;stroke:#000000;stroke-linecap:square;"/>
    </g>
    <g id="line2d_58"/>
    <g id="text_33">
     <!-- Modèle -->
     <g transform="translate(145 399.507528)scale(0.1 -0.1)">
      <use xlink:href="#DejaVuSans-77"/>
      <use x="86.279297" xlink:href="#DejaVuSans-111"/>
      <use x="147.460938" xlink:href="#DejaVuSans-100"/>
      <use x="210.9375" xlink:href="#DejaVuSans-232"/>
      <use x="272.460938" xlink:href="#DejaVuSans-108"/>
      <use x="300.244141" xlink:href="#DejaVuSans-101"/>
     </g>
    </g>
    <g id="line2d_59">
     <path d="M 117 411.085653 
L 137 411.085653 
" style="fill:none;stroke:#ff0000;stroke-linecap:square;stroke-width:3;"/>
    </g>
    <g id="line2d_60"/>
    <g id="text_34">
     <!-- Polynôme d'ordre 2 -->
     <g transform="translate(145 414.585653)scale(0.1 -0.1)">
      <use xlink:href="#DejaVuSans-80"/>
      <use x="60.255859" xlink:href="#DejaVuSans-111"/>
      <use x="121.4375" xlink:href="#DejaVuSans-108"/>
      <use x="149.220703" xlink:href="#DejaVuSans-121"/>
      <use x="208.400391" xlink:href="#DejaVuSans-110"/>
      <use x="271.779297" xlink:href="#DejaVuSans-244"/>
      <use x="332.960938" xlink:href="#DejaVuSans-109"/>
      <use x="430.373047" xlink:href="#DejaVuSans-101"/>
      <use x="491.896484" xlink:href="#DejaVuSans-32"/>
      <use x="523.683594" xlink:href="#DejaVuSans-100"/>
      <use x="587.160156" xlink:href="#DejaVuSans-39"/>
      <use x="614.650391" xlink:href="#DejaVuSans-111"/>
      <use x="675.832031" xlink:href="#DejaVuSans-114"/>
      <use x="716.929688" xlink:href="#DejaVuSans-100"/>
      <use x="780.40625" xlink:href="#DejaVuSans-114"/>
      <use x="821.488281" xlink:href="#DejaVuSans-101"/>
      <use x="883.011719" xlink:href="#DejaVuSans-32"/>
      <use x="914.798828" xlink:href="#DejaVuSans-50"/>
     </g>
    </g>
   </g>
  </g>
  <g id="axes_4">
   <g id="patch_20">
    <path d="M 473.236364 630 
L 777.6 630 
L 777.6 382.909091 
L 473.236364 382.909091 
z
" style="fill:#bbbbff;"/>
   </g>
   <g id="matplotlib.axis_7">
    <g id="xtick_22">
     <g id="line2d_61">
      <g>
       <use style="stroke:#000000;stroke-width:0.8;" x="496.648951" xlink:href="#mbac1c39e1f" y="630"/>
      </g>
     </g>
     <g id="text_35">
      <!-- −2 -->
      <g transform="translate(489.277857 644.598437)scale(0.1 -0.1)">
       <use xlink:href="#DejaVuSans-8722"/>
       <use x="83.789062" xlink:href="#DejaVuSans-50"/>
      </g>
     </g>
    </g>
    <g id="xtick_23">
     <g id="line2d_62">
      <g>
       <use style="stroke:#000000;stroke-width:0.8;" x="543.474126" xlink:href="#mbac1c39e1f" y="630"/>
      </g>
     </g>
     <g id="text_36">
      <!-- 0 -->
      <g transform="translate(540.292876 644.598437)scale(0.1 -0.1)">
       <use xlink:href="#DejaVuSans-48"/>
      </g>
     </g>
    </g>
    <g id="xtick_24">
     <g id="line2d_63">
      <g>
       <use style="stroke:#000000;stroke-width:0.8;" x="590.299301" xlink:href="#mbac1c39e1f" y="630"/>
      </g>
     </g>
     <g id="text_37">
      <!-- 2 -->
      <g transform="translate(587.118051 644.598437)scale(0.1 -0.1)">
       <use xlink:href="#DejaVuSans-50"/>
      </g>
     </g>
    </g>
    <g id="xtick_25">
     <g id="line2d_64">
      <g>
       <use style="stroke:#000000;stroke-width:0.8;" x="637.124476" xlink:href="#mbac1c39e1f" y="630"/>
      </g>
     </g>
     <g id="text_38">
      <!-- 4 -->
      <g transform="translate(633.943226 644.598437)scale(0.1 -0.1)">
       <use xlink:href="#DejaVuSans-52"/>
      </g>
     </g>
    </g>
    <g id="xtick_26">
     <g id="line2d_65">
      <g>
       <use style="stroke:#000000;stroke-width:0.8;" x="683.94965" xlink:href="#mbac1c39e1f" y="630"/>
      </g>
     </g>
     <g id="text_39">
      <!-- 6 -->
      <g transform="translate(680.7684 644.598437)scale(0.1 -0.1)">
       <use xlink:href="#DejaVuSans-54"/>
      </g>
     </g>
    </g>
    <g id="xtick_27">
     <g id="line2d_66">
      <g>
       <use style="stroke:#000000;stroke-width:0.8;" x="730.774825" xlink:href="#mbac1c39e1f" y="630"/>
      </g>
     </g>
     <g id="text_40">
      <!-- 8 -->
      <g transform="translate(727.593575 644.598437)scale(0.1 -0.1)">
       <use xlink:href="#DejaVuSans-56"/>
      </g>
     </g>
    </g>
    <g id="xtick_28">
     <g id="line2d_67">
      <g>
       <use style="stroke:#000000;stroke-width:0.8;" x="777.6" xlink:href="#mbac1c39e1f" y="630"/>
      </g>
     </g>
     <g id="text_41">
      <!-- 10 -->
      <g transform="translate(771.2375 644.598437)scale(0.1 -0.1)">
       <use xlink:href="#DejaVuSans-49"/>
       <use x="63.623047" xlink:href="#DejaVuSans-48"/>
      </g>
     </g>
    </g>
    <g id="text_42">
     <!-- x -->
     <g transform="translate(620.091307 668.386278)scale(0.18 -0.18)">
      <use xlink:href="#DejaVuSans-120"/>
     </g>
    </g>
   </g>
   <g id="matplotlib.axis_8">
    <g id="ytick_22">
     <g id="line2d_68">
      <g>
       <use style="stroke:#000000;stroke-width:0.8;" x="473.236364" xlink:href="#m004beb7011" y="630"/>
      </g>
     </g>
    </g>
    <g id="ytick_23">
     <g id="line2d_69">
      <g>
       <use style="stroke:#000000;stroke-width:0.8;" x="473.236364" xlink:href="#m004beb7011" y="588.818182"/>
      </g>
     </g>
    </g>
    <g id="ytick_24">
     <g id="line2d_70">
      <g>
       <use style="stroke:#000000;stroke-width:0.8;" x="473.236364" xlink:href="#m004beb7011" y="547.636364"/>
      </g>
     </g>
    </g>
    <g id="ytick_25">
     <g id="line2d_71">
      <g>
       <use style="stroke:#000000;stroke-width:0.8;" x="473.236364" xlink:href="#m004beb7011" y="506.454545"/>
      </g>
     </g>
    </g>
    <g id="ytick_26">
     <g id="line2d_72">
      <g>
       <use style="stroke:#000000;stroke-width:0.8;" x="473.236364" xlink:href="#m004beb7011" y="465.272727"/>
      </g>
     </g>
    </g>
    <g id="ytick_27">
     <g id="line2d_73">
      <g>
       <use style="stroke:#000000;stroke-width:0.8;" x="473.236364" xlink:href="#m004beb7011" y="424.090909"/>
      </g>
     </g>
    </g>
    <g id="ytick_28">
     <g id="line2d_74">
      <g>
       <use style="stroke:#000000;stroke-width:0.8;" x="473.236364" xlink:href="#m004beb7011" y="382.909091"/>
      </g>
     </g>
    </g>
    <g id="text_43">
     <!-- y -->
     <g transform="translate(437.473125 502.711108)scale(0.18 -0.18)">
      <use xlink:href="#DejaVuSans-121"/>
     </g>
    </g>
   </g>
   <g id="line2d_75">
    <path clip-path="url(#p4b386daef6)" d="M 484.942657 601.6875 
L 487.898792 601.407818 
L 490.854927 601.088744 
L 493.811062 600.730278 
L 496.767196 600.33242 
L 499.723331 599.895171 
L 502.679466 599.418529 
L 505.635601 598.902496 
L 508.591736 598.347071 
L 511.54787 597.752254 
L 514.504005 597.118045 
L 517.46014 596.444444 
L 520.416275 595.731452 
L 523.372409 594.979068 
L 526.328544 594.187291 
L 529.284679 593.356123 
L 532.240814 592.485563 
L 535.196949 591.575611 
L 538.153083 590.626268 
L 541.109218 589.637532 
L 544.065353 588.609405 
L 547.021488 587.541886 
L 549.977622 586.434975 
L 552.933757 585.288672 
L 555.889892 584.102977 
L 558.846027 582.87789 
L 561.802161 581.613412 
L 564.758296 580.309542 
L 567.714431 578.96628 
L 570.670566 577.583626 
L 573.626701 576.16158 
L 576.582835 574.700142 
L 579.53897 573.199312 
L 582.495105 571.659091 
L 585.45124 570.079478 
L 588.407374 568.460472 
L 591.363509 566.802076 
L 594.319644 565.104287 
L 597.275779 563.367106 
L 600.231914 561.590533 
L 603.188048 559.774569 
L 606.144183 557.919213 
L 609.100318 556.024465 
L 612.056453 554.090325 
L 615.012587 552.116793 
L 617.968722 550.103869 
L 620.924857 548.051554 
L 623.880992 545.959846 
L 626.837127 543.828747 
L 629.793261 541.658256 
L 632.749396 539.448373 
L 635.705531 537.199098 
L 638.661666 534.910432 
L 641.6178 532.582373 
L 644.573935 530.214923 
L 647.53007 527.808081 
L 650.486205 525.361847 
L 653.442339 522.876221 
L 656.398474 520.351203 
L 659.354609 517.786794 
L 662.310744 515.182992 
L 665.266879 512.539799 
L 668.223013 509.857214 
L 671.179148 507.135237 
L 674.135283 504.373868 
L 677.091418 501.573107 
L 680.047552 498.732955 
L 683.003687 495.85341 
L 685.959822 492.934474 
L 688.915957 489.976146 
L 691.872092 486.978426 
L 694.828226 483.941314 
L 697.784361 480.86481 
L 700.740496 477.748915 
L 703.696631 474.593627 
L 706.652765 471.398948 
L 709.6089 468.164877 
L 712.565035 464.891414 
L 715.52117 461.578559 
L 718.477305 458.226313 
L 721.433439 454.834674 
L 724.389574 451.403644 
L 727.345709 447.933222 
L 730.301844 444.423408 
L 733.257978 440.874202 
L 736.214113 437.285604 
L 739.170248 433.657614 
L 742.126383 429.990233 
L 745.082517 426.28346 
L 748.038652 422.537294 
L 750.994787 418.751737 
L 753.950922 414.926789 
L 756.907057 411.062448 
L 759.863191 407.158715 
L 762.819326 403.215591 
L 765.775461 399.233075 
L 768.731596 395.211166 
L 771.68773 391.149866 
L 774.643865 387.049175 
L 777.6 382.909091 
" style="fill:none;stroke:#000000;stroke-linecap:square;"/>
   </g>
   <g id="line2d_76">
    <path clip-path="url(#p4b386daef6)" d="M 484.942657 262.983173 
L 487.898792 335.527474 
L 490.854927 396.012614 
L 493.811062 445.879843 
L 496.767196 486.45215 
L 499.723331 518.940264 
L 502.679466 544.448503 
L 505.635601 563.980491 
L 508.591736 578.444723 
L 511.54787 588.659989 
L 514.504005 595.360658 
L 517.46014 599.201818 
L 520.416275 600.764268 
L 523.372409 600.559375 
L 526.328544 599.033782 
L 529.284679 596.573974 
L 532.240814 593.510701 
L 535.196949 590.123263 
L 538.153083 586.643643 
L 541.109218 583.2605 
L 544.065353 580.123029 
L 547.021488 577.344658 
L 549.977622 575.006623 
L 552.933757 573.161384 
L 555.889892 571.835905 
L 558.846027 571.034795 
L 561.802161 570.743292 
L 564.758296 570.930124 
L 567.714431 571.550205 
L 570.670566 572.547207 
L 573.626701 573.855976 
L 576.582835 575.404812 
L 579.53897 577.117603 
L 582.495105 578.915816 
L 585.45124 580.720345 
L 588.407374 582.453221 
L 591.363509 584.039166 
L 594.319644 585.40702 
L 597.275779 586.491013 
L 600.231914 587.231901 
L 603.188048 587.577954 
L 606.144183 587.485801 
L 609.100318 586.921141 
L 612.056453 585.859296 
L 615.012587 584.285634 
L 617.968722 582.195842 
L 620.924857 579.596056 
L 623.880992 576.502856 
L 626.837127 572.943102 
L 629.793261 568.953645 
L 632.749396 564.580882 
L 635.705531 559.880173 
L 638.661666 554.915116 
L 641.6178 549.756676 
L 644.573935 544.482171 
L 647.53007 539.174121 
L 650.486205 533.91894 
L 653.442339 528.805505 
L 656.398474 523.923563 
L 659.354609 519.362006 
L 662.310744 515.207 
L 665.266879 511.539968 
L 668.223013 508.435436 
L 671.179148 505.958734 
L 674.135283 504.163545 
L 677.091418 503.089328 
L 680.047552 502.758582 
L 683.003687 503.173974 
L 685.959822 504.315328 
L 688.915957 506.136461 
L 691.872092 508.561882 
L 694.828226 511.483351 
L 697.784361 514.756286 
L 700.740496 518.196036 
L 703.696631 521.574005 
L 706.652765 524.613633 
L 709.6089 526.986241 
L 712.565035 528.306723 
L 715.52117 528.129102 
L 718.477305 525.941939 
L 721.433439 521.163603 
L 724.389574 513.137393 
L 727.345709 501.126522 
L 730.301844 484.308952 
L 733.257978 461.772091 
L 736.214113 432.507347 
L 739.170248 395.404535 
L 742.126383 349.246144 
L 745.082517 292.701457 
L 748.038652 224.320539 
L 750.994787 142.528063 
L 753.950922 45.617013 
L 755.161077 -1 
" style="fill:none;stroke:#ff0000;stroke-linecap:square;stroke-width:3;"/>
   </g>
   <g id="line2d_77">
    <g clip-path="url(#p4b386daef6)">
     <use style="stroke:#000000;" x="518.614221" xlink:href="#m636285e561" y="600.053262"/>
     <use style="stroke:#000000;" x="663.190452" xlink:href="#m636285e561" y="514.061215"/>
     <use style="stroke:#000000;" x="523.980502" xlink:href="#m636285e561" y="600.339901"/>
     <use style="stroke:#000000;" x="555.352976" xlink:href="#m636285e561" y="572.037538"/>
     <use style="stroke:#000000;" x="580.682304" xlink:href="#m636285e561" y="577.807304"/>
     <use style="stroke:#000000;" x="736.375552" xlink:href="#m636285e561" y="430.694004"/>
     <use style="stroke:#000000;" x="679.878849" xlink:href="#m636285e561" y="502.757307"/>
    </g>
   </g>
   <g id="patch_21">
    <path d="M 473.236364 630 
L 473.236364 382.909091 
" style="fill:none;stroke:#000000;stroke-linecap:square;stroke-linejoin:miter;stroke-width:0.8;"/>
   </g>
   <g id="patch_22">
    <path d="M 777.6 630 
L 777.6 382.909091 
" style="fill:none;stroke:#000000;stroke-linecap:square;stroke-linejoin:miter;stroke-width:0.8;"/>
   </g>
   <g id="patch_23">
    <path d="M 473.236364 630 
L 777.6 630 
" style="fill:none;stroke:#000000;stroke-linecap:square;stroke-linejoin:miter;stroke-width:0.8;"/>
   </g>
   <g id="patch_24">
    <path d="M 473.236364 382.909091 
L 777.6 382.909091 
" style="fill:none;stroke:#000000;stroke-linecap:square;stroke-linejoin:miter;stroke-width:0.8;"/>
   </g>
   <g id="text_44">
    <!-- Sur-apprentissage (Overfitting) -->
    <defs>
     <path d="M 39.40625 66.21875 
Q 28.65625 66.21875 22.328125 58.203125 
Q 16.015625 50.203125 16.015625 36.375 
Q 16.015625 22.609375 22.328125 14.59375 
Q 28.65625 6.59375 39.40625 6.59375 
Q 50.140625 6.59375 56.421875 14.59375 
Q 62.703125 22.609375 62.703125 36.375 
Q 62.703125 50.203125 56.421875 58.203125 
Q 50.140625 66.21875 39.40625 66.21875 
z
M 39.40625 74.21875 
Q 54.734375 74.21875 63.90625 63.9375 
Q 73.09375 53.65625 73.09375 36.375 
Q 73.09375 19.140625 63.90625 8.859375 
Q 54.734375 -1.421875 39.40625 -1.421875 
Q 24.03125 -1.421875 14.8125 8.828125 
Q 5.609375 19.09375 5.609375 36.375 
Q 5.609375 53.65625 14.8125 63.9375 
Q 24.03125 74.21875 39.40625 74.21875 
z
" id="DejaVuSans-79"/>
     <path d="M 2.984375 54.6875 
L 12.5 54.6875 
L 29.59375 8.796875 
L 46.6875 54.6875 
L 56.203125 54.6875 
L 35.6875 0 
L 23.484375 0 
z
" id="DejaVuSans-118"/>
    </defs>
    <g transform="translate(602.005594 621.763636)scale(0.1 -0.1)">
     <use xlink:href="#DejaVuSans-83"/>
     <use x="63.476562" xlink:href="#DejaVuSans-117"/>
     <use x="126.855469" xlink:href="#DejaVuSans-114"/>
     <use x="167.875" xlink:href="#DejaVuSans-45"/>
     <use x="203.958984" xlink:href="#DejaVuSans-97"/>
     <use x="265.238281" xlink:href="#DejaVuSans-112"/>
     <use x="328.714844" xlink:href="#DejaVuSans-112"/>
     <use x="392.191406" xlink:href="#DejaVuSans-114"/>
     <use x="433.273438" xlink:href="#DejaVuSans-101"/>
     <use x="494.796875" xlink:href="#DejaVuSans-110"/>
     <use x="558.175781" xlink:href="#DejaVuSans-116"/>
     <use x="597.384766" xlink:href="#DejaVuSans-105"/>
     <use x="625.167969" xlink:href="#DejaVuSans-115"/>
     <use x="677.267578" xlink:href="#DejaVuSans-115"/>
     <use x="729.367188" xlink:href="#DejaVuSans-97"/>
     <use x="790.646484" xlink:href="#DejaVuSans-103"/>
     <use x="854.123047" xlink:href="#DejaVuSans-101"/>
     <use x="915.646484" xlink:href="#DejaVuSans-32"/>
     <use x="947.433594" xlink:href="#DejaVuSans-40"/>
     <use x="986.447266" xlink:href="#DejaVuSans-79"/>
     <use x="1065.158203" xlink:href="#DejaVuSans-118"/>
     <use x="1124.337891" xlink:href="#DejaVuSans-101"/>
     <use x="1185.861328" xlink:href="#DejaVuSans-114"/>
     <use x="1226.974609" xlink:href="#DejaVuSans-102"/>
     <use x="1262.179688" xlink:href="#DejaVuSans-105"/>
     <use x="1289.962891" xlink:href="#DejaVuSans-116"/>
     <use x="1329.171875" xlink:href="#DejaVuSans-116"/>
     <use x="1368.380859" xlink:href="#DejaVuSans-105"/>
     <use x="1396.164062" xlink:href="#DejaVuSans-110"/>
     <use x="1459.542969" xlink:href="#DejaVuSans-103"/>
     <use x="1523.019531" xlink:href="#DejaVuSans-41"/>
    </g>
   </g>
   <g id="legend_4">
    <g id="patch_25">
     <path d="M 480.236364 420.665341 
L 610.080114 420.665341 
Q 612.080114 420.665341 612.080114 418.665341 
L 612.080114 389.909091 
Q 612.080114 387.909091 610.080114 387.909091 
L 480.236364 387.909091 
Q 478.236364 387.909091 478.236364 389.909091 
L 478.236364 418.665341 
Q 478.236364 420.665341 480.236364 420.665341 
z
" style="fill:#ffffff;opacity:0.8;stroke:#cccccc;stroke-linejoin:miter;"/>
    </g>
    <g id="line2d_78">
     <path d="M 482.236364 396.007528 
L 502.236364 396.007528 
" style="fill:none;stroke:#000000;stroke-linecap:square;"/>
    </g>
    <g id="line2d_79"/>
    <g id="text_45">
     <!-- Modèle -->
     <g transform="translate(510.236364 399.507528)scale(0.1 -0.1)">
      <use xlink:href="#DejaVuSans-77"/>
      <use x="86.279297" xlink:href="#DejaVuSans-111"/>
      <use x="147.460938" xlink:href="#DejaVuSans-100"/>
      <use x="210.9375" xlink:href="#DejaVuSans-232"/>
      <use x="272.460938" xlink:href="#DejaVuSans-108"/>
      <use x="300.244141" xlink:href="#DejaVuSans-101"/>
     </g>
    </g>
    <g id="line2d_80">
     <path d="M 482.236364 411.085653 
L 502.236364 411.085653 
" style="fill:none;stroke:#ff0000;stroke-linecap:square;stroke-width:3;"/>
    </g>
    <g id="line2d_81"/>
    <g id="text_46">
     <!-- Polynôme d'ordre 4 -->
     <g transform="translate(510.236364 414.585653)scale(0.1 -0.1)">
      <use xlink:href="#DejaVuSans-80"/>
      <use x="60.255859" xlink:href="#DejaVuSans-111"/>
      <use x="121.4375" xlink:href="#DejaVuSans-108"/>
      <use x="149.220703" xlink:href="#DejaVuSans-121"/>
      <use x="208.400391" xlink:href="#DejaVuSans-110"/>
      <use x="271.779297" xlink:href="#DejaVuSans-244"/>
      <use x="332.960938" xlink:href="#DejaVuSans-109"/>
      <use x="430.373047" xlink:href="#DejaVuSans-101"/>
      <use x="491.896484" xlink:href="#DejaVuSans-32"/>
      <use x="523.683594" xlink:href="#DejaVuSans-100"/>
      <use x="587.160156" xlink:href="#DejaVuSans-39"/>
      <use x="614.650391" xlink:href="#DejaVuSans-111"/>
      <use x="675.832031" xlink:href="#DejaVuSans-114"/>
      <use x="716.929688" xlink:href="#DejaVuSans-100"/>
      <use x="780.40625" xlink:href="#DejaVuSans-114"/>
      <use x="821.488281" xlink:href="#DejaVuSans-101"/>
      <use x="883.011719" xlink:href="#DejaVuSans-32"/>
      <use x="914.798828" xlink:href="#DejaVuSans-52"/>
     </g>
    </g>
   </g>
  </g>
 </g>
 <defs>
  <clipPath id="p0242289830">
   <rect height="247.090909" width="304.363636" x="108" y="86.4"/>
  </clipPath>
  <clipPath id="pf4fa5d0228">
   <rect height="247.090909" width="304.363636" x="473.236364" y="86.4"/>
  </clipPath>
  <clipPath id="pa7f1507549">
   <rect height="247.090909" width="304.363636" x="108" y="382.909091"/>
  </clipPath>
  <clipPath id="p4b386daef6">
   <rect height="247.090909" width="304.363636" x="473.236364" y="382.909091"/>
  </clipPath>
 </defs>
</svg>
