<?xml version="1.0" encoding="utf-8" standalone="no"?>
<!DOCTYPE svg PUBLIC "-//W3C//DTD SVG 1.1//EN"
  "http://www.w3.org/Graphics/SVG/1.1/DTD/svg11.dtd">
<!-- Created with matplotlib (https://matplotlib.org/) -->
<svg height="936pt" version="1.1" viewBox="0 0 936 936" width="936pt" xmlns="http://www.w3.org/2000/svg" xmlns:xlink="http://www.w3.org/1999/xlink">
 <defs>
  <style type="text/css">
*{stroke-linecap:butt;stroke-linejoin:round;}
  </style>
 </defs>
 <g id="figure_1">
  <g id="patch_1">
   <path d="M 0 936 
L 936 936 
L 936 0 
L 0 0 
z
" style="fill:#ffffff;"/>
  </g>
  <g id="axes_1">
   <g id="patch_2">
    <path d="M 117 433.538182 
L 446.727273 433.538182 
L 446.727273 112.32 
L 117 112.32 
z
" style="fill:#eaeaf2;"/>
   </g>
   <g id="matplotlib.axis_1">
    <g id="xtick_1">
     <g id="line2d_1">
      <path clip-path="url(#p46e66e9851)" d="M 117 433.538182 
L 117 112.32 
" style="fill:none;stroke:#ffffff;stroke-linecap:round;"/>
     </g>
     <g id="text_1">
      <!-- 0.0 -->
      <defs>
       <path d="M 4.15625 35.296875 
Q 4.15625 48 6.765625 55.734375 
Q 9.375 63.484375 14.515625 67.671875 
Q 19.671875 71.875 27.484375 71.875 
Q 33.25 71.875 37.59375 69.546875 
Q 41.9375 67.234375 44.765625 62.859375 
Q 47.609375 58.5 49.21875 52.21875 
Q 50.828125 45.953125 50.828125 35.296875 
Q 50.828125 22.703125 48.234375 14.96875 
Q 45.65625 7.234375 40.5 3 
Q 35.359375 -1.21875 27.484375 -1.21875 
Q 17.140625 -1.21875 11.234375 6.203125 
Q 4.15625 15.140625 4.15625 35.296875 
z
M 13.1875 35.296875 
Q 13.1875 17.671875 17.3125 11.828125 
Q 21.4375 6 27.484375 6 
Q 33.546875 6 37.671875 11.859375 
Q 41.796875 17.71875 41.796875 35.296875 
Q 41.796875 52.984375 37.671875 58.78125 
Q 33.546875 64.59375 27.390625 64.59375 
Q 21.34375 64.59375 17.71875 59.46875 
Q 13.1875 52.9375 13.1875 35.296875 
z
" id="ArialMT-48"/>
       <path d="M 9.078125 0 
L 9.078125 10.015625 
L 19.09375 10.015625 
L 19.09375 0 
z
" id="ArialMT-46"/>
      </defs>
      <g style="fill:#262626;" transform="translate(109.355 450.911776)scale(0.11 -0.11)">
       <use xlink:href="#ArialMT-48"/>
       <use x="55.615234" xlink:href="#ArialMT-46"/>
       <use x="83.398438" xlink:href="#ArialMT-48"/>
      </g>
     </g>
    </g>
    <g id="xtick_2">
     <g id="line2d_2">
      <path clip-path="url(#p46e66e9851)" d="M 182.945455 433.538182 
L 182.945455 112.32 
" style="fill:none;stroke:#ffffff;stroke-linecap:round;"/>
     </g>
     <g id="text_2">
      <!-- 0.2 -->
      <defs>
       <path d="M 50.34375 8.453125 
L 50.34375 0 
L 3.03125 0 
Q 2.9375 3.171875 4.046875 6.109375 
Q 5.859375 10.9375 9.828125 15.625 
Q 13.8125 20.3125 21.34375 26.46875 
Q 33.015625 36.03125 37.109375 41.625 
Q 41.21875 47.21875 41.21875 52.203125 
Q 41.21875 57.421875 37.46875 61 
Q 33.734375 64.59375 27.734375 64.59375 
Q 21.390625 64.59375 17.578125 60.78125 
Q 13.765625 56.984375 13.71875 50.25 
L 4.6875 51.171875 
Q 5.609375 61.28125 11.65625 66.578125 
Q 17.71875 71.875 27.9375 71.875 
Q 38.234375 71.875 44.234375 66.15625 
Q 50.25 60.453125 50.25 52 
Q 50.25 47.703125 48.484375 43.546875 
Q 46.734375 39.40625 42.65625 34.8125 
Q 38.578125 30.21875 29.109375 22.21875 
Q 21.1875 15.578125 18.9375 13.203125 
Q 16.703125 10.84375 15.234375 8.453125 
z
" id="ArialMT-50"/>
      </defs>
      <g style="fill:#262626;" transform="translate(175.300455 450.911776)scale(0.11 -0.11)">
       <use xlink:href="#ArialMT-48"/>
       <use x="55.615234" xlink:href="#ArialMT-46"/>
       <use x="83.398438" xlink:href="#ArialMT-50"/>
      </g>
     </g>
    </g>
    <g id="xtick_3">
     <g id="line2d_3">
      <path clip-path="url(#p46e66e9851)" d="M 248.890909 433.538182 
L 248.890909 112.32 
" style="fill:none;stroke:#ffffff;stroke-linecap:round;"/>
     </g>
     <g id="text_3">
      <!-- 0.4 -->
      <defs>
       <path d="M 32.328125 0 
L 32.328125 17.140625 
L 1.265625 17.140625 
L 1.265625 25.203125 
L 33.9375 71.578125 
L 41.109375 71.578125 
L 41.109375 25.203125 
L 50.78125 25.203125 
L 50.78125 17.140625 
L 41.109375 17.140625 
L 41.109375 0 
z
M 32.328125 25.203125 
L 32.328125 57.46875 
L 9.90625 25.203125 
z
" id="ArialMT-52"/>
      </defs>
      <g style="fill:#262626;" transform="translate(241.245909 450.911776)scale(0.11 -0.11)">
       <use xlink:href="#ArialMT-48"/>
       <use x="55.615234" xlink:href="#ArialMT-46"/>
       <use x="83.398438" xlink:href="#ArialMT-52"/>
      </g>
     </g>
    </g>
    <g id="xtick_4">
     <g id="line2d_4">
      <path clip-path="url(#p46e66e9851)" d="M 314.836364 433.538182 
L 314.836364 112.32 
" style="fill:none;stroke:#ffffff;stroke-linecap:round;"/>
     </g>
     <g id="text_4">
      <!-- 0.6 -->
      <defs>
       <path d="M 49.75 54.046875 
L 41.015625 53.375 
Q 39.84375 58.546875 37.703125 60.890625 
Q 34.125 64.65625 28.90625 64.65625 
Q 24.703125 64.65625 21.53125 62.3125 
Q 17.390625 59.28125 14.984375 53.46875 
Q 12.59375 47.65625 12.5 36.921875 
Q 15.671875 41.75 20.265625 44.09375 
Q 24.859375 46.4375 29.890625 46.4375 
Q 38.671875 46.4375 44.84375 39.96875 
Q 51.03125 33.5 51.03125 23.25 
Q 51.03125 16.5 48.125 10.71875 
Q 45.21875 4.9375 40.140625 1.859375 
Q 35.0625 -1.21875 28.609375 -1.21875 
Q 17.625 -1.21875 10.6875 6.859375 
Q 3.765625 14.9375 3.765625 33.5 
Q 3.765625 54.25 11.421875 63.671875 
Q 18.109375 71.875 29.4375 71.875 
Q 37.890625 71.875 43.28125 67.140625 
Q 48.6875 62.40625 49.75 54.046875 
z
M 13.875 23.1875 
Q 13.875 18.65625 15.796875 14.5 
Q 17.71875 10.359375 21.1875 8.171875 
Q 24.65625 6 28.46875 6 
Q 34.03125 6 38.03125 10.484375 
Q 42.046875 14.984375 42.046875 22.703125 
Q 42.046875 30.125 38.078125 34.390625 
Q 34.125 38.671875 28.125 38.671875 
Q 22.171875 38.671875 18.015625 34.390625 
Q 13.875 30.125 13.875 23.1875 
z
" id="ArialMT-54"/>
      </defs>
      <g style="fill:#262626;" transform="translate(307.191364 450.911776)scale(0.11 -0.11)">
       <use xlink:href="#ArialMT-48"/>
       <use x="55.615234" xlink:href="#ArialMT-46"/>
       <use x="83.398438" xlink:href="#ArialMT-54"/>
      </g>
     </g>
    </g>
    <g id="xtick_5">
     <g id="line2d_5">
      <path clip-path="url(#p46e66e9851)" d="M 380.781818 433.538182 
L 380.781818 112.32 
" style="fill:none;stroke:#ffffff;stroke-linecap:round;"/>
     </g>
     <g id="text_5">
      <!-- 0.8 -->
      <defs>
       <path d="M 17.671875 38.8125 
Q 12.203125 40.828125 9.5625 44.53125 
Q 6.9375 48.25 6.9375 53.421875 
Q 6.9375 61.234375 12.546875 66.546875 
Q 18.171875 71.875 27.484375 71.875 
Q 36.859375 71.875 42.578125 66.421875 
Q 48.296875 60.984375 48.296875 53.171875 
Q 48.296875 48.1875 45.671875 44.5 
Q 43.0625 40.828125 37.75 38.8125 
Q 44.34375 36.671875 47.78125 31.875 
Q 51.21875 27.09375 51.21875 20.453125 
Q 51.21875 11.28125 44.71875 5.03125 
Q 38.234375 -1.21875 27.640625 -1.21875 
Q 17.046875 -1.21875 10.546875 5.046875 
Q 4.046875 11.328125 4.046875 20.703125 
Q 4.046875 27.6875 7.59375 32.390625 
Q 11.140625 37.109375 17.671875 38.8125 
z
M 15.921875 53.71875 
Q 15.921875 48.640625 19.1875 45.40625 
Q 22.46875 42.1875 27.6875 42.1875 
Q 32.765625 42.1875 36.015625 45.375 
Q 39.265625 48.578125 39.265625 53.21875 
Q 39.265625 58.0625 35.90625 61.359375 
Q 32.5625 64.65625 27.59375 64.65625 
Q 22.5625 64.65625 19.234375 61.421875 
Q 15.921875 58.203125 15.921875 53.71875 
z
M 13.09375 20.65625 
Q 13.09375 16.890625 14.875 13.375 
Q 16.65625 9.859375 20.171875 7.921875 
Q 23.6875 6 27.734375 6 
Q 34.03125 6 38.125 10.046875 
Q 42.234375 14.109375 42.234375 20.359375 
Q 42.234375 26.703125 38.015625 30.859375 
Q 33.796875 35.015625 27.4375 35.015625 
Q 21.234375 35.015625 17.15625 30.90625 
Q 13.09375 26.8125 13.09375 20.65625 
z
" id="ArialMT-56"/>
      </defs>
      <g style="fill:#262626;" transform="translate(373.136818 450.911776)scale(0.11 -0.11)">
       <use xlink:href="#ArialMT-48"/>
       <use x="55.615234" xlink:href="#ArialMT-46"/>
       <use x="83.398438" xlink:href="#ArialMT-56"/>
      </g>
     </g>
    </g>
    <g id="xtick_6">
     <g id="line2d_6">
      <path clip-path="url(#p46e66e9851)" d="M 446.727273 433.538182 
L 446.727273 112.32 
" style="fill:none;stroke:#ffffff;stroke-linecap:round;"/>
     </g>
     <g id="text_6">
      <!-- 1.0 -->
      <defs>
       <path d="M 37.25 0 
L 28.46875 0 
L 28.46875 56 
Q 25.296875 52.984375 20.140625 49.953125 
Q 14.984375 46.921875 10.890625 45.40625 
L 10.890625 53.90625 
Q 18.265625 57.375 23.78125 62.296875 
Q 29.296875 67.234375 31.59375 71.875 
L 37.25 71.875 
z
" id="ArialMT-49"/>
      </defs>
      <g style="fill:#262626;" transform="translate(439.082273 450.911776)scale(0.11 -0.11)">
       <use xlink:href="#ArialMT-49"/>
       <use x="55.615234" xlink:href="#ArialMT-46"/>
       <use x="83.398438" xlink:href="#ArialMT-48"/>
      </g>
     </g>
    </g>
    <g id="text_7">
     <!-- $x_{1}$ -->
     <defs>
      <path d="M 60.015625 54.6875 
L 34.90625 27.875 
L 50.296875 0 
L 39.984375 0 
L 28.421875 21.6875 
L 8.296875 0 
L -2.59375 0 
L 24.3125 28.8125 
L 10.015625 54.6875 
L 20.3125 54.6875 
L 30.8125 34.90625 
L 49.125 54.6875 
z
" id="DejaVuSans-Oblique-120"/>
      <path d="M 12.40625 8.296875 
L 28.515625 8.296875 
L 28.515625 63.921875 
L 10.984375 60.40625 
L 10.984375 69.390625 
L 28.421875 72.90625 
L 38.28125 72.90625 
L 38.28125 8.296875 
L 54.390625 8.296875 
L 54.390625 0 
L 12.40625 0 
z
" id="DejaVuSans-49"/>
     </defs>
     <g style="fill:#262626;" transform="translate(272.233636 472.119699)scale(0.18 -0.18)">
      <use transform="translate(0 0.3125)" xlink:href="#DejaVuSans-Oblique-120"/>
      <use transform="translate(59.179688 -16.09375)scale(0.7)" xlink:href="#DejaVuSans-49"/>
     </g>
    </g>
   </g>
   <g id="matplotlib.axis_2">
    <g id="ytick_1">
     <g id="line2d_7">
      <path clip-path="url(#p46e66e9851)" d="M 117 433.538182 
L 446.727273 433.538182 
" style="fill:none;stroke:#ffffff;stroke-linecap:round;"/>
     </g>
     <g id="text_8">
      <!-- 0.0 -->
      <g style="fill:#262626;" transform="translate(92.21 437.474979)scale(0.11 -0.11)">
       <use xlink:href="#ArialMT-48"/>
       <use x="55.615234" xlink:href="#ArialMT-46"/>
       <use x="83.398438" xlink:href="#ArialMT-48"/>
      </g>
     </g>
    </g>
    <g id="ytick_2">
     <g id="line2d_8">
      <path clip-path="url(#p46e66e9851)" d="M 117 369.294545 
L 446.727273 369.294545 
" style="fill:none;stroke:#ffffff;stroke-linecap:round;"/>
     </g>
     <g id="text_9">
      <!-- 0.2 -->
      <g style="fill:#262626;" transform="translate(92.21 373.231342)scale(0.11 -0.11)">
       <use xlink:href="#ArialMT-48"/>
       <use x="55.615234" xlink:href="#ArialMT-46"/>
       <use x="83.398438" xlink:href="#ArialMT-50"/>
      </g>
     </g>
    </g>
    <g id="ytick_3">
     <g id="line2d_9">
      <path clip-path="url(#p46e66e9851)" d="M 117 305.050909 
L 446.727273 305.050909 
" style="fill:none;stroke:#ffffff;stroke-linecap:round;"/>
     </g>
     <g id="text_10">
      <!-- 0.4 -->
      <g style="fill:#262626;" transform="translate(92.21 308.987706)scale(0.11 -0.11)">
       <use xlink:href="#ArialMT-48"/>
       <use x="55.615234" xlink:href="#ArialMT-46"/>
       <use x="83.398438" xlink:href="#ArialMT-52"/>
      </g>
     </g>
    </g>
    <g id="ytick_4">
     <g id="line2d_10">
      <path clip-path="url(#p46e66e9851)" d="M 117 240.807273 
L 446.727273 240.807273 
" style="fill:none;stroke:#ffffff;stroke-linecap:round;"/>
     </g>
     <g id="text_11">
      <!-- 0.6 -->
      <g style="fill:#262626;" transform="translate(92.21 244.74407)scale(0.11 -0.11)">
       <use xlink:href="#ArialMT-48"/>
       <use x="55.615234" xlink:href="#ArialMT-46"/>
       <use x="83.398438" xlink:href="#ArialMT-54"/>
      </g>
     </g>
    </g>
    <g id="ytick_5">
     <g id="line2d_11">
      <path clip-path="url(#p46e66e9851)" d="M 117 176.563636 
L 446.727273 176.563636 
" style="fill:none;stroke:#ffffff;stroke-linecap:round;"/>
     </g>
     <g id="text_12">
      <!-- 0.8 -->
      <g style="fill:#262626;" transform="translate(92.21 180.500433)scale(0.11 -0.11)">
       <use xlink:href="#ArialMT-48"/>
       <use x="55.615234" xlink:href="#ArialMT-46"/>
       <use x="83.398438" xlink:href="#ArialMT-56"/>
      </g>
     </g>
    </g>
    <g id="ytick_6">
     <g id="line2d_12">
      <path clip-path="url(#p46e66e9851)" d="M 117 112.32 
L 446.727273 112.32 
" style="fill:none;stroke:#ffffff;stroke-linecap:round;"/>
     </g>
     <g id="text_13">
      <!-- 1.0 -->
      <g style="fill:#262626;" transform="translate(92.21 116.256797)scale(0.11 -0.11)">
       <use xlink:href="#ArialMT-49"/>
       <use x="55.615234" xlink:href="#ArialMT-46"/>
       <use x="83.398438" xlink:href="#ArialMT-48"/>
      </g>
     </g>
    </g>
    <g id="text_14">
     <!-- $x_{2}$ -->
     <defs>
      <path d="M 19.1875 8.296875 
L 53.609375 8.296875 
L 53.609375 0 
L 7.328125 0 
L 7.328125 8.296875 
Q 12.9375 14.109375 22.625 23.890625 
Q 32.328125 33.6875 34.8125 36.53125 
Q 39.546875 41.84375 41.421875 45.53125 
Q 43.3125 49.21875 43.3125 52.78125 
Q 43.3125 58.59375 39.234375 62.25 
Q 35.15625 65.921875 28.609375 65.921875 
Q 23.96875 65.921875 18.8125 64.3125 
Q 13.671875 62.703125 7.8125 59.421875 
L 7.8125 69.390625 
Q 13.765625 71.78125 18.9375 73 
Q 24.125 74.21875 28.421875 74.21875 
Q 39.75 74.21875 46.484375 68.546875 
Q 53.21875 62.890625 53.21875 53.421875 
Q 53.21875 48.921875 51.53125 44.890625 
Q 49.859375 40.875 45.40625 35.40625 
Q 44.1875 33.984375 37.640625 27.21875 
Q 31.109375 20.453125 19.1875 8.296875 
z
" id="DejaVuSans-50"/>
     </defs>
     <g style="fill:#262626;" transform="translate(80.991818 269.351591)scale(0.18 -0.18)">
      <use transform="translate(0 0.3125)" xlink:href="#DejaVuSans-Oblique-120"/>
      <use transform="translate(59.179688 -16.09375)scale(0.7)" xlink:href="#DejaVuSans-50"/>
     </g>
    </g>
   </g>
   <g id="PathCollection_1">
    <path clip-path="url(#p46e66e9851)" d="M 122.588598 433.538182 
L 128.177196 433.538182 
L 133.765794 433.538182 
L 139.354391 433.538182 
L 144.942989 433.538182 
L 150.531587 433.538182 
L 156.120185 433.538182 
L 161.708783 433.538182 
L 167.297381 433.538182 
L 172.885978 433.538182 
L 178.474576 433.538182 
L 184.063174 433.538182 
L 189.651772 433.538182 
L 195.24037 433.538182 
L 200.828968 433.538182 
L 206.417565 433.538182 
L 212.006163 433.538182 
L 217.594761 433.538182 
L 223.183359 433.538182 
L 228.771957 433.538182 
L 234.360555 433.538182 
L 239.949153 433.538182 
L 245.53775 433.538182 
L 251.126348 433.538182 
L 256.714946 433.538182 
L 262.303544 433.538182 
L 267.892142 433.538182 
L 273.48074 433.538182 
L 279.069337 433.538182 
L 284.657935 433.538182 
L 290.246533 433.538182 
L 295.835131 433.538182 
L 301.423729 433.538182 
L 307.012327 433.538182 
L 312.600924 433.538182 
L 318.189522 433.538182 
L 323.77812 433.538182 
L 329.366718 433.538182 
L 334.955316 433.538182 
L 340.543914 433.538182 
L 346.132512 433.538182 
L 351.721109 433.538182 
L 357.309707 433.538182 
L 362.898305 433.538182 
L 368.486903 433.538182 
L 374.075501 433.538182 
L 379.664099 433.538182 
L 385.252696 433.538182 
L 390.841294 433.538182 
L 396.429892 433.538182 
L 402.01849 433.538182 
L 407.607088 433.538182 
L 413.195686 433.538182 
L 418.784284 433.538182 
L 424.372881 433.538182 
L 429.961479 433.538182 
L 435.550077 433.538182 
L 441.138675 433.538182 
L 446.727273 433.538182 
L 446.727273 428.093806 
L 446.727273 422.64943 
L 446.727273 417.205054 
L 446.727273 411.760678 
L 446.727273 406.316302 
L 446.727273 400.871926 
L 446.727273 395.42755 
L 446.727273 389.983174 
L 446.727273 384.538798 
L 446.727273 379.094422 
L 446.727273 373.650046 
L 446.727273 368.20567 
L 446.727273 362.761294 
L 446.727273 357.316918 
L 446.727273 351.872542 
L 446.727273 346.428166 
L 446.727273 340.98379 
L 446.727273 335.539414 
L 446.727273 330.095039 
L 446.727273 324.650663 
L 446.727273 319.206287 
L 446.727273 313.761911 
L 446.727273 308.317535 
L 446.727273 302.873159 
L 446.727273 297.428783 
L 446.727273 291.984407 
L 446.727273 286.540031 
L 446.727273 281.095655 
L 446.727273 275.651279 
L 446.727273 270.206903 
L 446.727273 264.762527 
L 446.727273 259.318151 
L 446.727273 253.873775 
L 446.727273 248.429399 
L 446.727273 242.985023 
L 446.727273 237.540647 
L 446.727273 232.096271 
L 446.727273 226.651895 
L 446.727273 221.207519 
L 446.727273 215.763143 
L 446.727273 210.318767 
L 446.727273 204.874391 
L 446.727273 199.430015 
L 446.727273 193.985639 
L 446.727273 188.541263 
L 446.727273 183.096888 
L 446.727273 177.652512 
L 446.727273 172.208136 
L 446.727273 166.76376 
L 446.727273 161.319384 
L 446.727273 155.875008 
L 446.727273 150.430632 
L 446.727273 144.986256 
L 446.727273 139.54188 
L 446.727273 134.097504 
L 446.727273 128.653128 
L 446.727273 123.208752 
L 446.727273 117.764376 
L 446.727273 112.32 
L 441.138675 112.32 
L 435.550077 112.32 
L 429.961479 112.32 
L 424.372881 112.32 
L 418.784284 112.32 
L 413.195686 112.32 
L 407.607088 112.32 
L 402.01849 112.32 
L 396.429892 112.32 
L 390.841294 112.32 
L 385.252696 112.32 
L 379.664099 112.32 
L 374.075501 112.32 
L 368.486903 112.32 
L 362.898305 112.32 
L 357.309707 112.32 
L 351.721109 112.32 
L 346.132512 112.32 
L 340.543914 112.32 
L 334.955316 112.32 
L 329.366718 112.32 
L 323.77812 112.32 
L 318.189522 112.32 
L 312.600924 112.32 
L 307.012327 112.32 
L 301.423729 112.32 
L 295.835131 112.32 
L 290.246533 112.32 
L 284.657935 112.32 
L 279.069337 112.32 
L 273.48074 112.32 
L 267.892142 112.32 
L 262.303544 112.32 
L 256.714946 112.32 
L 251.126348 112.32 
L 245.53775 112.32 
L 239.949153 112.32 
L 234.360555 112.32 
L 228.771957 112.32 
L 223.183359 112.32 
L 217.594761 112.32 
L 212.006163 112.32 
L 206.417565 112.32 
L 200.828968 112.32 
L 195.24037 112.32 
L 189.651772 112.32 
L 184.063174 112.32 
L 178.474576 112.32 
L 172.885978 112.32 
L 167.297381 112.32 
L 161.708783 112.32 
L 156.120185 112.32 
L 150.531587 112.32 
L 144.942989 112.32 
L 139.354391 112.32 
L 133.765794 112.32 
L 128.177196 112.32 
L 122.588598 112.32 
L 117 112.32 
L 117 117.764376 
L 117 123.208752 
L 117 128.653128 
L 117 134.097504 
L 117 139.54188 
L 117 144.986256 
L 117 150.430632 
L 117 155.875008 
L 117 161.319384 
L 117 166.76376 
L 117 172.208136 
L 117 177.652512 
L 117 183.096888 
L 117 188.541263 
L 117 193.985639 
L 117 199.430015 
L 117 204.874391 
L 117 210.318767 
L 117 215.763143 
L 117 221.207519 
L 117 226.651895 
L 117 232.096271 
L 117 237.540647 
L 117 242.985023 
L 117 248.429399 
L 117 253.873775 
L 117 259.318151 
L 117 264.762527 
L 117 270.206903 
L 117 275.651279 
L 117 281.095655 
L 117 286.540031 
L 117 291.984407 
L 117 297.428783 
L 117 302.873159 
L 117 308.317535 
L 117 313.761911 
L 117 319.206287 
L 117 324.650663 
L 117 330.095039 
L 117 335.539414 
L 117 340.98379 
L 117 346.428166 
L 117 351.872542 
L 117 357.316918 
L 117 362.761294 
L 117 368.20567 
L 117 373.650046 
L 117 379.094422 
L 117 384.538798 
L 117 389.983174 
L 117 395.42755 
L 117 400.871926 
L 117 406.316302 
L 117 411.760678 
L 117 417.205054 
L 117 422.64943 
L 117 428.093806 
L 117 433.538182 
z
M 369.209376 379.094422 
L 368.486903 378.818355 
L 362.898305 376.145308 
L 358.550996 373.650046 
L 357.309707 373.027835 
L 351.721109 369.802197 
L 349.333003 368.20567 
L 346.132512 366.314561 
L 340.953749 362.761294 
L 340.543914 362.510427 
L 334.955316 358.77449 
L 333.023947 357.316918 
L 329.366718 354.823894 
L 325.536404 351.872542 
L 323.77812 350.637372 
L 318.427182 346.428166 
L 318.189522 346.25613 
L 312.600924 341.973941 
L 311.415706 340.98379 
L 307.012327 337.555552 
L 304.640114 335.539414 
L 301.423729 332.968131 
L 298.100683 330.095039 
L 295.835131 328.235364 
L 291.759379 324.650663 
L 290.246533 323.375621 
L 285.586358 319.206287 
L 284.657935 318.402889 
L 279.558333 313.761911 
L 279.069337 313.327465 
L 273.657333 308.317535 
L 273.48074 308.156454 
L 267.892142 302.902464 
L 267.861396 302.873159 
L 262.303544 297.586271 
L 262.140703 297.428783 
L 256.714946 292.143045 
L 256.553286 291.984407 
L 251.126348 286.569983 
L 251.096267 286.540031 
L 245.703098 281.095655 
L 245.53775 280.923618 
L 240.395107 275.651279 
L 239.949153 275.174902 
L 235.185235 270.206903 
L 234.360555 269.302439 
L 230.080774 264.762527 
L 228.771957 263.288722 
L 225.092296 259.318151 
L 223.183359 257.111064 
L 220.234158 253.873775 
L 217.594761 250.740393 
L 215.525216 248.429399 
L 212.006163 244.139655 
L 210.989783 242.985023 
L 206.594159 237.540647 
L 206.417565 237.30912 
L 202.096858 232.096271 
L 200.828968 230.383363 
L 197.799434 226.651895 
L 195.24037 223.089047 
L 193.744187 221.207519 
L 189.909284 215.763143 
L 189.651772 215.363884 
L 186.004379 210.318767 
L 184.063174 207.200869 
L 182.424355 204.874391 
L 179.11327 199.430015 
L 178.474576 198.22076 
L 175.913215 193.985639 
L 173.169358 188.541263 
L 172.885978 187.837434 
L 170.675502 183.096888 
L 168.792481 177.652512 
L 167.64144 172.208136 
L 168.019854 166.76376 
L 172.885978 162.023213 
L 178.474576 161.654564 
L 184.063174 162.775901 
L 189.651772 164.610327 
L 194.517896 166.76376 
L 195.24037 167.039826 
L 200.828968 169.712874 
L 205.176277 172.208136 
L 206.417565 172.830347 
L 212.006163 176.055985 
L 214.39427 177.652512 
L 217.594761 179.543621 
L 222.773524 183.096888 
L 223.183359 183.347754 
L 228.771957 187.083692 
L 230.703326 188.541263 
L 234.360555 191.034287 
L 238.190869 193.985639 
L 239.949153 195.22081 
L 245.300091 199.430015 
L 245.53775 199.602052 
L 251.126348 203.884241 
L 252.311567 204.874391 
L 256.714946 208.302629 
L 259.087159 210.318767 
L 262.303544 212.890051 
L 265.626589 215.763143 
L 267.892142 217.622818 
L 271.967894 221.207519 
L 273.48074 222.482561 
L 278.140915 226.651895 
L 279.069337 227.455293 
L 284.16894 232.096271 
L 284.657935 232.530717 
L 290.069939 237.540647 
L 290.246533 237.701728 
L 295.835131 242.955718 
L 295.865877 242.985023 
L 301.423729 248.271911 
L 301.586569 248.429399 
L 307.012327 253.715137 
L 307.173986 253.873775 
L 312.600924 259.288199 
L 312.631006 259.318151 
L 318.024175 264.762527 
L 318.189522 264.934563 
L 323.332166 270.206903 
L 323.77812 270.683279 
L 328.542038 275.651279 
L 329.366718 276.555742 
L 333.646498 281.095655 
L 334.955316 282.569459 
L 338.634976 286.540031 
L 340.543914 288.747117 
L 343.493115 291.984407 
L 346.132512 295.117789 
L 348.202057 297.428783 
L 351.721109 301.718527 
L 352.737489 302.873159 
L 357.133114 308.317535 
L 357.309707 308.549061 
L 361.630415 313.761911 
L 362.898305 315.474819 
L 365.927839 319.206287 
L 368.486903 322.769135 
L 369.983086 324.650663 
L 373.817988 330.095039 
L 374.075501 330.494297 
L 377.722893 335.539414 
L 379.664099 338.657313 
L 381.302917 340.98379 
L 384.614002 346.428166 
L 385.252696 347.637422 
L 387.814057 351.872542 
L 390.557914 357.316918 
L 390.841294 358.020747 
L 393.051771 362.761294 
L 394.934792 368.20567 
L 396.085833 373.650046 
L 395.707419 379.094422 
L 390.841294 383.834969 
L 385.252696 384.203618 
L 379.664099 383.082281 
L 374.075501 381.247855 
z
" style="fill:#481b6d;"/>
   </g>
   <g id="PathCollection_2">
    <path clip-path="url(#p46e66e9851)" d="M 374.075501 381.247855 
L 379.664099 383.082281 
L 385.252696 384.203618 
L 390.841294 383.834969 
L 395.707419 379.094422 
L 396.085833 373.650046 
L 394.934792 368.20567 
L 393.051771 362.761294 
L 390.841294 358.020747 
L 390.557914 357.316918 
L 387.814057 351.872542 
L 385.252696 347.637422 
L 384.614002 346.428166 
L 381.302917 340.98379 
L 379.664099 338.657313 
L 377.722893 335.539414 
L 374.075501 330.494297 
L 373.817988 330.095039 
L 369.983086 324.650663 
L 368.486903 322.769135 
L 365.927839 319.206287 
L 362.898305 315.474819 
L 361.630415 313.761911 
L 357.309707 308.549061 
L 357.133114 308.317535 
L 352.737489 302.873159 
L 351.721109 301.718527 
L 348.202057 297.428783 
L 346.132512 295.117789 
L 343.493115 291.984407 
L 340.543914 288.747117 
L 338.634976 286.540031 
L 334.955316 282.569459 
L 333.646498 281.095655 
L 329.366718 276.555742 
L 328.542038 275.651279 
L 323.77812 270.683279 
L 323.332166 270.206903 
L 318.189522 264.934563 
L 318.024175 264.762527 
L 312.631006 259.318151 
L 312.600924 259.288199 
L 307.173986 253.873775 
L 307.012327 253.715137 
L 301.586569 248.429399 
L 301.423729 248.271911 
L 295.865877 242.985023 
L 295.835131 242.955718 
L 290.246533 237.701728 
L 290.069939 237.540647 
L 284.657935 232.530717 
L 284.16894 232.096271 
L 279.069337 227.455293 
L 278.140915 226.651895 
L 273.48074 222.482561 
L 271.967894 221.207519 
L 267.892142 217.622818 
L 265.626589 215.763143 
L 262.303544 212.890051 
L 259.087159 210.318767 
L 256.714946 208.302629 
L 252.311567 204.874391 
L 251.126348 203.884241 
L 245.53775 199.602052 
L 245.300091 199.430015 
L 239.949153 195.22081 
L 238.190869 193.985639 
L 234.360555 191.034287 
L 230.703326 188.541263 
L 228.771957 187.083692 
L 223.183359 183.347754 
L 222.773524 183.096888 
L 217.594761 179.543621 
L 214.39427 177.652512 
L 212.006163 176.055985 
L 206.417565 172.830347 
L 205.176277 172.208136 
L 200.828968 169.712874 
L 195.24037 167.039826 
L 194.517896 166.76376 
L 189.651772 164.610327 
L 184.063174 162.775901 
L 178.474576 161.654564 
L 172.885978 162.023213 
L 168.019854 166.76376 
L 167.64144 172.208136 
L 168.792481 177.652512 
L 170.675502 183.096888 
L 172.885978 187.837434 
L 173.169358 188.541263 
L 175.913215 193.985639 
L 178.474576 198.22076 
L 179.11327 199.430015 
L 182.424355 204.874391 
L 184.063174 207.200869 
L 186.004379 210.318767 
L 189.651772 215.363884 
L 189.909284 215.763143 
L 193.744187 221.207519 
L 195.24037 223.089047 
L 197.799434 226.651895 
L 200.828968 230.383363 
L 202.096858 232.096271 
L 206.417565 237.30912 
L 206.594159 237.540647 
L 210.989783 242.985023 
L 212.006163 244.139655 
L 215.525216 248.429399 
L 217.594761 250.740393 
L 220.234158 253.873775 
L 223.183359 257.111064 
L 225.092296 259.318151 
L 228.771957 263.288722 
L 230.080774 264.762527 
L 234.360555 269.302439 
L 235.185235 270.206903 
L 239.949153 275.174902 
L 240.395107 275.651279 
L 245.53775 280.923618 
L 245.703098 281.095655 
L 251.096267 286.540031 
L 251.126348 286.569983 
L 256.553286 291.984407 
L 256.714946 292.143045 
L 262.140703 297.428783 
L 262.303544 297.586271 
L 267.861396 302.873159 
L 267.892142 302.902464 
L 273.48074 308.156454 
L 273.657333 308.317535 
L 279.069337 313.327465 
L 279.558333 313.761911 
L 284.657935 318.402889 
L 285.586358 319.206287 
L 290.246533 323.375621 
L 291.759379 324.650663 
L 295.835131 328.235364 
L 298.100683 330.095039 
L 301.423729 332.968131 
L 304.640114 335.539414 
L 307.012327 337.555552 
L 311.415706 340.98379 
L 312.600924 341.973941 
L 318.189522 346.25613 
L 318.427182 346.428166 
L 323.77812 350.637372 
L 325.536404 351.872542 
L 329.366718 354.823894 
L 333.023947 357.316918 
L 334.955316 358.77449 
L 340.543914 362.510427 
L 340.953749 362.761294 
L 346.132512 366.314561 
L 349.333003 368.20567 
L 351.721109 369.802197 
L 357.309707 373.027835 
L 358.550996 373.650046 
L 362.898305 376.145308 
L 368.486903 378.818355 
L 369.209376 379.094422 
z
M 351.829962 357.316918 
L 351.721109 357.279412 
L 346.132512 354.596389 
L 341.279915 351.872542 
L 340.543914 351.498506 
L 334.955316 348.18029 
L 332.371555 346.428166 
L 329.366718 344.563054 
L 324.256827 340.98379 
L 323.77812 340.673969 
L 318.189522 336.716606 
L 316.678998 335.539414 
L 312.600924 332.568402 
L 309.505809 330.095039 
L 307.012327 328.214804 
L 302.662263 324.650663 
L 301.423729 323.684103 
L 296.092876 319.206287 
L 295.835131 318.99813 
L 290.246533 314.2643 
L 289.681623 313.761911 
L 284.657935 309.4142 
L 283.44956 308.317535 
L 279.069337 304.412747 
L 277.406951 302.873159 
L 273.48074 299.267966 
L 271.534662 297.428783 
L 267.892142 293.983669 
L 265.819055 291.984407 
L 262.303544 288.559618 
L 260.251321 286.540031 
L 256.714946 282.991511 
L 254.827042 281.095655 
L 251.126348 277.270765 
L 249.545976 275.651279 
L 245.53775 271.384094 
L 244.412034 270.206903 
L 239.949153 265.312859 
L 239.433455 264.762527 
L 234.574226 259.318151 
L 234.360555 259.067057 
L 229.764121 253.873775 
L 228.771957 252.667203 
L 225.113401 248.429399 
L 223.183359 246.000265 
L 220.644476 242.985023 
L 217.594761 239.01219 
L 216.386386 237.540647 
L 212.324192 232.096271 
L 212.006163 231.629918 
L 208.332085 226.651895 
L 206.417565 223.724602 
L 204.619028 221.207519 
L 201.212913 215.763143 
L 200.828968 215.046136 
L 198.032966 210.318767 
L 195.27887 204.874391 
L 195.24037 204.768348 
L 193.079155 199.430015 
L 191.741664 193.985639 
L 192.209158 188.541263 
L 195.24037 185.588276 
L 200.828968 185.132847 
L 206.417565 186.435822 
L 211.897311 188.541263 
L 212.006163 188.57877 
L 217.594761 191.261793 
L 222.447358 193.985639 
L 223.183359 194.359676 
L 228.771957 197.677892 
L 231.355717 199.430015 
L 234.360555 201.295128 
L 239.470446 204.874391 
L 239.949153 205.184213 
L 245.53775 209.141576 
L 247.048274 210.318767 
L 251.126348 213.28978 
L 254.221464 215.763143 
L 256.714946 217.643378 
L 261.06501 221.207519 
L 262.303544 222.174079 
L 267.634396 226.651895 
L 267.892142 226.860052 
L 273.48074 231.593882 
L 274.04565 232.096271 
L 279.069337 236.443981 
L 280.277713 237.540647 
L 284.657935 241.445435 
L 286.320321 242.985023 
L 290.246533 246.590216 
L 292.192611 248.429399 
L 295.835131 251.874513 
L 297.908217 253.873775 
L 301.423729 257.298564 
L 303.475951 259.318151 
L 307.012327 262.866671 
L 308.90023 264.762527 
L 312.600924 268.587417 
L 314.181296 270.206903 
L 318.189522 274.474087 
L 319.315239 275.651279 
L 323.77812 280.545323 
L 324.293818 281.095655 
L 329.153047 286.540031 
L 329.366718 286.791125 
L 333.963152 291.984407 
L 334.955316 293.190979 
L 338.613871 297.428783 
L 340.543914 299.857917 
L 343.082797 302.873159 
L 346.132512 306.845992 
L 347.340887 308.317535 
L 351.403081 313.761911 
L 351.721109 314.228264 
L 355.395188 319.206287 
L 357.309707 322.13358 
L 359.108245 324.650663 
L 362.51436 330.095039 
L 362.898305 330.812046 
L 365.694306 335.539414 
L 368.448403 340.98379 
L 368.486903 341.089834 
L 370.648118 346.428166 
L 371.985609 351.872542 
L 371.518115 357.316918 
L 368.486903 360.269905 
L 362.898305 360.725335 
L 357.309707 359.42236 
z
" style="fill:#3f4788;"/>
   </g>
   <g id="PathCollection_3">
    <path clip-path="url(#p46e66e9851)" d="M 357.309707 359.42236 
L 362.898305 360.725335 
L 368.486903 360.269905 
L 371.518115 357.316918 
L 371.985609 351.872542 
L 370.648118 346.428166 
L 368.486903 341.089834 
L 368.448403 340.98379 
L 365.694306 335.539414 
L 362.898305 330.812046 
L 362.51436 330.095039 
L 359.108245 324.650663 
L 357.309707 322.13358 
L 355.395188 319.206287 
L 351.721109 314.228264 
L 351.403081 313.761911 
L 347.340887 308.317535 
L 346.132512 306.845992 
L 343.082797 302.873159 
L 340.543914 299.857917 
L 338.613871 297.428783 
L 334.955316 293.190979 
L 333.963152 291.984407 
L 329.366718 286.791125 
L 329.153047 286.540031 
L 324.293818 281.095655 
L 323.77812 280.545323 
L 319.315239 275.651279 
L 318.189522 274.474087 
L 314.181296 270.206903 
L 312.600924 268.587417 
L 308.90023 264.762527 
L 307.012327 262.866671 
L 303.475951 259.318151 
L 301.423729 257.298564 
L 297.908217 253.873775 
L 295.835131 251.874513 
L 292.192611 248.429399 
L 290.246533 246.590216 
L 286.320321 242.985023 
L 284.657935 241.445435 
L 280.277713 237.540647 
L 279.069337 236.443981 
L 274.04565 232.096271 
L 273.48074 231.593882 
L 267.892142 226.860052 
L 267.634396 226.651895 
L 262.303544 222.174079 
L 261.06501 221.207519 
L 256.714946 217.643378 
L 254.221464 215.763143 
L 251.126348 213.28978 
L 247.048274 210.318767 
L 245.53775 209.141576 
L 239.949153 205.184213 
L 239.470446 204.874391 
L 234.360555 201.295128 
L 231.355717 199.430015 
L 228.771957 197.677892 
L 223.183359 194.359676 
L 222.447358 193.985639 
L 217.594761 191.261793 
L 212.006163 188.57877 
L 211.897311 188.541263 
L 206.417565 186.435822 
L 200.828968 185.132847 
L 195.24037 185.588276 
L 192.209158 188.541263 
L 191.741664 193.985639 
L 193.079155 199.430015 
L 195.24037 204.768348 
L 195.27887 204.874391 
L 198.032966 210.318767 
L 200.828968 215.046136 
L 201.212913 215.763143 
L 204.619028 221.207519 
L 206.417565 223.724602 
L 208.332085 226.651895 
L 212.006163 231.629918 
L 212.324192 232.096271 
L 216.386386 237.540647 
L 217.594761 239.01219 
L 220.644476 242.985023 
L 223.183359 246.000265 
L 225.113401 248.429399 
L 228.771957 252.667203 
L 229.764121 253.873775 
L 234.360555 259.067057 
L 234.574226 259.318151 
L 239.433455 264.762527 
L 239.949153 265.312859 
L 244.412034 270.206903 
L 245.53775 271.384094 
L 249.545976 275.651279 
L 251.126348 277.270765 
L 254.827042 281.095655 
L 256.714946 282.991511 
L 260.251321 286.540031 
L 262.303544 288.559618 
L 265.819055 291.984407 
L 267.892142 293.983669 
L 271.534662 297.428783 
L 273.48074 299.267966 
L 277.406951 302.873159 
L 279.069337 304.412747 
L 283.44956 308.317535 
L 284.657935 309.4142 
L 289.681623 313.761911 
L 290.246533 314.2643 
L 295.835131 318.99813 
L 296.092876 319.206287 
L 301.423729 323.684103 
L 302.662263 324.650663 
L 307.012327 328.214804 
L 309.505809 330.095039 
L 312.600924 332.568402 
L 316.678998 335.539414 
L 318.189522 336.716606 
L 323.77812 340.673969 
L 324.256827 340.98379 
L 329.366718 344.563054 
L 332.371555 346.428166 
L 334.955316 348.18029 
L 340.543914 351.498506 
L 341.279915 351.872542 
L 346.132512 354.596389 
L 351.721109 357.279412 
L 351.829962 357.316918 
z
M 338.687477 340.98379 
L 334.955316 339.33977 
L 329.366718 336.372353 
L 328.067767 335.539414 
L 323.77812 332.976851 
L 319.474164 330.095039 
L 318.189522 329.286018 
L 312.600924 325.369047 
L 311.66902 324.650663 
L 307.012327 321.238683 
L 304.457746 319.206287 
L 301.423729 316.890219 
L 297.613234 313.761911 
L 295.835131 312.347961 
L 291.076984 308.317535 
L 290.246533 307.629699 
L 284.803553 302.873159 
L 284.657935 302.747545 
L 279.069337 297.73568 
L 278.738397 297.428783 
L 273.48074 292.561762 
L 272.87331 291.984407 
L 267.892142 287.213665 
L 267.200663 286.540031 
L 262.303544 281.687409 
L 261.710895 281.095655 
L 256.714946 275.973678 
L 256.399919 275.651279 
L 251.25529 270.206903 
L 251.126348 270.065043 
L 246.243807 264.762527 
L 245.53775 263.953507 
L 241.400557 259.318151 
L 239.949153 257.585935 
L 236.737975 253.873775 
L 234.360555 250.918055 
L 232.27432 248.429399 
L 228.771957 243.892878 
L 228.034542 242.985023 
L 224.01381 237.540647 
L 223.183359 236.289157 
L 220.225207 232.096271 
L 217.594761 227.917325 
L 216.739759 226.651895 
L 213.693734 221.207519 
L 212.006163 217.571672 
L 211.096996 215.763143 
L 209.484848 210.318767 
L 209.758917 204.874391 
L 212.006163 202.685139 
L 217.594761 202.418142 
L 223.183359 203.988686 
L 225.039795 204.874391 
L 228.771957 206.518411 
L 234.360555 209.485829 
L 235.659506 210.318767 
L 239.949153 212.88133 
L 244.253109 215.763143 
L 245.53775 216.572164 
L 251.126348 220.489135 
L 252.058253 221.207519 
L 256.714946 224.619498 
L 259.269526 226.651895 
L 262.303544 228.967963 
L 266.114039 232.096271 
L 267.892142 233.51022 
L 272.650288 237.540647 
L 273.48074 238.228483 
L 278.92372 242.985023 
L 279.069337 243.110637 
L 284.657935 248.122502 
L 284.988875 248.429399 
L 290.246533 253.29642 
L 290.853963 253.873775 
L 295.835131 258.644516 
L 296.52661 259.318151 
L 301.423729 264.170773 
L 302.016378 264.762527 
L 307.012327 269.884503 
L 307.327353 270.206903 
L 312.471983 275.651279 
L 312.600924 275.793139 
L 317.483466 281.095655 
L 318.189522 281.904675 
L 322.326715 286.540031 
L 323.77812 288.272247 
L 326.989297 291.984407 
L 329.366718 294.940127 
L 331.452953 297.428783 
L 334.955316 301.965303 
L 335.69273 302.873159 
L 339.713462 308.317535 
L 340.543914 309.569024 
L 343.502066 313.761911 
L 346.132512 317.940857 
L 346.987514 319.206287 
L 350.033539 324.650663 
L 351.721109 328.28651 
L 352.630277 330.095039 
L 354.242425 335.539414 
L 353.968355 340.98379 
L 351.721109 343.173043 
L 346.132512 343.44004 
L 340.543914 341.869496 
z
" style="fill:#2e6e8e;"/>
   </g>
   <g id="PathCollection_4">
    <path clip-path="url(#p46e66e9851)" d="M 340.543914 341.869496 
L 346.132512 343.44004 
L 351.721109 343.173043 
L 353.968355 340.98379 
L 354.242425 335.539414 
L 352.630277 330.095039 
L 351.721109 328.28651 
L 350.033539 324.650663 
L 346.987514 319.206287 
L 346.132512 317.940857 
L 343.502066 313.761911 
L 340.543914 309.569024 
L 339.713462 308.317535 
L 335.69273 302.873159 
L 334.955316 301.965303 
L 331.452953 297.428783 
L 329.366718 294.940127 
L 326.989297 291.984407 
L 323.77812 288.272247 
L 322.326715 286.540031 
L 318.189522 281.904675 
L 317.483466 281.095655 
L 312.600924 275.793139 
L 312.471983 275.651279 
L 307.327353 270.206903 
L 307.012327 269.884503 
L 302.016378 264.762527 
L 301.423729 264.170773 
L 296.52661 259.318151 
L 295.835131 258.644516 
L 290.853963 253.873775 
L 290.246533 253.29642 
L 284.988875 248.429399 
L 284.657935 248.122502 
L 279.069337 243.110637 
L 278.92372 242.985023 
L 273.48074 238.228483 
L 272.650288 237.540647 
L 267.892142 233.51022 
L 266.114039 232.096271 
L 262.303544 228.967963 
L 259.269526 226.651895 
L 256.714946 224.619498 
L 252.058253 221.207519 
L 251.126348 220.489135 
L 245.53775 216.572164 
L 244.253109 215.763143 
L 239.949153 212.88133 
L 235.659506 210.318767 
L 234.360555 209.485829 
L 228.771957 206.518411 
L 225.039795 204.874391 
L 223.183359 203.988686 
L 217.594761 202.418142 
L 212.006163 202.685139 
L 209.758917 204.874391 
L 209.484848 210.318767 
L 211.096996 215.763143 
L 212.006163 217.571672 
L 213.693734 221.207519 
L 216.739759 226.651895 
L 217.594761 227.917325 
L 220.225207 232.096271 
L 223.183359 236.289157 
L 224.01381 237.540647 
L 228.034542 242.985023 
L 228.771957 243.892878 
L 232.27432 248.429399 
L 234.360555 250.918055 
L 236.737975 253.873775 
L 239.949153 257.585935 
L 241.400557 259.318151 
L 245.53775 263.953507 
L 246.243807 264.762527 
L 251.126348 270.065043 
L 251.25529 270.206903 
L 256.399919 275.651279 
L 256.714946 275.973678 
L 261.710895 281.095655 
L 262.303544 281.687409 
L 267.200663 286.540031 
L 267.892142 287.213665 
L 272.87331 291.984407 
L 273.48074 292.561762 
L 278.738397 297.428783 
L 279.069337 297.73568 
L 284.657935 302.747545 
L 284.803553 302.873159 
L 290.246533 307.629699 
L 291.076984 308.317535 
L 295.835131 312.347961 
L 297.613234 313.761911 
L 301.423729 316.890219 
L 304.457746 319.206287 
L 307.012327 321.238683 
L 311.66902 324.650663 
L 312.600924 325.369047 
L 318.189522 329.286018 
L 319.474164 330.095039 
L 323.77812 332.976851 
L 328.067767 335.539414 
L 329.366718 336.372353 
L 334.955316 339.33977 
L 338.687477 340.98379 
z
M 322.800225 324.650663 
L 318.189522 322.099565 
L 313.523056 319.206287 
L 312.600924 318.657301 
L 307.012327 314.819248 
L 305.621794 313.761911 
L 301.423729 310.672061 
L 298.453807 308.317535 
L 295.835131 306.288598 
L 291.702117 302.873159 
L 290.246533 301.686228 
L 285.303074 297.428783 
L 284.657935 296.875219 
L 279.208062 291.984407 
L 279.069337 291.859167 
L 273.48074 286.632467 
L 273.384373 286.540031 
L 267.892142 281.189535 
L 267.797257 281.095655 
L 262.432101 275.651279 
L 262.303544 275.516134 
L 257.283174 270.206903 
L 256.714946 269.578413 
L 252.344721 264.762527 
L 251.126348 263.344506 
L 247.620433 259.318151 
L 245.53775 256.767054 
L 243.120853 253.873775 
L 239.949153 249.784047 
L 238.863806 248.429399 
L 234.924083 242.985023 
L 234.360555 242.086689 
L 231.390633 237.540647 
L 228.771957 233.048931 
L 228.187815 232.096271 
L 225.917105 226.651895 
L 224.936487 221.207519 
L 228.771957 217.471029 
L 234.360555 218.426341 
L 239.949153 220.638452 
L 240.927048 221.207519 
L 245.53775 223.758616 
L 250.204217 226.651895 
L 251.126348 227.20088 
L 256.714946 231.038934 
L 258.105478 232.096271 
L 262.303544 235.186121 
L 265.273466 237.540647 
L 267.892142 239.569583 
L 272.025155 242.985023 
L 273.48074 244.171954 
L 278.424199 248.429399 
L 279.069337 248.982963 
L 284.519211 253.873775 
L 284.657935 253.999014 
L 290.246533 259.225715 
L 290.3429 259.318151 
L 295.835131 264.668647 
L 295.930016 264.762527 
L 301.295172 270.206903 
L 301.423729 270.342047 
L 306.444099 275.651279 
L 307.012327 276.279769 
L 311.382552 281.095655 
L 312.600924 282.513676 
L 316.106839 286.540031 
L 318.189522 289.091128 
L 320.60642 291.984407 
L 323.77812 296.074135 
L 324.863467 297.428783 
L 328.80319 302.873159 
L 329.366718 303.771493 
L 332.33664 308.317535 
L 334.955316 312.809251 
L 335.539458 313.761911 
L 337.810168 319.206287 
L 338.790786 324.650663 
L 334.955316 328.387153 
L 329.366718 327.431841 
L 323.77812 325.21973 
z
" style="fill:#21918c;"/>
   </g>
   <g id="PathCollection_5">
    <path clip-path="url(#p46e66e9851)" d="M 323.77812 325.21973 
L 329.366718 327.431841 
L 334.955316 328.387153 
L 338.790786 324.650663 
L 337.810168 319.206287 
L 335.539458 313.761911 
L 334.955316 312.809251 
L 332.33664 308.317535 
L 329.366718 303.771493 
L 328.80319 302.873159 
L 324.863467 297.428783 
L 323.77812 296.074135 
L 320.60642 291.984407 
L 318.189522 289.091128 
L 316.106839 286.540031 
L 312.600924 282.513676 
L 311.382552 281.095655 
L 307.012327 276.279769 
L 306.444099 275.651279 
L 301.423729 270.342047 
L 301.295172 270.206903 
L 295.930016 264.762527 
L 295.835131 264.668647 
L 290.3429 259.318151 
L 290.246533 259.225715 
L 284.657935 253.999014 
L 284.519211 253.873775 
L 279.069337 248.982963 
L 278.424199 248.429399 
L 273.48074 244.171954 
L 272.025155 242.985023 
L 267.892142 239.569583 
L 265.273466 237.540647 
L 262.303544 235.186121 
L 258.105478 232.096271 
L 256.714946 231.038934 
L 251.126348 227.20088 
L 250.204217 226.651895 
L 245.53775 223.758616 
L 240.927048 221.207519 
L 239.949153 220.638452 
L 234.360555 218.426341 
L 228.771957 217.471029 
L 224.936487 221.207519 
L 225.917105 226.651895 
L 228.187815 232.096271 
L 228.771957 233.048931 
L 231.390633 237.540647 
L 234.360555 242.086689 
L 234.924083 242.985023 
L 238.863806 248.429399 
L 239.949153 249.784047 
L 243.120853 253.873775 
L 245.53775 256.767054 
L 247.620433 259.318151 
L 251.126348 263.344506 
L 252.344721 264.762527 
L 256.714946 269.578413 
L 257.283174 270.206903 
L 262.303544 275.516134 
L 262.432101 275.651279 
L 267.797257 281.095655 
L 267.892142 281.189535 
L 273.384373 286.540031 
L 273.48074 286.632467 
L 279.069337 291.859167 
L 279.208062 291.984407 
L 284.657935 296.875219 
L 285.303074 297.428783 
L 290.246533 301.686228 
L 291.702117 302.873159 
L 295.835131 306.288598 
L 298.453807 308.317535 
L 301.423729 310.672061 
L 305.621794 313.761911 
L 307.012327 314.819248 
L 312.600924 318.657301 
L 313.523056 319.206287 
L 318.189522 322.099565 
L 322.800225 324.650663 
z
M 308.143453 308.317535 
L 307.012327 307.735761 
L 301.423729 304.051993 
L 299.842553 302.873159 
L 295.835131 299.917653 
L 292.691374 297.428783 
L 290.246533 295.494837 
L 286.068942 291.984407 
L 284.657935 290.787746 
L 279.893837 286.540031 
L 279.069337 285.790545 
L 274.105763 281.095655 
L 273.48074 280.486761 
L 268.661481 275.651279 
L 267.892142 274.848057 
L 263.531905 270.206903 
L 262.303544 268.83231 
L 258.700122 264.762527 
L 256.714946 262.380779 
L 254.160145 259.318151 
L 251.126348 255.414146 
L 249.916286 253.873775 
L 246.134935 248.429399 
L 245.53775 247.327464 
L 243.156008 242.985023 
L 241.080278 237.540647 
L 245.53775 233.198207 
L 251.126348 235.220369 
L 255.58382 237.540647 
L 256.714946 238.12242 
L 262.303544 241.806189 
L 263.88472 242.985023 
L 267.892142 245.940529 
L 271.035899 248.429399 
L 273.48074 250.363345 
L 277.658331 253.873775 
L 279.069337 255.070436 
L 283.833436 259.318151 
L 284.657935 260.067636 
L 289.621509 264.762527 
L 290.246533 265.371421 
L 295.065792 270.206903 
L 295.835131 271.010125 
L 300.195368 275.651279 
L 301.423729 277.025872 
L 305.027151 281.095655 
L 307.012327 283.477403 
L 309.567128 286.540031 
L 312.600924 290.444036 
L 313.810986 291.984407 
L 317.592338 297.428783 
L 318.189522 298.530718 
L 320.571265 302.873159 
L 322.646994 308.317535 
L 318.189522 312.659975 
L 312.600924 310.637813 
z
" style="fill:#2db27d;"/>
   </g>
   <g id="PathCollection_6">
    <path clip-path="url(#p46e66e9851)" d="M 312.600924 310.637813 
L 318.189522 312.659975 
L 322.646994 308.317535 
L 320.571265 302.873159 
L 318.189522 298.530718 
L 317.592338 297.428783 
L 313.810986 291.984407 
L 312.600924 290.444036 
L 309.567128 286.540031 
L 307.012327 283.477403 
L 305.027151 281.095655 
L 301.423729 277.025872 
L 300.195368 275.651279 
L 295.835131 271.010125 
L 295.065792 270.206903 
L 290.246533 265.371421 
L 289.621509 264.762527 
L 284.657935 260.067636 
L 283.833436 259.318151 
L 279.069337 255.070436 
L 277.658331 253.873775 
L 273.48074 250.363345 
L 271.035899 248.429399 
L 267.892142 245.940529 
L 263.88472 242.985023 
L 262.303544 241.806189 
L 256.714946 238.12242 
L 255.58382 237.540647 
L 251.126348 235.220369 
L 245.53775 233.198207 
L 241.080278 237.540647 
L 243.156008 242.985023 
L 245.53775 247.327464 
L 246.134935 248.429399 
L 249.916286 253.873775 
L 251.126348 255.414146 
L 254.160145 259.318151 
L 256.714946 262.380779 
L 258.700122 264.762527 
L 262.303544 268.83231 
L 263.531905 270.206903 
L 267.892142 274.848057 
L 268.661481 275.651279 
L 273.48074 280.486761 
L 274.105763 281.095655 
L 279.069337 285.790545 
L 279.893837 286.540031 
L 284.657935 290.787746 
L 286.068942 291.984407 
L 290.246533 295.494837 
L 292.691374 297.428783 
L 295.835131 299.917653 
L 299.842553 302.873159 
L 301.423729 304.051993 
L 307.012327 307.735761 
L 308.143453 308.317535 
z
M 300.22682 291.984407 
L 295.835131 290.577908 
L 290.246533 287.253433 
L 289.350085 286.540031 
L 284.657935 282.681701 
L 282.857154 281.095655 
L 279.069337 277.607941 
L 277.060843 275.651279 
L 273.48074 271.961213 
L 271.852679 270.206903 
L 267.892142 265.635841 
L 267.159842 264.762527 
L 263.747301 259.318151 
L 262.303544 255.039796 
L 261.938677 253.873775 
L 262.303544 253.518324 
L 263.500453 253.873775 
L 267.892142 255.280274 
L 273.48074 258.604749 
L 274.377188 259.318151 
L 279.069337 263.176481 
L 280.870119 264.762527 
L 284.657935 268.250241 
L 286.66643 270.206903 
L 290.246533 273.896969 
L 291.874594 275.651279 
L 295.835131 280.222341 
L 296.567431 281.095655 
L 299.979971 286.540031 
L 301.423729 290.818386 
L 301.788595 291.984407 
L 301.423729 292.339858 
z
" style="fill:#73d056;"/>
   </g>
   <g id="PathCollection_7">
    <path clip-path="url(#p46e66e9851)" d="M 301.423729 292.339858 
L 301.788595 291.984407 
L 301.423729 290.818386 
L 299.979971 286.540031 
L 296.567431 281.095655 
L 295.835131 280.222341 
L 291.874594 275.651279 
L 290.246533 273.896969 
L 286.66643 270.206903 
L 284.657935 268.250241 
L 280.870119 264.762527 
L 279.069337 263.176481 
L 274.377188 259.318151 
L 273.48074 258.604749 
L 267.892142 255.280274 
L 263.500453 253.873775 
L 262.303544 253.518324 
L 261.938677 253.873775 
L 262.303544 255.039796 
L 263.747301 259.318151 
L 267.159842 264.762527 
L 267.892142 265.635841 
L 271.852679 270.206903 
L 273.48074 271.961213 
L 277.060843 275.651279 
L 279.069337 277.607941 
L 282.857154 281.095655 
L 284.657935 282.681701 
L 289.350085 286.540031 
L 290.246533 287.253433 
L 295.835131 290.577908 
L 300.22682 291.984407 
z
" style="fill:#d0e11c;"/>
   </g>
   <g id="line2d_13">
    <path clip-path="url(#p46e66e9851)" d="M 117 208.685455 
L 446.727273 208.685455 
" style="fill:none;stroke:#ff0000;stroke-linecap:round;stroke-width:2;"/>
   </g>
   <g id="line2d_14">
    <path clip-path="url(#p46e66e9851)" d="M 215.918182 433.538182 
L 215.918182 112.32 
" style="fill:none;stroke:#008000;stroke-linecap:round;stroke-width:2;"/>
   </g>
   <g id="patch_3">
    <path d="M 117 433.538182 
L 117 112.32 
" style="fill:none;stroke:#ffffff;stroke-linecap:square;stroke-linejoin:miter;stroke-width:1.25;"/>
   </g>
   <g id="patch_4">
    <path d="M 446.727273 433.538182 
L 446.727273 112.32 
" style="fill:none;stroke:#ffffff;stroke-linecap:square;stroke-linejoin:miter;stroke-width:1.25;"/>
   </g>
   <g id="patch_5">
    <path d="M 117 433.538182 
L 446.727273 433.538182 
" style="fill:none;stroke:#ffffff;stroke-linecap:square;stroke-linejoin:miter;stroke-width:1.25;"/>
   </g>
   <g id="patch_6">
    <path d="M 117 112.32 
L 446.727273 112.32 
" style="fill:none;stroke:#ffffff;stroke-linecap:square;stroke-linejoin:miter;stroke-width:1.25;"/>
   </g>
   <g id="text_15">
    <!-- $x_{2} = 0.7$ -->
    <defs>
     <path d="M 10.59375 45.40625 
L 73.1875 45.40625 
L 73.1875 37.203125 
L 10.59375 37.203125 
z
M 10.59375 25.484375 
L 73.1875 25.484375 
L 73.1875 17.1875 
L 10.59375 17.1875 
z
" id="DejaVuSans-61"/>
     <path d="M 31.78125 66.40625 
Q 24.171875 66.40625 20.328125 58.90625 
Q 16.5 51.421875 16.5 36.375 
Q 16.5 21.390625 20.328125 13.890625 
Q 24.171875 6.390625 31.78125 6.390625 
Q 39.453125 6.390625 43.28125 13.890625 
Q 47.125 21.390625 47.125 36.375 
Q 47.125 51.421875 43.28125 58.90625 
Q 39.453125 66.40625 31.78125 66.40625 
z
M 31.78125 74.21875 
Q 44.046875 74.21875 50.515625 64.515625 
Q 56.984375 54.828125 56.984375 36.375 
Q 56.984375 17.96875 50.515625 8.265625 
Q 44.046875 -1.421875 31.78125 -1.421875 
Q 19.53125 -1.421875 13.0625 8.265625 
Q 6.59375 17.96875 6.59375 36.375 
Q 6.59375 54.828125 13.0625 64.515625 
Q 19.53125 74.21875 31.78125 74.21875 
z
" id="DejaVuSans-48"/>
     <path d="M 10.6875 12.40625 
L 21 12.40625 
L 21 0 
L 10.6875 0 
z
" id="DejaVuSans-46"/>
     <path d="M 8.203125 72.90625 
L 55.078125 72.90625 
L 55.078125 68.703125 
L 28.609375 0 
L 18.3125 0 
L 43.21875 64.59375 
L 8.203125 64.59375 
z
" id="DejaVuSans-55"/>
    </defs>
    <g style="fill:#ffffff;" transform="translate(377.484545 202.261091)scale(0.16 -0.16)">
     <use transform="translate(0 0.78125)" xlink:href="#DejaVuSans-Oblique-120"/>
     <use transform="translate(59.179688 -15.625)scale(0.7)" xlink:href="#DejaVuSans-50"/>
     <use transform="translate(125.932617 0.78125)" xlink:href="#DejaVuSans-61"/>
     <use transform="translate(229.204102 0.78125)" xlink:href="#DejaVuSans-48"/>
     <use transform="translate(292.827148 0.78125)" xlink:href="#DejaVuSans-46"/>
     <use transform="translate(324.504883 0.78125)" xlink:href="#DejaVuSans-55"/>
    </g>
   </g>
   <g id="text_16">
    <!-- $x_{1} = 0.3$ -->
    <defs>
     <path d="M 40.578125 39.3125 
Q 47.65625 37.796875 51.625 33 
Q 55.609375 28.21875 55.609375 21.1875 
Q 55.609375 10.40625 48.1875 4.484375 
Q 40.765625 -1.421875 27.09375 -1.421875 
Q 22.515625 -1.421875 17.65625 -0.515625 
Q 12.796875 0.390625 7.625 2.203125 
L 7.625 11.71875 
Q 11.71875 9.328125 16.59375 8.109375 
Q 21.484375 6.890625 26.8125 6.890625 
Q 36.078125 6.890625 40.9375 10.546875 
Q 45.796875 14.203125 45.796875 21.1875 
Q 45.796875 27.640625 41.28125 31.265625 
Q 36.765625 34.90625 28.71875 34.90625 
L 20.21875 34.90625 
L 20.21875 43.015625 
L 29.109375 43.015625 
Q 36.375 43.015625 40.234375 45.921875 
Q 44.09375 48.828125 44.09375 54.296875 
Q 44.09375 59.90625 40.109375 62.90625 
Q 36.140625 65.921875 28.71875 65.921875 
Q 24.65625 65.921875 20.015625 65.03125 
Q 15.375 64.15625 9.8125 62.3125 
L 9.8125 71.09375 
Q 15.4375 72.65625 20.34375 73.4375 
Q 25.25 74.21875 29.59375 74.21875 
Q 40.828125 74.21875 47.359375 69.109375 
Q 53.90625 64.015625 53.90625 55.328125 
Q 53.90625 49.265625 50.4375 45.09375 
Q 46.96875 40.921875 40.578125 39.3125 
z
" id="DejaVuSans-51"/>
    </defs>
    <g style="fill:#ffffff;" transform="translate(219.215455 427.113818)scale(0.16 -0.16)">
     <use transform="translate(0 0.78125)" xlink:href="#DejaVuSans-Oblique-120"/>
     <use transform="translate(59.179688 -15.625)scale(0.7)" xlink:href="#DejaVuSans-49"/>
     <use transform="translate(125.932617 0.78125)" xlink:href="#DejaVuSans-61"/>
     <use transform="translate(229.204102 0.78125)" xlink:href="#DejaVuSans-48"/>
     <use transform="translate(292.827148 0.78125)" xlink:href="#DejaVuSans-46"/>
     <use transform="translate(324.614258 0.78125)" xlink:href="#DejaVuSans-51"/>
    </g>
   </g>
  </g>
  <g id="axes_2">
   <g id="patch_7">
    <path d="M 512.672727 433.538182 
L 842.4 433.538182 
L 842.4 112.32 
L 512.672727 112.32 
z
" style="fill:#eaeaf2;"/>
   </g>
   <g id="matplotlib.axis_3">
    <g id="xtick_7">
     <g id="line2d_15">
      <path clip-path="url(#p9337c6dfab)" d="M 527.660331 433.538182 
L 527.660331 112.32 
" style="fill:none;stroke:#ffffff;stroke-linecap:round;"/>
     </g>
     <g id="text_17">
      <!-- 0 -->
      <g style="fill:#262626;" transform="translate(524.601815 450.911776)scale(0.11 -0.11)">
       <use xlink:href="#ArialMT-48"/>
      </g>
     </g>
    </g>
    <g id="xtick_8">
     <g id="line2d_16">
      <path clip-path="url(#p9337c6dfab)" d="M 571.423338 433.538182 
L 571.423338 112.32 
" style="fill:none;stroke:#ffffff;stroke-linecap:round;"/>
     </g>
     <g id="text_18">
      <!-- 1 -->
      <g style="fill:#262626;" transform="translate(568.364822 450.911776)scale(0.11 -0.11)">
       <use xlink:href="#ArialMT-49"/>
      </g>
     </g>
    </g>
    <g id="xtick_9">
     <g id="line2d_17">
      <path clip-path="url(#p9337c6dfab)" d="M 615.186345 433.538182 
L 615.186345 112.32 
" style="fill:none;stroke:#ffffff;stroke-linecap:round;"/>
     </g>
     <g id="text_19">
      <!-- 2 -->
      <g style="fill:#262626;" transform="translate(612.12783 450.911776)scale(0.11 -0.11)">
       <use xlink:href="#ArialMT-50"/>
      </g>
     </g>
    </g>
    <g id="xtick_10">
     <g id="line2d_18">
      <path clip-path="url(#p9337c6dfab)" d="M 658.949353 433.538182 
L 658.949353 112.32 
" style="fill:none;stroke:#ffffff;stroke-linecap:round;"/>
     </g>
     <g id="text_20">
      <!-- 3 -->
      <defs>
       <path d="M 4.203125 18.890625 
L 12.984375 20.0625 
Q 14.5 12.59375 18.140625 9.296875 
Q 21.78125 6 27 6 
Q 33.203125 6 37.46875 10.296875 
Q 41.75 14.59375 41.75 20.953125 
Q 41.75 27 37.796875 30.921875 
Q 33.84375 34.859375 27.734375 34.859375 
Q 25.25 34.859375 21.53125 33.890625 
L 22.515625 41.609375 
Q 23.390625 41.5 23.921875 41.5 
Q 29.546875 41.5 34.03125 44.421875 
Q 38.53125 47.359375 38.53125 53.46875 
Q 38.53125 58.296875 35.25 61.46875 
Q 31.984375 64.65625 26.8125 64.65625 
Q 21.6875 64.65625 18.265625 61.421875 
Q 14.84375 58.203125 13.875 51.765625 
L 5.078125 53.328125 
Q 6.6875 62.15625 12.390625 67.015625 
Q 18.109375 71.875 26.609375 71.875 
Q 32.46875 71.875 37.390625 69.359375 
Q 42.328125 66.84375 44.9375 62.5 
Q 47.5625 58.15625 47.5625 53.265625 
Q 47.5625 48.640625 45.0625 44.828125 
Q 42.578125 41.015625 37.703125 38.765625 
Q 44.046875 37.3125 47.5625 32.6875 
Q 51.078125 28.078125 51.078125 21.140625 
Q 51.078125 11.765625 44.234375 5.25 
Q 37.40625 -1.265625 26.953125 -1.265625 
Q 17.53125 -1.265625 11.296875 4.34375 
Q 5.078125 9.96875 4.203125 18.890625 
z
" id="ArialMT-51"/>
      </defs>
      <g style="fill:#262626;" transform="translate(655.890837 450.911776)scale(0.11 -0.11)">
       <use xlink:href="#ArialMT-51"/>
      </g>
     </g>
    </g>
    <g id="xtick_11">
     <g id="line2d_19">
      <path clip-path="url(#p9337c6dfab)" d="M 702.71236 433.538182 
L 702.71236 112.32 
" style="fill:none;stroke:#ffffff;stroke-linecap:round;"/>
     </g>
     <g id="text_21">
      <!-- 4 -->
      <g style="fill:#262626;" transform="translate(699.653845 450.911776)scale(0.11 -0.11)">
       <use xlink:href="#ArialMT-52"/>
      </g>
     </g>
    </g>
    <g id="xtick_12">
     <g id="line2d_20">
      <path clip-path="url(#p9337c6dfab)" d="M 746.475368 433.538182 
L 746.475368 112.32 
" style="fill:none;stroke:#ffffff;stroke-linecap:round;"/>
     </g>
     <g id="text_22">
      <!-- 5 -->
      <defs>
       <path d="M 4.15625 18.75 
L 13.375 19.53125 
Q 14.40625 12.796875 18.140625 9.390625 
Q 21.875 6 27.15625 6 
Q 33.5 6 37.890625 10.78125 
Q 42.28125 15.578125 42.28125 23.484375 
Q 42.28125 31 38.0625 35.34375 
Q 33.84375 39.703125 27 39.703125 
Q 22.75 39.703125 19.328125 37.765625 
Q 15.921875 35.84375 13.96875 32.765625 
L 5.71875 33.84375 
L 12.640625 70.609375 
L 48.25 70.609375 
L 48.25 62.203125 
L 19.671875 62.203125 
L 15.828125 42.96875 
Q 22.265625 47.46875 29.34375 47.46875 
Q 38.71875 47.46875 45.15625 40.96875 
Q 51.609375 34.46875 51.609375 24.265625 
Q 51.609375 14.546875 45.953125 7.46875 
Q 39.0625 -1.21875 27.15625 -1.21875 
Q 17.390625 -1.21875 11.203125 4.25 
Q 5.03125 9.71875 4.15625 18.75 
z
" id="ArialMT-53"/>
      </defs>
      <g style="fill:#262626;" transform="translate(743.416852 450.911776)scale(0.11 -0.11)">
       <use xlink:href="#ArialMT-53"/>
      </g>
     </g>
    </g>
    <g id="xtick_13">
     <g id="line2d_21">
      <path clip-path="url(#p9337c6dfab)" d="M 790.238375 433.538182 
L 790.238375 112.32 
" style="fill:none;stroke:#ffffff;stroke-linecap:round;"/>
     </g>
     <g id="text_23">
      <!-- 6 -->
      <g style="fill:#262626;" transform="translate(787.17986 450.911776)scale(0.11 -0.11)">
       <use xlink:href="#ArialMT-54"/>
      </g>
     </g>
    </g>
    <g id="xtick_14">
     <g id="line2d_22">
      <path clip-path="url(#p9337c6dfab)" d="M 834.001383 433.538182 
L 834.001383 112.32 
" style="fill:none;stroke:#ffffff;stroke-linecap:round;"/>
     </g>
     <g id="text_24">
      <!-- 7 -->
      <defs>
       <path d="M 4.734375 62.203125 
L 4.734375 70.65625 
L 51.078125 70.65625 
L 51.078125 63.8125 
Q 44.234375 56.546875 37.515625 44.484375 
Q 30.8125 32.421875 27.15625 19.671875 
Q 24.515625 10.6875 23.78125 0 
L 14.75 0 
Q 14.890625 8.453125 18.0625 20.40625 
Q 21.234375 32.375 27.171875 43.484375 
Q 33.109375 54.59375 39.796875 62.203125 
z
" id="ArialMT-55"/>
      </defs>
      <g style="fill:#262626;" transform="translate(830.942867 450.911776)scale(0.11 -0.11)">
       <use xlink:href="#ArialMT-55"/>
      </g>
     </g>
    </g>
    <g id="text_25">
     <!-- Probabilit -->
     <defs>
      <path d="M 7.71875 0 
L 7.71875 71.578125 
L 34.71875 71.578125 
Q 41.84375 71.578125 45.609375 70.90625 
Q 50.875 70.015625 54.4375 67.546875 
Q 58.015625 65.09375 60.1875 60.640625 
Q 62.359375 56.203125 62.359375 50.875 
Q 62.359375 41.75 56.546875 35.421875 
Q 50.734375 29.109375 35.546875 29.109375 
L 17.1875 29.109375 
L 17.1875 0 
z
M 17.1875 37.546875 
L 35.6875 37.546875 
Q 44.875 37.546875 48.734375 40.96875 
Q 52.59375 44.390625 52.59375 50.59375 
Q 52.59375 55.078125 50.3125 58.265625 
Q 48.046875 61.46875 44.34375 62.5 
Q 41.9375 63.140625 35.5 63.140625 
L 17.1875 63.140625 
z
" id="ArialMT-80"/>
      <path d="M 6.5 0 
L 6.5 51.859375 
L 14.40625 51.859375 
L 14.40625 44 
Q 17.4375 49.515625 20 51.265625 
Q 22.5625 53.03125 25.640625 53.03125 
Q 30.078125 53.03125 34.671875 50.203125 
L 31.640625 42.046875 
Q 28.421875 43.953125 25.203125 43.953125 
Q 22.3125 43.953125 20.015625 42.21875 
Q 17.71875 40.484375 16.75 37.40625 
Q 15.28125 32.71875 15.28125 27.15625 
L 15.28125 0 
z
" id="ArialMT-114"/>
      <path d="M 3.328125 25.921875 
Q 3.328125 40.328125 11.328125 47.265625 
Q 18.015625 53.03125 27.640625 53.03125 
Q 38.328125 53.03125 45.109375 46.015625 
Q 51.90625 39.015625 51.90625 26.65625 
Q 51.90625 16.65625 48.90625 10.90625 
Q 45.90625 5.171875 40.15625 2 
Q 34.421875 -1.171875 27.640625 -1.171875 
Q 16.75 -1.171875 10.03125 5.8125 
Q 3.328125 12.796875 3.328125 25.921875 
z
M 12.359375 25.921875 
Q 12.359375 15.96875 16.703125 11.015625 
Q 21.046875 6.0625 27.640625 6.0625 
Q 34.1875 6.0625 38.53125 11.03125 
Q 42.875 16.015625 42.875 26.21875 
Q 42.875 35.84375 38.5 40.796875 
Q 34.125 45.75 27.640625 45.75 
Q 21.046875 45.75 16.703125 40.8125 
Q 12.359375 35.890625 12.359375 25.921875 
z
" id="ArialMT-111"/>
      <path d="M 14.703125 0 
L 6.546875 0 
L 6.546875 71.578125 
L 15.328125 71.578125 
L 15.328125 46.046875 
Q 20.90625 53.03125 29.546875 53.03125 
Q 34.328125 53.03125 38.59375 51.09375 
Q 42.875 49.171875 45.625 45.671875 
Q 48.390625 42.1875 49.953125 37.25 
Q 51.515625 32.328125 51.515625 26.703125 
Q 51.515625 13.375 44.921875 6.09375 
Q 38.328125 -1.171875 29.109375 -1.171875 
Q 19.921875 -1.171875 14.703125 6.5 
z
M 14.59375 26.3125 
Q 14.59375 17 17.140625 12.84375 
Q 21.296875 6.0625 28.375 6.0625 
Q 34.125 6.0625 38.328125 11.0625 
Q 42.53125 16.0625 42.53125 25.984375 
Q 42.53125 36.140625 38.5 40.96875 
Q 34.46875 45.796875 28.765625 45.796875 
Q 23 45.796875 18.796875 40.796875 
Q 14.59375 35.796875 14.59375 26.3125 
z
" id="ArialMT-98"/>
      <path d="M 40.4375 6.390625 
Q 35.546875 2.25 31.03125 0.53125 
Q 26.515625 -1.171875 21.34375 -1.171875 
Q 12.796875 -1.171875 8.203125 3 
Q 3.609375 7.171875 3.609375 13.671875 
Q 3.609375 17.484375 5.34375 20.625 
Q 7.078125 23.78125 9.890625 25.6875 
Q 12.703125 27.59375 16.21875 28.5625 
Q 18.796875 29.25 24.03125 29.890625 
Q 34.671875 31.15625 39.703125 32.90625 
Q 39.75 34.71875 39.75 35.203125 
Q 39.75 40.578125 37.25 42.78125 
Q 33.890625 45.75 27.25 45.75 
Q 21.046875 45.75 18.09375 43.578125 
Q 15.140625 41.40625 13.71875 35.890625 
L 5.125 37.0625 
Q 6.296875 42.578125 8.984375 45.96875 
Q 11.671875 49.359375 16.75 51.1875 
Q 21.828125 53.03125 28.515625 53.03125 
Q 35.15625 53.03125 39.296875 51.46875 
Q 43.453125 49.90625 45.40625 47.53125 
Q 47.359375 45.171875 48.140625 41.546875 
Q 48.578125 39.3125 48.578125 33.453125 
L 48.578125 21.734375 
Q 48.578125 9.46875 49.140625 6.21875 
Q 49.703125 2.984375 51.375 0 
L 42.1875 0 
Q 40.828125 2.734375 40.4375 6.390625 
z
M 39.703125 26.03125 
Q 34.90625 24.078125 25.34375 22.703125 
Q 19.921875 21.921875 17.671875 20.9375 
Q 15.4375 19.96875 14.203125 18.09375 
Q 12.984375 16.21875 12.984375 13.921875 
Q 12.984375 10.40625 15.640625 8.0625 
Q 18.3125 5.71875 23.4375 5.71875 
Q 28.515625 5.71875 32.46875 7.9375 
Q 36.421875 10.15625 38.28125 14.015625 
Q 39.703125 17 39.703125 22.796875 
z
" id="ArialMT-97"/>
      <path d="M 6.640625 61.46875 
L 6.640625 71.578125 
L 15.4375 71.578125 
L 15.4375 61.46875 
z
M 6.640625 0 
L 6.640625 51.859375 
L 15.4375 51.859375 
L 15.4375 0 
z
" id="ArialMT-105"/>
      <path d="M 6.390625 0 
L 6.390625 71.578125 
L 15.1875 71.578125 
L 15.1875 0 
z
" id="ArialMT-108"/>
      <path d="M 25.78125 7.859375 
L 27.046875 0.09375 
Q 23.34375 -0.6875 20.40625 -0.6875 
Q 15.625 -0.6875 12.984375 0.828125 
Q 10.359375 2.34375 9.28125 4.8125 
Q 8.203125 7.28125 8.203125 15.1875 
L 8.203125 45.015625 
L 1.765625 45.015625 
L 1.765625 51.859375 
L 8.203125 51.859375 
L 8.203125 64.703125 
L 16.9375 69.96875 
L 16.9375 51.859375 
L 25.78125 51.859375 
L 25.78125 45.015625 
L 16.9375 45.015625 
L 16.9375 14.703125 
Q 16.9375 10.9375 17.40625 9.859375 
Q 17.875 8.796875 18.921875 8.15625 
Q 19.96875 7.515625 21.921875 7.515625 
Q 23.390625 7.515625 25.78125 7.859375 
z
" id="ArialMT-116"/>
      <path d="M 42.09375 16.703125 
L 51.171875 15.578125 
Q 49.03125 7.625 43.21875 3.21875 
Q 37.40625 -1.171875 28.375 -1.171875 
Q 17 -1.171875 10.328125 5.828125 
Q 3.65625 12.84375 3.65625 25.484375 
Q 3.65625 38.578125 10.390625 45.796875 
Q 17.140625 53.03125 27.875 53.03125 
Q 38.28125 53.03125 44.875 45.953125 
Q 51.46875 38.875 51.46875 26.03125 
Q 51.46875 25.25 51.421875 23.6875 
L 12.75 23.6875 
Q 13.234375 15.140625 17.578125 10.59375 
Q 21.921875 6.0625 28.421875 6.0625 
Q 33.25 6.0625 36.671875 8.59375 
Q 40.09375 11.140625 42.09375 16.703125 
z
M 13.234375 30.90625 
L 42.1875 30.90625 
Q 41.609375 37.453125 38.875 40.71875 
Q 34.671875 45.796875 27.984375 45.796875 
Q 21.921875 45.796875 17.796875 41.75 
Q 13.671875 37.703125 13.234375 30.90625 
z
M 22.703125 58.296875 
L 29.203125 71.96875 
L 40.71875 71.96875 
L 29.984375 58.296875 
z
" id="ArialMT-233"/>
     </defs>
     <g style="fill:#262626;" transform="translate(635.01277 472.119699)scale(0.18 -0.18)">
      <use xlink:href="#ArialMT-80"/>
      <use x="66.699219" xlink:href="#ArialMT-114"/>
      <use x="100" xlink:href="#ArialMT-111"/>
      <use x="155.615234" xlink:href="#ArialMT-98"/>
      <use x="211.230469" xlink:href="#ArialMT-97"/>
      <use x="266.845703" xlink:href="#ArialMT-98"/>
      <use x="322.460938" xlink:href="#ArialMT-105"/>
      <use x="344.677734" xlink:href="#ArialMT-108"/>
      <use x="366.894531" xlink:href="#ArialMT-105"/>
      <use x="389.111328" xlink:href="#ArialMT-116"/>
      <use x="416.894531" xlink:href="#ArialMT-233"/>
     </g>
    </g>
   </g>
   <g id="matplotlib.axis_4">
    <g id="ytick_7">
     <g id="line2d_23">
      <path clip-path="url(#p9337c6dfab)" d="M 512.672727 418.937355 
L 842.4 418.937355 
" style="fill:none;stroke:#ffffff;stroke-linecap:round;"/>
     </g>
     <g id="text_26">
      <!-- 0.0 -->
      <g style="fill:#262626;" transform="translate(487.882727 422.874152)scale(0.11 -0.11)">
       <use xlink:href="#ArialMT-48"/>
       <use x="55.615234" xlink:href="#ArialMT-46"/>
       <use x="83.398438" xlink:href="#ArialMT-48"/>
      </g>
     </g>
    </g>
    <g id="ytick_8">
     <g id="line2d_24">
      <path clip-path="url(#p9337c6dfab)" d="M 512.672727 360.53405 
L 842.4 360.53405 
" style="fill:none;stroke:#ffffff;stroke-linecap:round;"/>
     </g>
     <g id="text_27">
      <!-- 0.2 -->
      <g style="fill:#262626;" transform="translate(487.882727 364.470846)scale(0.11 -0.11)">
       <use xlink:href="#ArialMT-48"/>
       <use x="55.615234" xlink:href="#ArialMT-46"/>
       <use x="83.398438" xlink:href="#ArialMT-50"/>
      </g>
     </g>
    </g>
    <g id="ytick_9">
     <g id="line2d_25">
      <path clip-path="url(#p9337c6dfab)" d="M 512.672727 302.130744 
L 842.4 302.130744 
" style="fill:none;stroke:#ffffff;stroke-linecap:round;"/>
     </g>
     <g id="text_28">
      <!-- 0.4 -->
      <g style="fill:#262626;" transform="translate(487.882727 306.067541)scale(0.11 -0.11)">
       <use xlink:href="#ArialMT-48"/>
       <use x="55.615234" xlink:href="#ArialMT-46"/>
       <use x="83.398438" xlink:href="#ArialMT-52"/>
      </g>
     </g>
    </g>
    <g id="ytick_10">
     <g id="line2d_26">
      <path clip-path="url(#p9337c6dfab)" d="M 512.672727 243.727438 
L 842.4 243.727438 
" style="fill:none;stroke:#ffffff;stroke-linecap:round;"/>
     </g>
     <g id="text_29">
      <!-- 0.6 -->
      <g style="fill:#262626;" transform="translate(487.882727 247.664235)scale(0.11 -0.11)">
       <use xlink:href="#ArialMT-48"/>
       <use x="55.615234" xlink:href="#ArialMT-46"/>
       <use x="83.398438" xlink:href="#ArialMT-54"/>
      </g>
     </g>
    </g>
    <g id="ytick_11">
     <g id="line2d_27">
      <path clip-path="url(#p9337c6dfab)" d="M 512.672727 185.324132 
L 842.4 185.324132 
" style="fill:none;stroke:#ffffff;stroke-linecap:round;"/>
     </g>
     <g id="text_30">
      <!-- 0.8 -->
      <g style="fill:#262626;" transform="translate(487.882727 189.260929)scale(0.11 -0.11)">
       <use xlink:href="#ArialMT-48"/>
       <use x="55.615234" xlink:href="#ArialMT-46"/>
       <use x="83.398438" xlink:href="#ArialMT-56"/>
      </g>
     </g>
    </g>
    <g id="ytick_12">
     <g id="line2d_28">
      <path clip-path="url(#p9337c6dfab)" d="M 512.672727 126.920826 
L 842.4 126.920826 
" style="fill:none;stroke:#ffffff;stroke-linecap:round;"/>
     </g>
     <g id="text_31">
      <!-- 1.0 -->
      <g style="fill:#262626;" transform="translate(487.882727 130.857623)scale(0.11 -0.11)">
       <use xlink:href="#ArialMT-49"/>
       <use x="55.615234" xlink:href="#ArialMT-46"/>
       <use x="83.398438" xlink:href="#ArialMT-48"/>
      </g>
     </g>
    </g>
    <g id="text_32">
     <!-- $x_{2}$ -->
     <g style="fill:#262626;" transform="translate(476.664545 269.351591)scale(0.18 -0.18)">
      <use transform="translate(0 0.3125)" xlink:href="#DejaVuSans-Oblique-120"/>
      <use transform="translate(59.179688 -16.09375)scale(0.7)" xlink:href="#DejaVuSans-50"/>
     </g>
    </g>
   </g>
   <g id="line2d_29">
    <path clip-path="url(#p9337c6dfab)" d="M 529.7291 418.937355 
L 530.333569 413.987923 
L 531.084257 409.03849 
L 532.007158 404.089057 
L 533.130258 399.139625 
L 534.482961 394.190192 
L 536.095297 389.240759 
L 537.996892 384.291327 
L 540.215713 379.341894 
L 542.776614 374.392461 
L 545.699697 369.443028 
L 548.998576 364.493596 
L 552.678605 359.544163 
L 556.735159 354.59473 
L 561.152106 349.645298 
L 565.900548 344.695865 
L 570.937987 339.746432 
L 576.20799 334.797 
L 581.640476 329.847567 
L 587.152663 324.898134 
L 592.650717 319.948701 
L 598.032094 314.999269 
L 603.188496 310.049836 
L 608.009358 305.100403 
L 612.385706 300.150971 
L 616.214205 295.201538 
L 619.401193 290.252105 
L 621.866481 285.302673 
L 623.546701 280.35324 
L 624.398016 275.403807 
L 624.398016 270.454375 
L 623.546701 265.504942 
L 621.866481 260.555509 
L 619.401193 255.606076 
L 616.214205 250.656644 
L 612.385706 245.707211 
L 608.009358 240.757778 
L 603.188496 235.808346 
L 598.032094 230.858913 
L 592.650717 225.90948 
L 587.152663 220.960048 
L 581.640476 216.010615 
L 576.20799 211.061182 
L 570.937987 206.11175 
L 565.900548 201.162317 
L 561.152106 196.212884 
L 556.735159 191.263451 
L 552.678605 186.314019 
L 548.998576 181.364586 
L 545.699697 176.415153 
L 542.776614 171.465721 
L 540.215713 166.516288 
L 537.996892 161.566855 
L 536.095297 156.617423 
L 534.482961 151.66799 
L 533.130258 146.718557 
L 532.007158 141.769125 
L 531.084257 136.819692 
L 530.333569 131.870259 
L 529.7291 126.920826 
" style="fill:none;stroke:#000000;stroke-linecap:round;stroke-width:3;"/>
   </g>
   <g id="line2d_30">
    <path clip-path="url(#p9337c6dfab)" d="M 527.660331 418.937355 
L 527.660331 413.987923 
L 527.660331 409.03849 
L 527.660331 404.089057 
L 527.660331 399.139625 
L 527.660331 394.190192 
L 527.660331 389.240759 
L 527.660331 384.291327 
L 527.660331 379.341894 
L 527.660331 374.392461 
L 527.660331 369.443028 
L 527.660331 364.493596 
L 527.660331 359.544163 
L 527.660331 354.59473 
L 527.660331 349.645298 
L 527.660332 344.695865 
L 527.660336 339.746432 
L 527.660354 334.797 
L 527.660425 329.847567 
L 527.660678 324.898134 
L 527.661541 319.948701 
L 527.664305 314.999269 
L 527.672621 310.049836 
L 527.696129 305.100403 
L 527.758556 300.150971 
L 527.914216 295.201538 
L 528.278487 290.252105 
L 529.07811 285.302673 
L 530.723485 280.35324 
L 533.894502 275.403807 
L 539.612264 270.454375 
L 549.245092 265.504942 
L 564.380609 260.555509 
L 586.505972 255.606076 
L 616.492908 250.656644 
L 653.98258 245.707211 
L 696.874633 240.757778 
L 741.182959 235.808346 
L 781.465448 230.858913 
L 811.848809 225.90948 
L 827.412397 220.960048 
L 825.489705 216.010615 
L 806.415224 211.061182 
L 773.429327 206.11175 
L 731.778337 201.162317 
L 687.353068 196.212884 
L 645.35008 191.263451 
L 609.364033 186.314019 
L 581.091474 181.364586 
L 560.575555 176.415153 
L 546.761009 171.465721 
L 538.10153 166.516288 
L 533.036855 161.566855 
L 530.2683 156.617423 
L 528.851992 151.66799 
L 528.173255 146.718557 
L 527.868302 141.769125 
L 527.739764 136.819692 
L 527.68891 131.870259 
L 527.670017 126.920826 
" style="fill:none;stroke:#008000;stroke-linecap:round;stroke-width:2;"/>
   </g>
   <g id="patch_8">
    <path d="M 512.672727 433.538182 
L 512.672727 112.32 
" style="fill:none;stroke:#ffffff;stroke-linecap:square;stroke-linejoin:miter;stroke-width:1.25;"/>
   </g>
   <g id="patch_9">
    <path d="M 842.4 433.538182 
L 842.4 112.32 
" style="fill:none;stroke:#ffffff;stroke-linecap:square;stroke-linejoin:miter;stroke-width:1.25;"/>
   </g>
   <g id="patch_10">
    <path d="M 512.672727 433.538182 
L 842.4 433.538182 
" style="fill:none;stroke:#ffffff;stroke-linecap:square;stroke-linejoin:miter;stroke-width:1.25;"/>
   </g>
   <g id="patch_11">
    <path d="M 512.672727 112.32 
L 842.4 112.32 
" style="fill:none;stroke:#ffffff;stroke-linecap:square;stroke-linejoin:miter;stroke-width:1.25;"/>
   </g>
   <g id="legend_1">
    <g id="patch_12">
     <path d="M 694 165.24 
L 832.6 165.24 
Q 835.4 165.24 835.4 162.44 
L 835.4 122.12 
Q 835.4 119.32 832.6 119.32 
L 694 119.32 
Q 691.2 119.32 691.2 122.12 
L 691.2 162.44 
Q 691.2 165.24 694 165.24 
z
" style="fill:#eaeaf2;opacity:0.8;stroke:#cccccc;stroke-linejoin:miter;"/>
    </g>
    <g id="line2d_31">
     <path d="M 696.8 130.66 
L 724.8 130.66 
" style="fill:none;stroke:#000000;stroke-linecap:round;stroke-width:3;"/>
    </g>
    <g id="line2d_32"/>
    <g id="text_33">
     <!-- $p(x_{2})$ -->
     <defs>
      <path d="M 49.609375 33.6875 
Q 49.609375 40.875 46.484375 44.671875 
Q 43.359375 48.484375 37.5 48.484375 
Q 33.5 48.484375 29.859375 46.4375 
Q 26.21875 44.390625 23.390625 40.484375 
Q 20.609375 36.625 18.9375 31.15625 
Q 17.28125 25.6875 17.28125 20.3125 
Q 17.28125 13.484375 20.40625 9.796875 
Q 23.53125 6.109375 29.296875 6.109375 
Q 33.546875 6.109375 37.1875 8.109375 
Q 40.828125 10.109375 43.40625 13.921875 
Q 46.1875 17.921875 47.890625 23.34375 
Q 49.609375 28.765625 49.609375 33.6875 
z
M 21.78125 46.390625 
Q 25.390625 51.125 30.296875 53.5625 
Q 35.203125 56 41.21875 56 
Q 49.609375 56 54.25 50.5 
Q 58.890625 45.015625 58.890625 35.109375 
Q 58.890625 27 56 19.65625 
Q 53.125 12.3125 47.703125 6.5 
Q 44.09375 2.640625 39.546875 0.609375 
Q 35.015625 -1.421875 29.984375 -1.421875 
Q 24.171875 -1.421875 20.21875 1 
Q 16.265625 3.421875 14.3125 8.203125 
L 8.6875 -20.796875 
L -0.296875 -20.796875 
L 14.40625 54.6875 
L 23.390625 54.6875 
z
" id="DejaVuSans-Oblique-112"/>
      <path d="M 31 75.875 
Q 24.46875 64.65625 21.28125 53.65625 
Q 18.109375 42.671875 18.109375 31.390625 
Q 18.109375 20.125 21.3125 9.0625 
Q 24.515625 -2 31 -13.1875 
L 23.1875 -13.1875 
Q 15.875 -1.703125 12.234375 9.375 
Q 8.59375 20.453125 8.59375 31.390625 
Q 8.59375 42.28125 12.203125 53.3125 
Q 15.828125 64.359375 23.1875 75.875 
z
" id="DejaVuSans-40"/>
      <path d="M 8.015625 75.875 
L 15.828125 75.875 
Q 23.140625 64.359375 26.78125 53.3125 
Q 30.421875 42.28125 30.421875 31.390625 
Q 30.421875 20.453125 26.78125 9.375 
Q 23.140625 -1.703125 15.828125 -13.1875 
L 8.015625 -13.1875 
Q 14.5 -2 17.703125 9.0625 
Q 20.90625 20.125 20.90625 31.390625 
Q 20.90625 42.671875 17.703125 53.65625 
Q 14.5 64.65625 8.015625 75.875 
z
" id="DejaVuSans-41"/>
     </defs>
     <g style="fill:#262626;" transform="translate(736 135.56)scale(0.14 -0.14)">
      <use transform="translate(0 0.125)" xlink:href="#DejaVuSans-Oblique-112"/>
      <use transform="translate(63.476562 0.125)" xlink:href="#DejaVuSans-40"/>
      <use transform="translate(102.490234 0.125)" xlink:href="#DejaVuSans-Oblique-120"/>
      <use transform="translate(161.669922 -16.28125)scale(0.7)" xlink:href="#DejaVuSans-50"/>
      <use transform="translate(208.94043 0.125)" xlink:href="#DejaVuSans-41"/>
     </g>
    </g>
    <g id="line2d_33">
     <path d="M 696.8 151.38 
L 724.8 151.38 
" style="fill:none;stroke:#008000;stroke-linecap:round;stroke-width:2;"/>
    </g>
    <g id="line2d_34"/>
    <g id="text_34">
     <!-- $p(x_{2}|x_{1}=0.3)$ -->
     <defs>
      <path d="M 21 76.421875 
L 21 -23.578125 
L 12.703125 -23.578125 
L 12.703125 76.421875 
z
" id="DejaVuSans-124"/>
     </defs>
     <g style="fill:#262626;" transform="translate(736 156.28)scale(0.14 -0.14)">
      <use transform="translate(0 0.578125)" xlink:href="#DejaVuSans-Oblique-112"/>
      <use transform="translate(63.476562 0.578125)" xlink:href="#DejaVuSans-40"/>
      <use transform="translate(102.490234 0.578125)" xlink:href="#DejaVuSans-Oblique-120"/>
      <use transform="translate(161.669922 -15.828125)scale(0.7)" xlink:href="#DejaVuSans-50"/>
      <use transform="translate(208.94043 0.578125)" xlink:href="#DejaVuSans-124"/>
      <use transform="translate(242.631836 0.578125)" xlink:href="#DejaVuSans-Oblique-120"/>
      <use transform="translate(301.811523 -15.828125)scale(0.7)" xlink:href="#DejaVuSans-49"/>
      <use transform="translate(368.564453 0.578125)" xlink:href="#DejaVuSans-61"/>
      <use transform="translate(471.835938 0.578125)" xlink:href="#DejaVuSans-48"/>
      <use transform="translate(535.458984 0.578125)" xlink:href="#DejaVuSans-46"/>
      <use transform="translate(567.246094 0.578125)" xlink:href="#DejaVuSans-51"/>
      <use transform="translate(630.869141 0.578125)" xlink:href="#DejaVuSans-41"/>
     </g>
    </g>
   </g>
  </g>
  <g id="axes_3">
   <g id="patch_13">
    <path d="M 117 819 
L 446.727273 819 
L 446.727273 497.781818 
L 117 497.781818 
z
" style="fill:#eaeaf2;"/>
   </g>
   <g id="matplotlib.axis_5">
    <g id="xtick_15">
     <g id="line2d_35">
      <path clip-path="url(#pf64d0e5389)" d="M 131.987603 819 
L 131.987603 497.781818 
" style="fill:none;stroke:#ffffff;stroke-linecap:round;"/>
     </g>
     <g id="text_35">
      <!-- 0.0 -->
      <g style="fill:#262626;" transform="translate(124.342603 836.373594)scale(0.11 -0.11)">
       <use xlink:href="#ArialMT-48"/>
       <use x="55.615234" xlink:href="#ArialMT-46"/>
       <use x="83.398438" xlink:href="#ArialMT-48"/>
      </g>
     </g>
    </g>
    <g id="xtick_16">
     <g id="line2d_36">
      <path clip-path="url(#pf64d0e5389)" d="M 191.938017 819 
L 191.938017 497.781818 
" style="fill:none;stroke:#ffffff;stroke-linecap:round;"/>
     </g>
     <g id="text_36">
      <!-- 0.2 -->
      <g style="fill:#262626;" transform="translate(184.293017 836.373594)scale(0.11 -0.11)">
       <use xlink:href="#ArialMT-48"/>
       <use x="55.615234" xlink:href="#ArialMT-46"/>
       <use x="83.398438" xlink:href="#ArialMT-50"/>
      </g>
     </g>
    </g>
    <g id="xtick_17">
     <g id="line2d_37">
      <path clip-path="url(#pf64d0e5389)" d="M 251.88843 819 
L 251.88843 497.781818 
" style="fill:none;stroke:#ffffff;stroke-linecap:round;"/>
     </g>
     <g id="text_37">
      <!-- 0.4 -->
      <g style="fill:#262626;" transform="translate(244.24343 836.373594)scale(0.11 -0.11)">
       <use xlink:href="#ArialMT-48"/>
       <use x="55.615234" xlink:href="#ArialMT-46"/>
       <use x="83.398438" xlink:href="#ArialMT-52"/>
      </g>
     </g>
    </g>
    <g id="xtick_18">
     <g id="line2d_38">
      <path clip-path="url(#pf64d0e5389)" d="M 311.838843 819 
L 311.838843 497.781818 
" style="fill:none;stroke:#ffffff;stroke-linecap:round;"/>
     </g>
     <g id="text_38">
      <!-- 0.6 -->
      <g style="fill:#262626;" transform="translate(304.193843 836.373594)scale(0.11 -0.11)">
       <use xlink:href="#ArialMT-48"/>
       <use x="55.615234" xlink:href="#ArialMT-46"/>
       <use x="83.398438" xlink:href="#ArialMT-54"/>
      </g>
     </g>
    </g>
    <g id="xtick_19">
     <g id="line2d_39">
      <path clip-path="url(#pf64d0e5389)" d="M 371.789256 819 
L 371.789256 497.781818 
" style="fill:none;stroke:#ffffff;stroke-linecap:round;"/>
     </g>
     <g id="text_39">
      <!-- 0.8 -->
      <g style="fill:#262626;" transform="translate(364.144256 836.373594)scale(0.11 -0.11)">
       <use xlink:href="#ArialMT-48"/>
       <use x="55.615234" xlink:href="#ArialMT-46"/>
       <use x="83.398438" xlink:href="#ArialMT-56"/>
      </g>
     </g>
    </g>
    <g id="xtick_20">
     <g id="line2d_40">
      <path clip-path="url(#pf64d0e5389)" d="M 431.739669 819 
L 431.739669 497.781818 
" style="fill:none;stroke:#ffffff;stroke-linecap:round;"/>
     </g>
     <g id="text_40">
      <!-- 1.0 -->
      <g style="fill:#262626;" transform="translate(424.094669 836.373594)scale(0.11 -0.11)">
       <use xlink:href="#ArialMT-49"/>
       <use x="55.615234" xlink:href="#ArialMT-46"/>
       <use x="83.398438" xlink:href="#ArialMT-48"/>
      </g>
     </g>
    </g>
    <g id="text_41">
     <!-- $x_{1}$ -->
     <g style="fill:#262626;" transform="translate(272.233636 857.581517)scale(0.18 -0.18)">
      <use transform="translate(0 0.3125)" xlink:href="#DejaVuSans-Oblique-120"/>
      <use transform="translate(59.179688 -16.09375)scale(0.7)" xlink:href="#DejaVuSans-49"/>
     </g>
    </g>
   </g>
   <g id="matplotlib.axis_6">
    <g id="ytick_13">
     <g id="line2d_41">
      <path clip-path="url(#pf64d0e5389)" d="M 117 804.399174 
L 446.727273 804.399174 
" style="fill:none;stroke:#ffffff;stroke-linecap:round;"/>
     </g>
     <g id="text_42">
      <!-- 0 -->
      <g style="fill:#262626;" transform="translate(101.382969 808.33597)scale(0.11 -0.11)">
       <use xlink:href="#ArialMT-48"/>
      </g>
     </g>
    </g>
    <g id="ytick_14">
     <g id="line2d_42">
      <path clip-path="url(#pf64d0e5389)" d="M 117 761.765534 
L 446.727273 761.765534 
" style="fill:none;stroke:#ffffff;stroke-linecap:round;"/>
     </g>
     <g id="text_43">
      <!-- 1 -->
      <g style="fill:#262626;" transform="translate(101.382969 765.702331)scale(0.11 -0.11)">
       <use xlink:href="#ArialMT-49"/>
      </g>
     </g>
    </g>
    <g id="ytick_15">
     <g id="line2d_43">
      <path clip-path="url(#pf64d0e5389)" d="M 117 719.131895 
L 446.727273 719.131895 
" style="fill:none;stroke:#ffffff;stroke-linecap:round;"/>
     </g>
     <g id="text_44">
      <!-- 2 -->
      <g style="fill:#262626;" transform="translate(101.382969 723.068691)scale(0.11 -0.11)">
       <use xlink:href="#ArialMT-50"/>
      </g>
     </g>
    </g>
    <g id="ytick_16">
     <g id="line2d_44">
      <path clip-path="url(#pf64d0e5389)" d="M 117 676.498255 
L 446.727273 676.498255 
" style="fill:none;stroke:#ffffff;stroke-linecap:round;"/>
     </g>
     <g id="text_45">
      <!-- 3 -->
      <g style="fill:#262626;" transform="translate(101.382969 680.435052)scale(0.11 -0.11)">
       <use xlink:href="#ArialMT-51"/>
      </g>
     </g>
    </g>
    <g id="ytick_17">
     <g id="line2d_45">
      <path clip-path="url(#pf64d0e5389)" d="M 117 633.864615 
L 446.727273 633.864615 
" style="fill:none;stroke:#ffffff;stroke-linecap:round;"/>
     </g>
     <g id="text_46">
      <!-- 4 -->
      <g style="fill:#262626;" transform="translate(101.382969 637.801412)scale(0.11 -0.11)">
       <use xlink:href="#ArialMT-52"/>
      </g>
     </g>
    </g>
    <g id="ytick_18">
     <g id="line2d_46">
      <path clip-path="url(#pf64d0e5389)" d="M 117 591.230976 
L 446.727273 591.230976 
" style="fill:none;stroke:#ffffff;stroke-linecap:round;"/>
     </g>
     <g id="text_47">
      <!-- 5 -->
      <g style="fill:#262626;" transform="translate(101.382969 595.167773)scale(0.11 -0.11)">
       <use xlink:href="#ArialMT-53"/>
      </g>
     </g>
    </g>
    <g id="ytick_19">
     <g id="line2d_47">
      <path clip-path="url(#pf64d0e5389)" d="M 117 548.597336 
L 446.727273 548.597336 
" style="fill:none;stroke:#ffffff;stroke-linecap:round;"/>
     </g>
     <g id="text_48">
      <!-- 6 -->
      <g style="fill:#262626;" transform="translate(101.382969 552.534133)scale(0.11 -0.11)">
       <use xlink:href="#ArialMT-54"/>
      </g>
     </g>
    </g>
    <g id="ytick_20">
     <g id="line2d_48">
      <path clip-path="url(#pf64d0e5389)" d="M 117 505.963697 
L 446.727273 505.963697 
" style="fill:none;stroke:#ffffff;stroke-linecap:round;"/>
     </g>
     <g id="text_49">
      <!-- 7 -->
      <g style="fill:#262626;" transform="translate(101.382969 509.900494)scale(0.11 -0.11)">
       <use xlink:href="#ArialMT-55"/>
      </g>
     </g>
    </g>
    <g id="text_50">
     <!-- Probabilit -->
     <g style="fill:#262626;" transform="translate(87.044318 700.914503)rotate(-90)scale(0.18 -0.18)">
      <use xlink:href="#ArialMT-80"/>
      <use x="66.699219" xlink:href="#ArialMT-114"/>
      <use x="100" xlink:href="#ArialMT-111"/>
      <use x="155.615234" xlink:href="#ArialMT-98"/>
      <use x="211.230469" xlink:href="#ArialMT-97"/>
      <use x="266.845703" xlink:href="#ArialMT-98"/>
      <use x="322.460938" xlink:href="#ArialMT-105"/>
      <use x="344.677734" xlink:href="#ArialMT-108"/>
      <use x="366.894531" xlink:href="#ArialMT-105"/>
      <use x="389.111328" xlink:href="#ArialMT-116"/>
      <use x="416.894531" xlink:href="#ArialMT-233"/>
     </g>
    </g>
   </g>
   <g id="line2d_49">
    <path clip-path="url(#pf64d0e5389)" d="M 131.987603 802.383791 
L 137.068147 801.794922 
L 142.14869 801.063606 
L 147.229234 800.164522 
L 152.309777 799.070406 
L 157.390321 797.752611 
L 162.470864 796.181883 
L 167.551408 794.329363 
L 172.631951 792.167801 
L 177.712495 789.672988 
L 182.793038 786.825339 
L 187.873582 783.611592 
L 192.954125 780.026532 
L 198.034669 776.074663 
L 203.115212 771.771702 
L 208.195756 767.1458 
L 213.276299 762.23836 
L 218.356843 757.104357 
L 223.437386 751.812064 
L 228.51793 746.442128 
L 233.598473 741.085958 
L 238.679017 735.843455 
L 243.75956 730.820122 
L 248.840104 726.123669 
L 253.920647 721.860259 
L 259.001191 718.130561 
L 264.081734 715.025818 
L 269.162278 712.62415 
L 274.242821 710.98729 
L 279.323365 710.157944 
L 284.403908 710.157944 
L 289.484452 710.98729 
L 294.564995 712.62415 
L 299.645539 715.025818 
L 304.726082 718.130561 
L 309.806626 721.860259 
L 314.887169 726.123669 
L 319.967713 730.820122 
L 325.048256 735.843455 
L 330.1288 741.085958 
L 335.209343 746.442128 
L 340.289887 751.812064 
L 345.37043 757.104357 
L 350.450974 762.23836 
L 355.531517 767.1458 
L 360.612061 771.771702 
L 365.692604 776.074663 
L 370.773147 780.026532 
L 375.853691 783.611592 
L 380.934234 786.825339 
L 386.014778 789.672988 
L 391.095321 792.167801 
L 396.175865 794.329363 
L 401.256408 796.181883 
L 406.336952 797.752611 
L 411.417495 799.070406 
L 416.498039 800.164522 
L 421.578582 801.063606 
L 426.659126 801.794922 
L 431.739669 802.383791 
" style="fill:none;stroke:#000000;stroke-linecap:round;stroke-width:3;"/>
   </g>
   <g id="line2d_50">
    <path clip-path="url(#pf64d0e5389)" d="M 131.987603 804.389737 
L 137.068147 804.371332 
L 142.14869 804.32179 
L 147.229234 804.19657 
L 152.309777 803.899486 
L 157.390321 803.238264 
L 162.470864 801.858507 
L 167.551408 799.161398 
L 172.631951 794.227424 
L 177.712495 785.791416 
L 182.793038 772.333375 
L 187.873582 752.346899 
L 192.954125 724.803953 
L 198.034669 689.746579 
L 203.115212 648.827539 
L 208.195756 605.548729 
L 213.276299 564.972603 
L 218.356843 532.837955 
L 223.437386 514.255718 
L 228.51793 512.382645 
L 233.598473 527.544591 
L 238.679017 557.143866 
L 243.75956 596.386806 
L 248.840104 639.551692 
L 253.920647 681.336853 
L 259.001191 717.85905 
L 264.081734 747.072129 
L 269.162278 768.626515 
L 274.242821 783.371438 
L 279.323365 792.755677 
L 284.403908 798.325884 
L 289.484452 801.415068 
L 294.564995 803.017982 
L 299.645539 803.79697 
L 304.726082 804.15184 
L 309.806626 804.303483 
L 314.887169 804.364299 
L 319.967713 804.387201 
L 325.048256 804.395302 
L 330.1288 804.397994 
L 335.209343 804.398835 
L 340.289887 804.399082 
L 345.37043 804.39915 
L 350.450974 804.399168 
L 355.531517 804.399172 
L 360.612061 804.399173 
L 365.692604 804.399173 
L 370.773147 804.399174 
L 375.853691 804.399174 
L 380.934234 804.399174 
L 386.014778 804.399174 
L 391.095321 804.399174 
L 396.175865 804.399174 
L 401.256408 804.399174 
L 406.336952 804.399174 
L 411.417495 804.399174 
L 416.498039 804.399174 
L 421.578582 804.399174 
L 426.659126 804.399174 
L 431.739669 804.399174 
" style="fill:none;stroke:#ff0000;stroke-linecap:round;stroke-width:2;"/>
   </g>
   <g id="patch_14">
    <path d="M 117 819 
L 117 497.781818 
" style="fill:none;stroke:#ffffff;stroke-linecap:square;stroke-linejoin:miter;stroke-width:1.25;"/>
   </g>
   <g id="patch_15">
    <path d="M 446.727273 819 
L 446.727273 497.781818 
" style="fill:none;stroke:#ffffff;stroke-linecap:square;stroke-linejoin:miter;stroke-width:1.25;"/>
   </g>
   <g id="patch_16">
    <path d="M 117 819 
L 446.727273 819 
" style="fill:none;stroke:#ffffff;stroke-linecap:square;stroke-linejoin:miter;stroke-width:1.25;"/>
   </g>
   <g id="patch_17">
    <path d="M 117 497.781818 
L 446.727273 497.781818 
" style="fill:none;stroke:#ffffff;stroke-linecap:square;stroke-linejoin:miter;stroke-width:1.25;"/>
   </g>
   <g id="legend_2">
    <g id="patch_18">
     <path d="M 298.327273 550.701818 
L 436.927273 550.701818 
Q 439.727273 550.701818 439.727273 547.901818 
L 439.727273 507.581818 
Q 439.727273 504.781818 436.927273 504.781818 
L 298.327273 504.781818 
Q 295.527273 504.781818 295.527273 507.581818 
L 295.527273 547.901818 
Q 295.527273 550.701818 298.327273 550.701818 
z
" style="fill:#eaeaf2;opacity:0.8;stroke:#cccccc;stroke-linejoin:miter;"/>
    </g>
    <g id="line2d_51">
     <path d="M 301.127273 516.121818 
L 329.127273 516.121818 
" style="fill:none;stroke:#000000;stroke-linecap:round;stroke-width:3;"/>
    </g>
    <g id="line2d_52"/>
    <g id="text_51">
     <!-- $p(x_{1})$ -->
     <g style="fill:#262626;" transform="translate(340.327273 521.021818)scale(0.14 -0.14)">
      <use transform="translate(0 0.125)" xlink:href="#DejaVuSans-Oblique-112"/>
      <use transform="translate(63.476562 0.125)" xlink:href="#DejaVuSans-40"/>
      <use transform="translate(102.490234 0.125)" xlink:href="#DejaVuSans-Oblique-120"/>
      <use transform="translate(161.669922 -16.28125)scale(0.7)" xlink:href="#DejaVuSans-49"/>
      <use transform="translate(208.94043 0.125)" xlink:href="#DejaVuSans-41"/>
     </g>
    </g>
    <g id="line2d_53">
     <path d="M 301.127273 536.841818 
L 329.127273 536.841818 
" style="fill:none;stroke:#ff0000;stroke-linecap:round;stroke-width:2;"/>
    </g>
    <g id="line2d_54"/>
    <g id="text_52">
     <!-- $p(x_{1}|x_{2}=0.7)$ -->
     <g style="fill:#262626;" transform="translate(340.327273 541.741818)scale(0.14 -0.14)">
      <use transform="translate(0 0.578125)" xlink:href="#DejaVuSans-Oblique-112"/>
      <use transform="translate(63.476562 0.578125)" xlink:href="#DejaVuSans-40"/>
      <use transform="translate(102.490234 0.578125)" xlink:href="#DejaVuSans-Oblique-120"/>
      <use transform="translate(161.669922 -15.828125)scale(0.7)" xlink:href="#DejaVuSans-49"/>
      <use transform="translate(208.94043 0.578125)" xlink:href="#DejaVuSans-124"/>
      <use transform="translate(242.631836 0.578125)" xlink:href="#DejaVuSans-Oblique-120"/>
      <use transform="translate(301.811523 -15.828125)scale(0.7)" xlink:href="#DejaVuSans-50"/>
      <use transform="translate(368.564453 0.578125)" xlink:href="#DejaVuSans-61"/>
      <use transform="translate(471.835938 0.578125)" xlink:href="#DejaVuSans-48"/>
      <use transform="translate(535.458984 0.578125)" xlink:href="#DejaVuSans-46"/>
      <use transform="translate(567.136719 0.578125)" xlink:href="#DejaVuSans-55"/>
      <use transform="translate(630.759766 0.578125)" xlink:href="#DejaVuSans-41"/>
     </g>
    </g>
   </g>
  </g>
  <g id="axes_4"/>
 </g>
 <defs>
  <clipPath id="p46e66e9851">
   <rect height="321.218182" width="329.727273" x="117" y="112.32"/>
  </clipPath>
  <clipPath id="p9337c6dfab">
   <rect height="321.218182" width="329.727273" x="512.672727" y="112.32"/>
  </clipPath>
  <clipPath id="pf64d0e5389">
   <rect height="321.218182" width="329.727273" x="117" y="497.781818"/>
  </clipPath>
 </defs>
</svg>
